G04*
G04 #@! TF.GenerationSoftware,Altium Limited,Altium Designer,21.0.8 (223)*
G04*
G04 Layer_Color=65535*
%FSLAX25Y25*%
%MOIN*%
G70*
G04*
G04 #@! TF.SameCoordinates,8808BF78-C309-42CA-8E72-27723A8412DA*
G04*
G04*
G04 #@! TF.FilePolarity,Positive*
G04*
G01*
G75*
%ADD10C,0.02362*%
%ADD11C,0.00984*%
%ADD12C,0.01000*%
%ADD13C,0.00394*%
%ADD14C,0.00787*%
%ADD15C,0.00591*%
G36*
D02*
X10000D01*
Y10000D01*
X0D01*
Y0D01*
D02*
G37*
G36*
Y60000D02*
X10000D01*
Y70000D01*
X0D01*
Y60000D01*
D02*
G37*
G36*
X38922Y13420D02*
X27078D01*
Y17580D01*
X38922D01*
Y13420D01*
D02*
G37*
G36*
X74835Y55890D02*
X67165D01*
Y60110D01*
X74835D01*
Y55890D01*
D02*
G37*
G36*
X38818Y20420D02*
X30182D01*
Y24580D01*
X38818D01*
Y20420D01*
D02*
G37*
G36*
X114835Y60110D02*
Y55890D01*
X107165D01*
Y60110D01*
X114835D01*
D02*
G37*
G36*
X64835Y55890D02*
X57165D01*
Y60110D01*
X64835D01*
Y55890D01*
D02*
G37*
G36*
X34835Y60110D02*
Y55890D01*
X27165D01*
Y60110D01*
X34835D01*
D02*
G37*
G36*
X104835D02*
Y55890D01*
X97165D01*
Y60110D01*
X104835D01*
D02*
G37*
%LPC*%
G36*
X37240Y17160D02*
X37107D01*
X37024Y17148D01*
X36946Y17137D01*
X36880Y17126D01*
X36818Y17115D01*
X36780Y17104D01*
X36752Y17098D01*
X36741Y17093D01*
X36669Y17065D01*
X36596Y17037D01*
X36535Y17010D01*
X36485Y16982D01*
X36441Y16954D01*
X36408Y16932D01*
X36386Y16921D01*
X36380Y16915D01*
X36325Y16871D01*
X36280Y16821D01*
X36241Y16777D01*
X36202Y16732D01*
X36180Y16693D01*
X36158Y16660D01*
X36147Y16638D01*
X36141Y16632D01*
X36114Y16571D01*
X36091Y16505D01*
X36080Y16443D01*
X36069Y16383D01*
X36064Y16332D01*
X36058Y16294D01*
Y16271D01*
Y16260D01*
X36064Y16183D01*
X36069Y16111D01*
X36086Y16049D01*
X36102Y15994D01*
X36114Y15949D01*
X36130Y15911D01*
X36136Y15889D01*
X36141Y15883D01*
X36175Y15827D01*
X36213Y15772D01*
X36252Y15722D01*
X36291Y15683D01*
X36325Y15650D01*
X36352Y15622D01*
X36369Y15605D01*
X36374Y15600D01*
X36491Y15517D01*
X36546Y15478D01*
X36602Y15450D01*
X36646Y15422D01*
X36680Y15406D01*
X36707Y15395D01*
X36713Y15389D01*
X36857Y15334D01*
X36929Y15311D01*
X36990Y15289D01*
X37040Y15272D01*
X37085Y15261D01*
X37107Y15250D01*
X37118D01*
X37179Y15234D01*
X37235Y15211D01*
X37285Y15195D01*
X37329Y15178D01*
X37362Y15167D01*
X37385Y15156D01*
X37401Y15145D01*
X37407D01*
X37484Y15106D01*
X37545Y15067D01*
X37568Y15051D01*
X37584Y15039D01*
X37590Y15034D01*
X37595Y15028D01*
X37640Y14978D01*
X37673Y14934D01*
X37690Y14895D01*
X37695Y14889D01*
Y14884D01*
X37718Y14829D01*
X37723Y14778D01*
X37729Y14756D01*
Y14740D01*
Y14729D01*
Y14723D01*
X37723Y14662D01*
X37712Y14612D01*
X37695Y14579D01*
X37690Y14573D01*
Y14568D01*
X37662Y14518D01*
X37629Y14479D01*
X37601Y14451D01*
X37595Y14440D01*
X37590D01*
X37534Y14407D01*
X37484Y14385D01*
X37462Y14373D01*
X37446Y14368D01*
X37434Y14362D01*
X37429D01*
X37357Y14346D01*
X37285Y14340D01*
X37251Y14334D01*
X37207D01*
X37107Y14340D01*
X37063Y14346D01*
X37029Y14351D01*
X36996D01*
X36974Y14357D01*
X36957Y14362D01*
X36952D01*
X36874Y14390D01*
X36807Y14423D01*
X36785Y14440D01*
X36768Y14451D01*
X36757Y14462D01*
X36752D01*
X36696Y14518D01*
X36652Y14573D01*
X36641Y14595D01*
X36630Y14617D01*
X36619Y14629D01*
Y14634D01*
X36591Y14717D01*
X36580Y14801D01*
X36574Y14834D01*
X36569Y14862D01*
Y14878D01*
Y14884D01*
X35958D01*
X35964Y14756D01*
X35975Y14701D01*
X35986Y14656D01*
X35991Y14612D01*
X36003Y14584D01*
X36008Y14562D01*
Y14557D01*
X36053Y14457D01*
X36075Y14412D01*
X36097Y14373D01*
X36114Y14340D01*
X36130Y14318D01*
X36141Y14301D01*
X36147Y14296D01*
X36219Y14218D01*
X36286Y14157D01*
X36313Y14129D01*
X36336Y14112D01*
X36347Y14101D01*
X36352Y14096D01*
X36447Y14040D01*
X36491Y14013D01*
X36530Y13990D01*
X36563Y13974D01*
X36591Y13963D01*
X36608Y13957D01*
X36613Y13952D01*
X36718Y13918D01*
X36763Y13902D01*
X36807Y13891D01*
X36846Y13885D01*
X36874Y13879D01*
X36896Y13874D01*
X36902D01*
X37013Y13857D01*
X37068Y13852D01*
X37113D01*
X37151Y13846D01*
X37296D01*
X37385Y13857D01*
X37462Y13863D01*
X37529Y13874D01*
X37584Y13885D01*
X37629Y13891D01*
X37651Y13902D01*
X37662D01*
X37740Y13924D01*
X37806Y13952D01*
X37867Y13979D01*
X37923Y14007D01*
X37962Y14029D01*
X37995Y14051D01*
X38017Y14062D01*
X38023Y14068D01*
X38078Y14112D01*
X38123Y14163D01*
X38162Y14207D01*
X38195Y14251D01*
X38223Y14290D01*
X38239Y14323D01*
X38250Y14346D01*
X38256Y14351D01*
X38284Y14418D01*
X38306Y14479D01*
X38322Y14545D01*
X38334Y14601D01*
X38339Y14651D01*
X38345Y14695D01*
Y14729D01*
X38339Y14801D01*
X38334Y14867D01*
X38322Y14928D01*
X38306Y14984D01*
X38289Y15028D01*
X38278Y15062D01*
X38273Y15084D01*
X38267Y15089D01*
X38239Y15150D01*
X38206Y15206D01*
X38173Y15256D01*
X38139Y15300D01*
X38106Y15334D01*
X38084Y15361D01*
X38067Y15378D01*
X38062Y15383D01*
X37956Y15472D01*
X37901Y15511D01*
X37851Y15544D01*
X37806Y15567D01*
X37773Y15589D01*
X37751Y15600D01*
X37740Y15605D01*
X37601Y15672D01*
X37529Y15694D01*
X37468Y15717D01*
X37412Y15739D01*
X37373Y15750D01*
X37346Y15761D01*
X37335D01*
X37224Y15794D01*
X37179Y15811D01*
X37135Y15822D01*
X37101Y15833D01*
X37074Y15844D01*
X37057Y15850D01*
X37051D01*
X36968Y15889D01*
X36929Y15905D01*
X36902Y15922D01*
X36874Y15938D01*
X36857Y15949D01*
X36846Y15961D01*
X36841D01*
X36785Y16005D01*
X36746Y16049D01*
X36724Y16083D01*
X36713Y16088D01*
Y16094D01*
X36685Y16149D01*
X36674Y16199D01*
X36669Y16221D01*
Y16238D01*
Y16249D01*
Y16255D01*
X36674Y16316D01*
X36685Y16371D01*
X36696Y16405D01*
X36702Y16410D01*
Y16416D01*
X36730Y16471D01*
X36763Y16510D01*
X36791Y16532D01*
X36802Y16543D01*
X36857Y16582D01*
X36907Y16604D01*
X36929Y16615D01*
X36946Y16621D01*
X36957Y16627D01*
X36963D01*
X37040Y16649D01*
X37113Y16654D01*
X37140Y16660D01*
X37185D01*
X37279Y16654D01*
X37323Y16649D01*
X37357Y16643D01*
X37385Y16632D01*
X37407Y16627D01*
X37418Y16621D01*
X37423D01*
X37490Y16593D01*
X37545Y16560D01*
X37579Y16532D01*
X37584Y16527D01*
X37590Y16521D01*
X37634Y16471D01*
X37668Y16421D01*
X37679Y16399D01*
X37684Y16383D01*
X37690Y16371D01*
Y16366D01*
X37712Y16299D01*
X37729Y16233D01*
Y16205D01*
X37734Y16183D01*
Y16172D01*
Y16166D01*
X38339D01*
X38334Y16244D01*
X38328Y16321D01*
X38311Y16388D01*
X38300Y16449D01*
X38284Y16499D01*
X38267Y16532D01*
X38261Y16560D01*
X38256Y16566D01*
X38223Y16632D01*
X38184Y16693D01*
X38145Y16743D01*
X38106Y16788D01*
X38073Y16826D01*
X38045Y16854D01*
X38023Y16871D01*
X38017Y16876D01*
X37956Y16926D01*
X37895Y16965D01*
X37840Y16998D01*
X37779Y17032D01*
X37729Y17054D01*
X37690Y17071D01*
X37668Y17076D01*
X37657Y17082D01*
X37579Y17109D01*
X37495Y17126D01*
X37423Y17143D01*
X37351Y17148D01*
X37290Y17154D01*
X37240Y17160D01*
D02*
G37*
G36*
X30247Y17115D02*
X29559D01*
X28949Y14784D01*
X28343Y17115D01*
X27655D01*
X28632Y13885D01*
X29265D01*
X30247Y17115D01*
D02*
G37*
G36*
X35481D02*
X34859D01*
Y14973D01*
X34854Y14862D01*
X34837Y14767D01*
X34815Y14684D01*
X34793Y14617D01*
X34770Y14562D01*
X34748Y14523D01*
X34737Y14501D01*
X34732Y14495D01*
X34682Y14446D01*
X34626Y14407D01*
X34571Y14379D01*
X34515Y14362D01*
X34465Y14351D01*
X34426Y14340D01*
X34387D01*
X34310Y14346D01*
X34243Y14362D01*
X34188Y14390D01*
X34138Y14418D01*
X34104Y14446D01*
X34077Y14473D01*
X34060Y14490D01*
X34054Y14495D01*
X34016Y14562D01*
X33988Y14640D01*
X33971Y14717D01*
X33960Y14795D01*
X33949Y14862D01*
X33944Y14923D01*
Y14945D01*
Y14962D01*
Y14967D01*
Y14973D01*
Y17115D01*
X33316D01*
Y14973D01*
X33322Y14873D01*
X33327Y14784D01*
X33338Y14701D01*
X33355Y14629D01*
X33366Y14573D01*
X33377Y14529D01*
X33383Y14501D01*
X33389Y14490D01*
X33422Y14412D01*
X33455Y14346D01*
X33494Y14285D01*
X33527Y14235D01*
X33555Y14190D01*
X33583Y14163D01*
X33599Y14140D01*
X33605Y14135D01*
X33660Y14085D01*
X33722Y14040D01*
X33777Y14002D01*
X33827Y13968D01*
X33877Y13946D01*
X33910Y13929D01*
X33932Y13918D01*
X33944Y13913D01*
X34021Y13891D01*
X34099Y13874D01*
X34171Y13857D01*
X34243Y13852D01*
X34299Y13846D01*
X34349Y13840D01*
X34387D01*
X34482Y13846D01*
X34565Y13852D01*
X34648Y13863D01*
X34715Y13879D01*
X34770Y13891D01*
X34815Y13902D01*
X34837Y13907D01*
X34848Y13913D01*
X34920Y13946D01*
X34987Y13979D01*
X35048Y14018D01*
X35098Y14051D01*
X35137Y14085D01*
X35170Y14112D01*
X35187Y14129D01*
X35192Y14135D01*
X35242Y14190D01*
X35287Y14251D01*
X35320Y14312D01*
X35348Y14368D01*
X35375Y14418D01*
X35392Y14457D01*
X35398Y14479D01*
X35403Y14490D01*
X35431Y14573D01*
X35448Y14656D01*
X35464Y14734D01*
X35470Y14812D01*
X35475Y14878D01*
X35481Y14928D01*
Y17115D01*
D02*
G37*
G36*
X31779D02*
X30597D01*
Y13885D01*
X31873D01*
X31962Y13896D01*
X32040Y13902D01*
X32112Y13913D01*
X32168Y13924D01*
X32212Y13929D01*
X32240Y13940D01*
X32251D01*
X32328Y13968D01*
X32401Y13996D01*
X32462Y14024D01*
X32517Y14051D01*
X32556Y14079D01*
X32589Y14101D01*
X32612Y14112D01*
X32617Y14118D01*
X32673Y14168D01*
X32717Y14218D01*
X32756Y14268D01*
X32789Y14312D01*
X32811Y14357D01*
X32828Y14390D01*
X32839Y14412D01*
X32845Y14418D01*
X32872Y14484D01*
X32895Y14557D01*
X32906Y14629D01*
X32917Y14690D01*
X32922Y14745D01*
X32928Y14790D01*
Y14829D01*
X32922Y14917D01*
X32917Y14956D01*
X32911Y14989D01*
X32906Y15023D01*
X32900Y15045D01*
X32895Y15056D01*
Y15062D01*
X32867Y15145D01*
X32833Y15211D01*
X32817Y15239D01*
X32806Y15256D01*
X32800Y15267D01*
X32795Y15272D01*
X32739Y15339D01*
X32684Y15395D01*
X32662Y15417D01*
X32639Y15433D01*
X32628Y15439D01*
X32623Y15445D01*
X32545Y15489D01*
X32467Y15522D01*
X32434Y15533D01*
X32406Y15544D01*
X32390Y15550D01*
X32384D01*
X32462Y15589D01*
X32534Y15633D01*
X32595Y15678D01*
X32639Y15722D01*
X32678Y15761D01*
X32706Y15794D01*
X32722Y15816D01*
X32728Y15822D01*
X32767Y15894D01*
X32800Y15966D01*
X32822Y16033D01*
X32833Y16094D01*
X32845Y16149D01*
X32850Y16194D01*
Y16221D01*
Y16233D01*
X32845Y16316D01*
X32839Y16388D01*
X32822Y16455D01*
X32811Y16510D01*
X32795Y16555D01*
X32778Y16593D01*
X32772Y16615D01*
X32767Y16621D01*
X32734Y16682D01*
X32695Y16738D01*
X32656Y16782D01*
X32617Y16821D01*
X32584Y16854D01*
X32556Y16876D01*
X32534Y16893D01*
X32528Y16899D01*
X32467Y16938D01*
X32406Y16971D01*
X32345Y16998D01*
X32290Y17021D01*
X32240Y17037D01*
X32201Y17048D01*
X32173Y17060D01*
X32162D01*
X31995Y17093D01*
X31918Y17104D01*
X31840Y17109D01*
X31779Y17115D01*
D02*
G37*
%LPD*%
G36*
Y16599D02*
X31862Y16588D01*
X31929Y16571D01*
X31990Y16555D01*
X32034Y16538D01*
X32062Y16521D01*
X32084Y16510D01*
X32090Y16505D01*
X32134Y16460D01*
X32168Y16410D01*
X32195Y16355D01*
X32212Y16305D01*
X32223Y16255D01*
X32229Y16216D01*
Y16188D01*
Y16177D01*
X32223Y16105D01*
X32206Y16044D01*
X32184Y15988D01*
X32156Y15944D01*
X32129Y15911D01*
X32107Y15889D01*
X32090Y15872D01*
X32084Y15866D01*
X32029Y15833D01*
X31962Y15805D01*
X31896Y15783D01*
X31835Y15772D01*
X31773Y15761D01*
X31729Y15755D01*
X31224D01*
Y16604D01*
X31685D01*
X31779Y16599D01*
D02*
G37*
G36*
X31896Y15300D02*
X31973Y15283D01*
X32040Y15267D01*
X32090Y15245D01*
X32134Y15217D01*
X32162Y15200D01*
X32179Y15184D01*
X32184Y15178D01*
X32223Y15128D01*
X32256Y15073D01*
X32273Y15017D01*
X32290Y14962D01*
X32295Y14912D01*
X32301Y14873D01*
Y14845D01*
Y14834D01*
X32295Y14762D01*
X32278Y14701D01*
X32256Y14645D01*
X32234Y14601D01*
X32212Y14562D01*
X32190Y14534D01*
X32173Y14518D01*
X32168Y14512D01*
X32112Y14473D01*
X32051Y14440D01*
X31984Y14418D01*
X31923Y14401D01*
X31868Y14396D01*
X31823Y14390D01*
X31790Y14385D01*
X31224D01*
Y15306D01*
X31807D01*
X31896Y15300D01*
D02*
G37*
%LPC*%
G36*
X71000Y59104D02*
X70911D01*
X70856Y59097D01*
X70804Y59090D01*
X70759Y59082D01*
X70719Y59075D01*
X70693Y59067D01*
X70674Y59064D01*
X70667Y59060D01*
X70619Y59042D01*
X70571Y59023D01*
X70530Y59004D01*
X70497Y58986D01*
X70467Y58968D01*
X70445Y58953D01*
X70430Y58945D01*
X70426Y58942D01*
X70389Y58912D01*
X70360Y58879D01*
X70334Y58849D01*
X70308Y58820D01*
X70293Y58794D01*
X70279Y58772D01*
X70271Y58757D01*
X70267Y58753D01*
X70249Y58712D01*
X70234Y58668D01*
X70227Y58627D01*
X70219Y58587D01*
X70216Y58553D01*
X70212Y58527D01*
Y58513D01*
Y58505D01*
X70216Y58453D01*
X70219Y58405D01*
X70230Y58364D01*
X70241Y58327D01*
X70249Y58298D01*
X70260Y58272D01*
X70264Y58257D01*
X70267Y58253D01*
X70290Y58216D01*
X70315Y58179D01*
X70341Y58146D01*
X70367Y58120D01*
X70389Y58098D01*
X70408Y58079D01*
X70419Y58068D01*
X70423Y58065D01*
X70500Y58009D01*
X70538Y57983D01*
X70574Y57965D01*
X70604Y57946D01*
X70626Y57935D01*
X70645Y57928D01*
X70648Y57924D01*
X70745Y57887D01*
X70793Y57872D01*
X70833Y57858D01*
X70867Y57846D01*
X70896Y57839D01*
X70911Y57832D01*
X70919D01*
X70959Y57821D01*
X70996Y57806D01*
X71030Y57795D01*
X71059Y57784D01*
X71081Y57776D01*
X71096Y57769D01*
X71107Y57761D01*
X71111D01*
X71163Y57736D01*
X71204Y57710D01*
X71218Y57699D01*
X71229Y57691D01*
X71233Y57687D01*
X71237Y57684D01*
X71266Y57650D01*
X71289Y57621D01*
X71300Y57595D01*
X71303Y57591D01*
Y57587D01*
X71318Y57551D01*
X71322Y57517D01*
X71326Y57502D01*
Y57491D01*
Y57484D01*
Y57480D01*
X71322Y57439D01*
X71315Y57406D01*
X71303Y57384D01*
X71300Y57380D01*
Y57376D01*
X71281Y57343D01*
X71259Y57317D01*
X71241Y57299D01*
X71237Y57291D01*
X71233D01*
X71196Y57269D01*
X71163Y57254D01*
X71148Y57247D01*
X71137Y57243D01*
X71130Y57240D01*
X71126D01*
X71078Y57228D01*
X71030Y57225D01*
X71007Y57221D01*
X70978D01*
X70911Y57225D01*
X70882Y57228D01*
X70859Y57232D01*
X70837D01*
X70822Y57236D01*
X70811Y57240D01*
X70808D01*
X70756Y57258D01*
X70711Y57280D01*
X70697Y57291D01*
X70685Y57299D01*
X70678Y57306D01*
X70674D01*
X70637Y57343D01*
X70608Y57380D01*
X70600Y57395D01*
X70593Y57410D01*
X70586Y57417D01*
Y57421D01*
X70567Y57476D01*
X70560Y57532D01*
X70556Y57554D01*
X70552Y57573D01*
Y57584D01*
Y57587D01*
X70145D01*
X70149Y57502D01*
X70156Y57465D01*
X70164Y57436D01*
X70167Y57406D01*
X70175Y57388D01*
X70179Y57373D01*
Y57369D01*
X70208Y57302D01*
X70223Y57273D01*
X70238Y57247D01*
X70249Y57225D01*
X70260Y57210D01*
X70267Y57199D01*
X70271Y57195D01*
X70319Y57143D01*
X70364Y57103D01*
X70382Y57084D01*
X70397Y57073D01*
X70404Y57066D01*
X70408Y57062D01*
X70471Y57025D01*
X70500Y57007D01*
X70526Y56992D01*
X70549Y56981D01*
X70567Y56973D01*
X70578Y56970D01*
X70582Y56966D01*
X70652Y56944D01*
X70682Y56933D01*
X70711Y56925D01*
X70737Y56921D01*
X70756Y56918D01*
X70771Y56914D01*
X70774D01*
X70848Y56903D01*
X70885Y56899D01*
X70915D01*
X70941Y56896D01*
X71037D01*
X71096Y56903D01*
X71148Y56907D01*
X71192Y56914D01*
X71229Y56921D01*
X71259Y56925D01*
X71274Y56933D01*
X71281D01*
X71333Y56947D01*
X71377Y56966D01*
X71418Y56984D01*
X71455Y57003D01*
X71481Y57018D01*
X71503Y57032D01*
X71518Y57040D01*
X71522Y57044D01*
X71559Y57073D01*
X71588Y57106D01*
X71614Y57136D01*
X71636Y57166D01*
X71655Y57191D01*
X71666Y57214D01*
X71673Y57228D01*
X71677Y57232D01*
X71696Y57277D01*
X71710Y57317D01*
X71722Y57362D01*
X71729Y57399D01*
X71733Y57432D01*
X71736Y57462D01*
Y57240D01*
Y57502D01*
Y57484D01*
X71733Y57532D01*
X71729Y57576D01*
X71722Y57617D01*
X71710Y57654D01*
X71699Y57684D01*
X71692Y57706D01*
X71688Y57721D01*
X71684Y57724D01*
X71666Y57765D01*
X71644Y57802D01*
X71622Y57835D01*
X71599Y57865D01*
X71577Y57887D01*
X71562Y57906D01*
X71551Y57917D01*
X71548Y57920D01*
X71477Y57980D01*
X71440Y58006D01*
X71407Y58028D01*
X71377Y58043D01*
X71355Y58057D01*
X71340Y58065D01*
X71333Y58068D01*
X71241Y58113D01*
X71192Y58128D01*
X71152Y58142D01*
X71115Y58157D01*
X71089Y58165D01*
X71070Y58172D01*
X71063D01*
X70989Y58194D01*
X70959Y58205D01*
X70930Y58213D01*
X70907Y58220D01*
X70889Y58227D01*
X70878Y58231D01*
X70874D01*
X70819Y58257D01*
X70793Y58268D01*
X70774Y58279D01*
X70756Y58290D01*
X70745Y58298D01*
X70737Y58305D01*
X70734D01*
X70697Y58335D01*
X70671Y58364D01*
X70656Y58387D01*
X70648Y58390D01*
Y58394D01*
X70630Y58431D01*
X70623Y58464D01*
X70619Y58479D01*
Y58490D01*
Y58498D01*
Y58501D01*
X70623Y58542D01*
X70630Y58579D01*
X70637Y58601D01*
X70641Y58605D01*
Y58609D01*
X70660Y58646D01*
X70682Y58672D01*
X70700Y58686D01*
X70708Y58694D01*
X70745Y58720D01*
X70778Y58735D01*
X70793Y58742D01*
X70804Y58746D01*
X70811Y58749D01*
X70815D01*
X70867Y58764D01*
X70915Y58768D01*
X70933Y58772D01*
X70963D01*
X71026Y58768D01*
X71056Y58764D01*
X71078Y58760D01*
X71096Y58753D01*
X71111Y58749D01*
X71118Y58746D01*
X71122D01*
X71166Y58727D01*
X71204Y58705D01*
X71226Y58686D01*
X71229Y58683D01*
X71233Y58679D01*
X71263Y58646D01*
X71285Y58612D01*
X71292Y58598D01*
X71296Y58587D01*
X71300Y58579D01*
Y58575D01*
X71315Y58531D01*
X71326Y58486D01*
Y58468D01*
X71329Y58453D01*
Y58446D01*
Y58442D01*
X71733D01*
X71729Y58494D01*
X71725Y58546D01*
X71714Y58590D01*
X71707Y58631D01*
X71696Y58664D01*
X71684Y58686D01*
X71681Y58705D01*
X71677Y58709D01*
X71655Y58753D01*
X71629Y58794D01*
X71603Y58827D01*
X71577Y58857D01*
X71555Y58882D01*
X71536Y58901D01*
X71522Y58912D01*
X71518Y58916D01*
X71477Y58949D01*
X71437Y58975D01*
X71400Y58997D01*
X71359Y59019D01*
X71326Y59034D01*
X71300Y59045D01*
X71285Y59049D01*
X71277Y59053D01*
X71226Y59071D01*
X71170Y59082D01*
X71122Y59093D01*
X71074Y59097D01*
X71033Y59101D01*
X71000Y59104D01*
D02*
G37*
G36*
X73608Y59075D02*
X71869D01*
Y58735D01*
X72524D01*
Y56921D01*
X71869D01*
X73608D01*
Y59075D01*
D02*
G37*
G36*
X69971D02*
X68392D01*
Y56921D01*
X68806D01*
Y57724D01*
X69120D01*
X69527Y56921D01*
X69971D01*
Y56944D01*
Y56940D01*
X69509Y57828D01*
X69572Y57861D01*
X69598Y57876D01*
X69624Y57891D01*
X69642Y57902D01*
X69657Y57913D01*
X69664Y57917D01*
X69668Y57920D01*
X69720Y57965D01*
X69761Y58006D01*
X69775Y58024D01*
X69786Y58039D01*
X69790Y58046D01*
X69794Y58050D01*
X69827Y58109D01*
X69853Y58161D01*
X69860Y58183D01*
X69868Y58202D01*
X69871Y58213D01*
Y58216D01*
X69886Y58287D01*
X69890Y58324D01*
X69894Y58353D01*
X69897Y58383D01*
Y58405D01*
Y58420D01*
Y58424D01*
X69894Y58483D01*
X69890Y58535D01*
X69879Y58583D01*
X69871Y58623D01*
X69860Y58657D01*
X69849Y58683D01*
X69846Y58701D01*
X69842Y58705D01*
X69820Y58749D01*
X69794Y58790D01*
X69768Y58823D01*
X69742Y58853D01*
X69720Y58875D01*
X69701Y58894D01*
X69687Y58905D01*
X69683Y58908D01*
X69642Y58938D01*
X69601Y58960D01*
X69561Y58982D01*
X69520Y59001D01*
X69487Y59012D01*
X69461Y59023D01*
X69442Y59030D01*
X69435D01*
X69379Y59045D01*
X69324Y59056D01*
X69268Y59064D01*
X69220Y59071D01*
X69176D01*
X69143Y59075D01*
X69971D01*
D02*
G37*
%LPD*%
G36*
X73608Y56921D02*
X72943D01*
Y58735D01*
X73608D01*
Y56921D01*
D02*
G37*
G36*
X69176Y58735D02*
X69231Y58723D01*
X69279Y58709D01*
X69317Y58694D01*
X69350Y58675D01*
X69368Y58661D01*
X69383Y58649D01*
X69387Y58646D01*
X69420Y58609D01*
X69442Y58568D01*
X69461Y58527D01*
X69472Y58490D01*
X69479Y58453D01*
X69483Y58424D01*
Y58405D01*
Y58401D01*
Y58398D01*
X69479Y58342D01*
X69468Y58294D01*
X69453Y58250D01*
X69435Y58216D01*
X69416Y58187D01*
X69402Y58168D01*
X69390Y58153D01*
X69387Y58150D01*
X69346Y58120D01*
X69305Y58098D01*
X69257Y58083D01*
X69213Y58072D01*
X69176Y58065D01*
X69143Y58061D01*
X68806D01*
Y58738D01*
X69113D01*
X69176Y58735D01*
D02*
G37*
%LPC*%
G36*
X35838Y24115D02*
X35149D01*
X34539Y21784D01*
X33934Y24115D01*
X33246D01*
X34222Y20885D01*
X34855D01*
X35838Y24115D01*
D02*
G37*
G36*
X37242Y24160D02*
X37120D01*
X37042Y24148D01*
X36975Y24137D01*
X36914Y24126D01*
X36859Y24115D01*
X36820Y24104D01*
X36798Y24098D01*
X36787Y24093D01*
X36720Y24065D01*
X36653Y24037D01*
X36598Y24010D01*
X36548Y23982D01*
X36509Y23954D01*
X36481Y23932D01*
X36459Y23921D01*
X36454Y23915D01*
X36404Y23871D01*
X36359Y23821D01*
X36320Y23776D01*
X36293Y23732D01*
X36265Y23693D01*
X36248Y23660D01*
X36237Y23638D01*
X36232Y23632D01*
X36204Y23571D01*
X36187Y23510D01*
X36171Y23449D01*
X36165Y23393D01*
X36159Y23349D01*
X36154Y23310D01*
Y23288D01*
Y23277D01*
X36770D01*
X36775Y23338D01*
X36787Y23388D01*
X36798Y23421D01*
X36803Y23427D01*
Y23432D01*
X36836Y23482D01*
X36870Y23521D01*
X36892Y23543D01*
X36903Y23554D01*
X36953Y23588D01*
X36998Y23610D01*
X37031Y23627D01*
X37036Y23632D01*
X37042D01*
X37103Y23649D01*
X37164Y23654D01*
X37186Y23660D01*
X37220D01*
X37297Y23654D01*
X37358Y23643D01*
X37380Y23638D01*
X37397Y23632D01*
X37408Y23627D01*
X37414D01*
X37475Y23599D01*
X37519Y23571D01*
X37547Y23549D01*
X37558Y23543D01*
Y23538D01*
X37597Y23494D01*
X37619Y23449D01*
X37636Y23416D01*
X37641Y23410D01*
Y23405D01*
X37658Y23344D01*
X37663Y23288D01*
X37669Y23266D01*
Y23249D01*
Y23238D01*
Y23233D01*
X37663Y23160D01*
X37652Y23088D01*
X37630Y23033D01*
X37608Y22983D01*
X37586Y22944D01*
X37564Y22916D01*
X37552Y22900D01*
X37547Y22894D01*
X37497Y22850D01*
X37436Y22822D01*
X37375Y22800D01*
X37314Y22783D01*
X37258Y22772D01*
X37214Y22766D01*
X36836D01*
Y22289D01*
X37170D01*
X37258Y22284D01*
X37297Y22278D01*
X37330D01*
X37358Y22273D01*
X37380Y22267D01*
X37392Y22261D01*
X37397D01*
X37464Y22234D01*
X37519Y22206D01*
X37541Y22195D01*
X37558Y22184D01*
X37564Y22178D01*
X37569Y22173D01*
X37619Y22123D01*
X37652Y22073D01*
X37663Y22050D01*
X37675Y22034D01*
X37680Y22023D01*
Y22017D01*
X37702Y21945D01*
X37714Y21873D01*
X37719Y21839D01*
Y21817D01*
Y21801D01*
Y21795D01*
X37714Y21717D01*
X37697Y21651D01*
X37675Y21595D01*
X37652Y21545D01*
X37630Y21507D01*
X37608Y21479D01*
X37591Y21462D01*
X37586Y21457D01*
X37530Y21418D01*
X37475Y21384D01*
X37414Y21362D01*
X37353Y21351D01*
X37303Y21340D01*
X37258Y21335D01*
X37220D01*
X37142Y21340D01*
X37081Y21351D01*
X37053D01*
X37036Y21357D01*
X37025Y21362D01*
X37020D01*
X36959Y21390D01*
X36909Y21418D01*
X36875Y21440D01*
X36870Y21451D01*
X36864D01*
X36825Y21501D01*
X36792Y21545D01*
X36770Y21579D01*
X36764Y21584D01*
Y21590D01*
X36748Y21651D01*
X36737Y21706D01*
X36731Y21729D01*
Y21745D01*
Y21756D01*
Y21762D01*
X36115D01*
X36121Y21679D01*
X36132Y21595D01*
X36143Y21529D01*
X36159Y21468D01*
X36176Y21418D01*
X36193Y21384D01*
X36198Y21357D01*
X36204Y21351D01*
X36243Y21290D01*
X36281Y21235D01*
X36320Y21185D01*
X36359Y21140D01*
X36398Y21107D01*
X36426Y21085D01*
X36443Y21068D01*
X36448Y21062D01*
X36570Y20990D01*
X36626Y20963D01*
X36681Y20941D01*
X36726Y20918D01*
X36764Y20907D01*
X36787Y20902D01*
X36798Y20896D01*
X36948Y20863D01*
X37014Y20852D01*
X37075Y20846D01*
X37125D01*
X37170Y20841D01*
X37203D01*
X37292Y20846D01*
X37375Y20852D01*
X37447Y20863D01*
X37514Y20874D01*
X37569Y20885D01*
X37613Y20890D01*
X37636Y20902D01*
X37647D01*
X37725Y20929D01*
X37791Y20957D01*
X37852Y20985D01*
X37908Y21018D01*
X37947Y21040D01*
X37980Y21062D01*
X38002Y21079D01*
X38008Y21085D01*
X38063Y21135D01*
X38113Y21185D01*
X38152Y21235D01*
X38185Y21279D01*
X38213Y21323D01*
X38230Y21357D01*
X38241Y21379D01*
X38246Y21384D01*
X38274Y21451D01*
X38296Y21523D01*
X38313Y21590D01*
X38324Y21656D01*
X38329Y21706D01*
X38335Y21751D01*
Y21790D01*
X38329Y21878D01*
X38324Y21923D01*
X38318Y21956D01*
X38313Y21984D01*
X38307Y22012D01*
X38302Y22023D01*
Y22028D01*
X38274Y22111D01*
X38246Y22178D01*
X38230Y22206D01*
X38219Y22222D01*
X38213Y22234D01*
X38207Y22239D01*
X38152Y22306D01*
X38102Y22361D01*
X38074Y22383D01*
X38058Y22400D01*
X38046Y22406D01*
X38041Y22411D01*
X37963Y22467D01*
X37891Y22505D01*
X37858Y22517D01*
X37830Y22528D01*
X37813Y22539D01*
X37808D01*
X37891Y22583D01*
X37952Y22628D01*
X37980Y22644D01*
X37997Y22661D01*
X38008Y22667D01*
X38013Y22672D01*
X38074Y22733D01*
X38124Y22783D01*
X38141Y22805D01*
X38152Y22822D01*
X38163Y22833D01*
Y22839D01*
X38202Y22911D01*
X38230Y22972D01*
X38241Y22994D01*
X38246Y23016D01*
X38252Y23027D01*
Y23033D01*
X38274Y23105D01*
X38280Y23171D01*
X38285Y23199D01*
Y23222D01*
Y23233D01*
Y23238D01*
X38280Y23321D01*
X38274Y23399D01*
X38263Y23466D01*
X38246Y23521D01*
X38230Y23571D01*
X38219Y23610D01*
X38213Y23632D01*
X38207Y23638D01*
X38174Y23699D01*
X38141Y23754D01*
X38102Y23804D01*
X38069Y23849D01*
X38035Y23882D01*
X38008Y23904D01*
X37991Y23921D01*
X37985Y23926D01*
X37930Y23965D01*
X37869Y24004D01*
X37813Y24032D01*
X37758Y24054D01*
X37714Y24076D01*
X37675Y24087D01*
X37652Y24098D01*
X37641D01*
X37564Y24121D01*
X37491Y24132D01*
X37414Y24143D01*
X37347Y24154D01*
X37292D01*
X37242Y24160D01*
D02*
G37*
G36*
X31792D02*
X31670D01*
X31592Y24148D01*
X31525Y24137D01*
X31464Y24126D01*
X31409Y24115D01*
X31370Y24104D01*
X31348Y24098D01*
X31337Y24093D01*
X31270Y24065D01*
X31203Y24037D01*
X31148Y24010D01*
X31098Y23982D01*
X31059Y23954D01*
X31031Y23932D01*
X31009Y23921D01*
X31003Y23915D01*
X30954Y23871D01*
X30909Y23821D01*
X30870Y23776D01*
X30843Y23732D01*
X30815Y23693D01*
X30798Y23660D01*
X30787Y23638D01*
X30781Y23632D01*
X30754Y23571D01*
X30737Y23510D01*
X30720Y23449D01*
X30715Y23393D01*
X30709Y23349D01*
X30704Y23310D01*
Y23288D01*
Y23277D01*
X31320D01*
X31325Y23338D01*
X31337Y23388D01*
X31348Y23421D01*
X31353Y23427D01*
Y23432D01*
X31387Y23482D01*
X31420Y23521D01*
X31442Y23543D01*
X31453Y23554D01*
X31503Y23588D01*
X31547Y23610D01*
X31581Y23627D01*
X31586Y23632D01*
X31592D01*
X31653Y23649D01*
X31714Y23654D01*
X31736Y23660D01*
X31769D01*
X31847Y23654D01*
X31908Y23643D01*
X31930Y23638D01*
X31947Y23632D01*
X31958Y23627D01*
X31964D01*
X32025Y23599D01*
X32069Y23571D01*
X32097Y23549D01*
X32108Y23543D01*
Y23538D01*
X32147Y23494D01*
X32169Y23449D01*
X32186Y23416D01*
X32191Y23410D01*
Y23405D01*
X32208Y23344D01*
X32213Y23288D01*
X32219Y23266D01*
Y23249D01*
Y23238D01*
Y23233D01*
X32213Y23160D01*
X32202Y23088D01*
X32180Y23033D01*
X32158Y22983D01*
X32136Y22944D01*
X32114Y22916D01*
X32102Y22900D01*
X32097Y22894D01*
X32047Y22850D01*
X31986Y22822D01*
X31925Y22800D01*
X31864Y22783D01*
X31808Y22772D01*
X31764Y22766D01*
X31387D01*
Y22289D01*
X31719D01*
X31808Y22284D01*
X31847Y22278D01*
X31880D01*
X31908Y22273D01*
X31930Y22267D01*
X31941Y22261D01*
X31947D01*
X32014Y22234D01*
X32069Y22206D01*
X32091Y22195D01*
X32108Y22184D01*
X32114Y22178D01*
X32119Y22173D01*
X32169Y22123D01*
X32202Y22073D01*
X32213Y22050D01*
X32225Y22034D01*
X32230Y22023D01*
Y22017D01*
X32252Y21945D01*
X32263Y21873D01*
X32269Y21839D01*
Y21817D01*
Y21801D01*
Y21795D01*
X32263Y21717D01*
X32247Y21651D01*
X32225Y21595D01*
X32202Y21545D01*
X32180Y21507D01*
X32158Y21479D01*
X32141Y21462D01*
X32136Y21457D01*
X32080Y21418D01*
X32025Y21384D01*
X31964Y21362D01*
X31903Y21351D01*
X31853Y21340D01*
X31808Y21335D01*
X31769D01*
X31692Y21340D01*
X31631Y21351D01*
X31603D01*
X31586Y21357D01*
X31575Y21362D01*
X31570D01*
X31509Y21390D01*
X31459Y21418D01*
X31425Y21440D01*
X31420Y21451D01*
X31414D01*
X31375Y21501D01*
X31342Y21545D01*
X31320Y21579D01*
X31314Y21584D01*
Y21590D01*
X31298Y21651D01*
X31286Y21706D01*
X31281Y21729D01*
Y21745D01*
Y21756D01*
Y21762D01*
X30665D01*
X30670Y21679D01*
X30682Y21595D01*
X30693Y21529D01*
X30709Y21468D01*
X30726Y21418D01*
X30743Y21384D01*
X30748Y21357D01*
X30754Y21351D01*
X30793Y21290D01*
X30832Y21235D01*
X30870Y21185D01*
X30909Y21140D01*
X30948Y21107D01*
X30976Y21085D01*
X30992Y21068D01*
X30998Y21062D01*
X31120Y20990D01*
X31176Y20963D01*
X31231Y20941D01*
X31275Y20918D01*
X31314Y20907D01*
X31337Y20902D01*
X31348Y20896D01*
X31497Y20863D01*
X31564Y20852D01*
X31625Y20846D01*
X31675D01*
X31719Y20841D01*
X31753D01*
X31842Y20846D01*
X31925Y20852D01*
X31997Y20863D01*
X32063Y20874D01*
X32119Y20885D01*
X32164Y20890D01*
X32186Y20902D01*
X32197D01*
X32274Y20929D01*
X32341Y20957D01*
X32402Y20985D01*
X32458Y21018D01*
X32496Y21040D01*
X32530Y21062D01*
X32552Y21079D01*
X32557Y21085D01*
X32613Y21135D01*
X32663Y21185D01*
X32702Y21235D01*
X32735Y21279D01*
X32763Y21323D01*
X32779Y21357D01*
X32791Y21379D01*
X32796Y21384D01*
X32824Y21451D01*
X32846Y21523D01*
X32863Y21590D01*
X32874Y21656D01*
X32879Y21706D01*
X32885Y21751D01*
Y21790D01*
X32879Y21878D01*
X32874Y21923D01*
X32868Y21956D01*
X32863Y21984D01*
X32857Y22012D01*
X32852Y22023D01*
Y22028D01*
X32824Y22111D01*
X32796Y22178D01*
X32779Y22206D01*
X32768Y22222D01*
X32763Y22234D01*
X32757Y22239D01*
X32702Y22306D01*
X32652Y22361D01*
X32624Y22383D01*
X32607Y22400D01*
X32596Y22406D01*
X32591Y22411D01*
X32513Y22467D01*
X32441Y22505D01*
X32408Y22517D01*
X32380Y22528D01*
X32363Y22539D01*
X32358D01*
X32441Y22583D01*
X32502Y22628D01*
X32530Y22644D01*
X32546Y22661D01*
X32557Y22667D01*
X32563Y22672D01*
X32624Y22733D01*
X32674Y22783D01*
X32691Y22805D01*
X32702Y22822D01*
X32713Y22833D01*
Y22839D01*
X32752Y22911D01*
X32779Y22972D01*
X32791Y22994D01*
X32796Y23016D01*
X32802Y23027D01*
Y23033D01*
X32824Y23105D01*
X32829Y23171D01*
X32835Y23199D01*
Y23222D01*
Y23233D01*
Y23238D01*
X32829Y23321D01*
X32824Y23399D01*
X32813Y23466D01*
X32796Y23521D01*
X32779Y23571D01*
X32768Y23610D01*
X32763Y23632D01*
X32757Y23638D01*
X32724Y23699D01*
X32691Y23754D01*
X32652Y23804D01*
X32618Y23849D01*
X32585Y23882D01*
X32557Y23904D01*
X32541Y23921D01*
X32535Y23926D01*
X32480Y23965D01*
X32419Y24004D01*
X32363Y24032D01*
X32308Y24054D01*
X32263Y24076D01*
X32225Y24087D01*
X32202Y24098D01*
X32191D01*
X32114Y24121D01*
X32041Y24132D01*
X31964Y24143D01*
X31897Y24154D01*
X31842D01*
X31792Y24160D01*
D02*
G37*
G36*
X111931Y59077D02*
X111442D01*
X111057Y58303D01*
X110680Y59077D01*
X110195D01*
X110798Y58007D01*
X110180Y56923D01*
Y59077D01*
D01*
Y56923D01*
X111945D01*
X111324Y58007D01*
X111931Y59077D01*
D02*
G37*
G36*
X112730D02*
X112134D01*
Y56923D01*
X113636D01*
D01*
X112715D01*
X112789Y56927D01*
X112859Y56934D01*
X112922Y56946D01*
X112978Y56960D01*
X113026Y56971D01*
X113059Y56982D01*
X113081Y56990D01*
X113089Y56994D01*
X113152Y57023D01*
X113207Y57056D01*
X113255Y57090D01*
X113300Y57123D01*
X113333Y57153D01*
X113359Y57175D01*
X113377Y57190D01*
X113381Y57197D01*
X113425Y57249D01*
X113462Y57301D01*
X113496Y57353D01*
X113522Y57401D01*
X113544Y57445D01*
X113558Y57478D01*
X113566Y57500D01*
X113570Y57504D01*
Y57508D01*
X113592Y57578D01*
X113607Y57648D01*
X113621Y57715D01*
X113629Y57774D01*
X113633Y57830D01*
X113636Y57871D01*
Y58085D01*
X113633Y58166D01*
X113625Y58240D01*
X113614Y58307D01*
X113603Y58366D01*
X113592Y58414D01*
X113581Y58451D01*
X113577Y58466D01*
X113573Y58477D01*
X113570Y58481D01*
Y58485D01*
X113544Y58551D01*
X113510Y58610D01*
X113481Y58662D01*
X113448Y58707D01*
X113422Y58744D01*
X113400Y58773D01*
X113385Y58788D01*
X113377Y58795D01*
X113329Y58844D01*
X113281Y58884D01*
X113229Y58921D01*
X113185Y58951D01*
X113144Y58973D01*
X113111Y58988D01*
X113089Y58999D01*
X113085Y59003D01*
X113081D01*
X113015Y59029D01*
X112948Y59047D01*
X112881Y59058D01*
X112822Y59069D01*
X112770Y59073D01*
X112730Y59077D01*
D02*
G37*
G36*
X110095D02*
X108356D01*
Y56923D01*
Y58736D01*
X109011D01*
Y56923D01*
X109429D01*
Y58736D01*
X110095D01*
Y59077D01*
D02*
G37*
%LPD*%
G36*
X111457Y56923D02*
X110669D01*
X111065Y57704D01*
X111457Y56923D01*
D02*
G37*
G36*
X112741Y58736D02*
X112782Y58733D01*
X112822Y58725D01*
X112856Y58718D01*
X112881Y58707D01*
X112900Y58699D01*
X112915Y58696D01*
X112918Y58692D01*
X112985Y58651D01*
X113011Y58629D01*
X113037Y58607D01*
X113055Y58588D01*
X113070Y58574D01*
X113077Y58562D01*
X113081Y58559D01*
X113126Y58492D01*
X113140Y58455D01*
X113155Y58422D01*
X113166Y58396D01*
X113174Y58374D01*
X113181Y58355D01*
Y58351D01*
X113200Y58259D01*
X113207Y58218D01*
X113211Y58178D01*
X113215Y58141D01*
Y58115D01*
Y58096D01*
Y58089D01*
Y57907D01*
Y57852D01*
X113207Y57800D01*
X113203Y57756D01*
X113196Y57715D01*
X113189Y57682D01*
X113185Y57656D01*
X113177Y57641D01*
Y57634D01*
X113163Y57589D01*
X113148Y57549D01*
X113133Y57515D01*
X113115Y57486D01*
X113100Y57460D01*
X113089Y57441D01*
X113081Y57430D01*
X113077Y57427D01*
X113026Y57371D01*
X113000Y57353D01*
X112978Y57334D01*
X112955Y57319D01*
X112937Y57308D01*
X112926Y57304D01*
X112922Y57301D01*
X112885Y57286D01*
X112852Y57275D01*
X112815Y57267D01*
X112785Y57264D01*
X112756Y57260D01*
X112733Y57256D01*
X112556D01*
Y58740D01*
X112693D01*
X112741Y58736D01*
D02*
G37*
%LPC*%
G36*
X64515Y59077D02*
X62776D01*
Y58736D01*
X63431D01*
Y56923D01*
X63849D01*
Y58736D01*
X64515D01*
Y58403D01*
Y59077D01*
D02*
G37*
G36*
X59032D02*
X57478D01*
Y56923D01*
X58329D01*
X58388Y56931D01*
X58440Y56934D01*
X58488Y56942D01*
X58525Y56949D01*
X58554Y56953D01*
X58573Y56960D01*
X58580D01*
X58632Y56979D01*
X58680Y56997D01*
X58721Y57016D01*
X58758Y57034D01*
X58784Y57053D01*
X58806Y57068D01*
X58821Y57075D01*
X58824Y57079D01*
X58861Y57112D01*
X58891Y57145D01*
X58917Y57179D01*
X58939Y57208D01*
X58954Y57238D01*
X58965Y57260D01*
X58972Y57275D01*
X58976Y57279D01*
X58995Y57323D01*
X59009Y57371D01*
X59017Y57419D01*
X59024Y57460D01*
X59028Y57497D01*
X59032Y57526D01*
Y57552D01*
X59028Y57612D01*
X59024Y57637D01*
X59021Y57660D01*
X59017Y57682D01*
X59013Y57697D01*
X59009Y57704D01*
Y57708D01*
X58991Y57763D01*
X58969Y57808D01*
X58958Y57826D01*
X58950Y57837D01*
X58947Y57845D01*
X58943Y57848D01*
X58906Y57893D01*
X58869Y57930D01*
X58854Y57945D01*
X58839Y57956D01*
X58832Y57959D01*
X58828Y57963D01*
X58776Y57993D01*
X58724Y58015D01*
X58702Y58022D01*
X58684Y58030D01*
X58673Y58033D01*
X58669D01*
X58721Y58059D01*
X58769Y58089D01*
X58810Y58118D01*
X58839Y58148D01*
X58865Y58174D01*
X58884Y58196D01*
X58895Y58211D01*
X58898Y58215D01*
X58924Y58263D01*
X58947Y58311D01*
X58961Y58355D01*
X58969Y58396D01*
X58976Y58433D01*
X58980Y58463D01*
Y58481D01*
Y58488D01*
X58976Y58544D01*
X58972Y58592D01*
X58961Y58636D01*
X58954Y58673D01*
X58943Y58703D01*
X58932Y58729D01*
X58928Y58744D01*
X58924Y58747D01*
X58902Y58788D01*
X58876Y58825D01*
X58850Y58855D01*
X58824Y58881D01*
X58802Y58903D01*
X58784Y58918D01*
X58769Y58929D01*
X58765Y58932D01*
X58724Y58958D01*
X58684Y58981D01*
X58643Y58999D01*
X58606Y59014D01*
X58573Y59025D01*
X58547Y59032D01*
X58528Y59040D01*
X58521D01*
X58410Y59062D01*
X58358Y59069D01*
X58306Y59073D01*
X58266Y59077D01*
X59032D01*
D02*
G37*
G36*
X62617Y59106D02*
X61041D01*
Y56894D01*
Y57841D01*
X61044Y57767D01*
X61048Y57693D01*
X61055Y57630D01*
X61067Y57574D01*
X61074Y57526D01*
X61081Y57489D01*
X61085Y57467D01*
X61089Y57464D01*
Y57460D01*
X61111Y57397D01*
X61133Y57341D01*
X61159Y57290D01*
X61185Y57245D01*
X61207Y57208D01*
X61226Y57182D01*
X61237Y57168D01*
X61241Y57160D01*
X61281Y57116D01*
X61322Y57075D01*
X61363Y57042D01*
X61400Y57016D01*
X61433Y56994D01*
X61462Y56979D01*
X61477Y56968D01*
X61485Y56964D01*
X61540Y56942D01*
X61599Y56923D01*
X61655Y56912D01*
X61707Y56901D01*
X61751Y56897D01*
X61784Y56894D01*
X61818D01*
X61884Y56897D01*
X61947Y56905D01*
X62003Y56916D01*
X62055Y56931D01*
X62095Y56942D01*
X62125Y56953D01*
X62143Y56960D01*
X62151Y56964D01*
X62206Y56994D01*
X62254Y57023D01*
X62299Y57056D01*
X62336Y57086D01*
X62365Y57116D01*
X62388Y57138D01*
X62402Y57153D01*
X62406Y57156D01*
X62443Y57205D01*
X62473Y57256D01*
X62502Y57308D01*
X62524Y57353D01*
X62539Y57393D01*
X62550Y57427D01*
X62558Y57449D01*
X62561Y57452D01*
Y57456D01*
X62580Y57523D01*
X62595Y57593D01*
X62602Y57656D01*
X62609Y57715D01*
X62613Y57767D01*
X62617Y57808D01*
Y58163D01*
Y58155D01*
X62613Y58233D01*
X62609Y58303D01*
X62598Y58366D01*
X62591Y58425D01*
X62580Y58470D01*
X62569Y58507D01*
X62565Y58529D01*
X62561Y58533D01*
Y58536D01*
X62539Y58599D01*
X62517Y58659D01*
X62491Y58707D01*
X62465Y58751D01*
X62443Y58788D01*
X62424Y58814D01*
X62410Y58829D01*
X62406Y58836D01*
X62365Y58881D01*
X62321Y58921D01*
X62280Y58955D01*
X62239Y58981D01*
X62203Y59003D01*
X62177Y59021D01*
X62158Y59029D01*
X62151Y59032D01*
X62095Y59058D01*
X62036Y59077D01*
X61980Y59088D01*
X61929Y59099D01*
X61881Y59103D01*
X61847Y59106D01*
X62617D01*
D01*
D02*
G37*
G36*
X60800D02*
X59224D01*
Y56894D01*
Y57841D01*
X59228Y57767D01*
X59231Y57693D01*
X59239Y57630D01*
X59250Y57574D01*
X59257Y57526D01*
X59265Y57489D01*
X59268Y57467D01*
X59272Y57464D01*
Y57460D01*
X59294Y57397D01*
X59316Y57341D01*
X59342Y57290D01*
X59368Y57245D01*
X59390Y57208D01*
X59409Y57182D01*
X59420Y57168D01*
X59424Y57160D01*
X59465Y57116D01*
X59505Y57075D01*
X59546Y57042D01*
X59583Y57016D01*
X59616Y56994D01*
X59646Y56979D01*
X59661Y56968D01*
X59668Y56964D01*
X59724Y56942D01*
X59783Y56923D01*
X59838Y56912D01*
X59890Y56901D01*
X59934Y56897D01*
X59968Y56894D01*
X60001D01*
X60068Y56897D01*
X60131Y56905D01*
X60186Y56916D01*
X60238Y56931D01*
X60278Y56942D01*
X60308Y56953D01*
X60327Y56960D01*
X60334Y56964D01*
X60390Y56994D01*
X60438Y57023D01*
X60482Y57056D01*
X60519Y57086D01*
X60549Y57116D01*
X60571Y57138D01*
X60586Y57153D01*
X60589Y57156D01*
X60626Y57205D01*
X60656Y57256D01*
X60685Y57308D01*
X60708Y57353D01*
X60723Y57393D01*
X60734Y57427D01*
X60741Y57449D01*
X60745Y57452D01*
Y57456D01*
X60763Y57523D01*
X60778Y57593D01*
X60785Y57656D01*
X60793Y57715D01*
X60796Y57767D01*
X60800Y57808D01*
Y58155D01*
X60796Y58233D01*
X60793Y58303D01*
X60782Y58366D01*
X60774Y58425D01*
X60763Y58470D01*
X60752Y58507D01*
X60748Y58529D01*
X60745Y58533D01*
Y58536D01*
X60723Y58599D01*
X60700Y58659D01*
X60674Y58707D01*
X60649Y58751D01*
X60626Y58788D01*
X60608Y58814D01*
X60593Y58829D01*
X60589Y58836D01*
X60549Y58881D01*
X60504Y58921D01*
X60464Y58955D01*
X60423Y58981D01*
X60386Y59003D01*
X60360Y59021D01*
X60341Y59029D01*
X60334Y59032D01*
X60278Y59058D01*
X60219Y59077D01*
X60164Y59088D01*
X60112Y59099D01*
X60064Y59103D01*
X60031Y59106D01*
X60800D01*
D01*
D02*
G37*
%LPD*%
G36*
X58266Y58733D02*
X58321Y58725D01*
X58366Y58714D01*
X58406Y58703D01*
X58436Y58692D01*
X58454Y58681D01*
X58469Y58673D01*
X58473Y58670D01*
X58503Y58640D01*
X58525Y58607D01*
X58543Y58570D01*
X58554Y58536D01*
X58562Y58503D01*
X58565Y58477D01*
Y58459D01*
Y58451D01*
X58562Y58403D01*
X58551Y58363D01*
X58536Y58326D01*
X58517Y58296D01*
X58499Y58274D01*
X58484Y58259D01*
X58473Y58248D01*
X58469Y58244D01*
X58432Y58222D01*
X58388Y58204D01*
X58343Y58189D01*
X58303Y58181D01*
X58262Y58174D01*
X58232Y58170D01*
X57896D01*
Y58736D01*
X58203D01*
X58266Y58733D01*
D02*
G37*
G36*
X58343Y57867D02*
X58395Y57856D01*
X58440Y57845D01*
X58473Y57830D01*
X58503Y57811D01*
X58521Y57800D01*
X58532Y57789D01*
X58536Y57785D01*
X58562Y57752D01*
X58584Y57715D01*
X58595Y57678D01*
X58606Y57641D01*
X58610Y57608D01*
X58614Y57582D01*
Y57563D01*
Y57556D01*
X58610Y57508D01*
X58599Y57467D01*
X58584Y57430D01*
X58569Y57401D01*
X58554Y57375D01*
X58539Y57356D01*
X58528Y57345D01*
X58525Y57341D01*
X58488Y57315D01*
X58447Y57293D01*
X58403Y57279D01*
X58362Y57267D01*
X58325Y57264D01*
X58295Y57260D01*
X58273Y57256D01*
X57896D01*
Y57871D01*
X58284D01*
X58343Y57867D01*
D02*
G37*
G36*
X61747Y59103D02*
X61685Y59095D01*
X61629Y59084D01*
X61581Y59069D01*
X61540Y59054D01*
X61511Y59043D01*
X61492Y59036D01*
X61485Y59032D01*
X61433Y59003D01*
X61385Y58973D01*
X61344Y58940D01*
X61307Y58907D01*
X61281Y58881D01*
X61259Y58858D01*
X61244Y58844D01*
X61241Y58836D01*
X61207Y58788D01*
X61174Y58736D01*
X61148Y58684D01*
X61126Y58640D01*
X61111Y58599D01*
X61100Y58566D01*
X61093Y58544D01*
X61089Y58540D01*
Y58536D01*
X61074Y58470D01*
X61063Y58403D01*
X61052Y58340D01*
X61048Y58281D01*
X61044Y58229D01*
X61041Y58192D01*
Y59106D01*
X61814D01*
X61747Y59103D01*
D02*
G37*
G36*
X61851Y58758D02*
X61884Y58755D01*
X61914Y58747D01*
X61940Y58740D01*
X61962Y58729D01*
X61977Y58722D01*
X61984Y58718D01*
X61988Y58714D01*
X62036Y58677D01*
X62077Y58636D01*
X62088Y58618D01*
X62099Y58603D01*
X62103Y58592D01*
X62106Y58588D01*
X62136Y58525D01*
X62158Y58466D01*
X62165Y58440D01*
X62169Y58418D01*
X62173Y58403D01*
Y58400D01*
X62188Y58315D01*
X62191Y58274D01*
Y58237D01*
X62195Y58204D01*
Y58178D01*
Y58163D01*
Y58155D01*
Y57841D01*
Y57793D01*
X62191Y57748D01*
X62188Y57704D01*
X62184Y57671D01*
X62180Y57637D01*
X62177Y57615D01*
X62173Y57600D01*
Y57597D01*
X62165Y57556D01*
X62154Y57519D01*
X62143Y57486D01*
X62132Y57460D01*
X62121Y57438D01*
X62114Y57419D01*
X62110Y57408D01*
X62106Y57404D01*
X62069Y57353D01*
X62032Y57312D01*
X62014Y57297D01*
X61999Y57286D01*
X61992Y57282D01*
X61988Y57279D01*
X61962Y57264D01*
X61932Y57253D01*
X61877Y57241D01*
X61855Y57238D01*
X61836Y57234D01*
X61818D01*
X61781Y57238D01*
X61747Y57241D01*
X61718Y57249D01*
X61692Y57256D01*
X61673Y57264D01*
X61655Y57271D01*
X61647Y57279D01*
X61644D01*
X61599Y57319D01*
X61566Y57360D01*
X61551Y57378D01*
X61544Y57393D01*
X61540Y57404D01*
X61537Y57408D01*
X61511Y57471D01*
X61500Y57504D01*
X61492Y57534D01*
X61485Y57560D01*
X61481Y57582D01*
X61477Y57597D01*
Y57600D01*
X61466Y57686D01*
X61462Y57726D01*
Y57763D01*
X61459Y57793D01*
Y57819D01*
Y57833D01*
Y57841D01*
Y58155D01*
Y58204D01*
X61462Y58252D01*
X61466Y58292D01*
X61470Y58329D01*
Y58359D01*
X61474Y58381D01*
X61477Y58396D01*
Y58400D01*
X61485Y58440D01*
X61496Y58477D01*
X61503Y58507D01*
X61514Y58536D01*
X61522Y58559D01*
X61529Y58574D01*
X61537Y58585D01*
Y58588D01*
X61570Y58644D01*
X61588Y58662D01*
X61607Y58681D01*
X61622Y58696D01*
X61633Y58707D01*
X61640Y58710D01*
X61644Y58714D01*
X61670Y58729D01*
X61699Y58744D01*
X61755Y58755D01*
X61777Y58758D01*
X61799Y58762D01*
X61814D01*
X61851Y58758D01*
D02*
G37*
G36*
X59931Y59103D02*
X59868Y59095D01*
X59812Y59084D01*
X59764Y59069D01*
X59724Y59054D01*
X59694Y59043D01*
X59675Y59036D01*
X59668Y59032D01*
X59616Y59003D01*
X59568Y58973D01*
X59527Y58940D01*
X59490Y58907D01*
X59465Y58881D01*
X59442Y58858D01*
X59427Y58844D01*
X59424Y58836D01*
X59390Y58788D01*
X59357Y58736D01*
X59331Y58684D01*
X59309Y58640D01*
X59294Y58599D01*
X59283Y58566D01*
X59276Y58544D01*
X59272Y58540D01*
Y58536D01*
X59257Y58470D01*
X59246Y58403D01*
X59235Y58340D01*
X59231Y58281D01*
X59228Y58229D01*
X59224Y58192D01*
Y59106D01*
X59997D01*
X59931Y59103D01*
D02*
G37*
G36*
X60034Y58758D02*
X60068Y58755D01*
X60097Y58747D01*
X60123Y58740D01*
X60145Y58729D01*
X60160Y58722D01*
X60167Y58718D01*
X60171Y58714D01*
X60219Y58677D01*
X60260Y58636D01*
X60271Y58618D01*
X60282Y58603D01*
X60286Y58592D01*
X60290Y58588D01*
X60319Y58525D01*
X60341Y58466D01*
X60349Y58440D01*
X60352Y58418D01*
X60356Y58403D01*
Y58400D01*
X60371Y58315D01*
X60375Y58274D01*
Y58237D01*
X60378Y58204D01*
Y58178D01*
Y58163D01*
Y58155D01*
Y57841D01*
Y57793D01*
X60375Y57748D01*
X60371Y57704D01*
X60367Y57671D01*
X60364Y57637D01*
X60360Y57615D01*
X60356Y57600D01*
Y57597D01*
X60349Y57556D01*
X60338Y57519D01*
X60327Y57486D01*
X60316Y57460D01*
X60304Y57438D01*
X60297Y57419D01*
X60293Y57408D01*
X60290Y57404D01*
X60253Y57353D01*
X60216Y57312D01*
X60197Y57297D01*
X60182Y57286D01*
X60175Y57282D01*
X60171Y57279D01*
X60145Y57264D01*
X60116Y57253D01*
X60060Y57241D01*
X60038Y57238D01*
X60019Y57234D01*
X60001D01*
X59964Y57238D01*
X59931Y57241D01*
X59901Y57249D01*
X59875Y57256D01*
X59857Y57264D01*
X59838Y57271D01*
X59831Y57279D01*
X59827D01*
X59783Y57319D01*
X59749Y57360D01*
X59735Y57378D01*
X59727Y57393D01*
X59724Y57404D01*
X59720Y57408D01*
X59694Y57471D01*
X59683Y57504D01*
X59675Y57534D01*
X59668Y57560D01*
X59664Y57582D01*
X59661Y57597D01*
Y57600D01*
X59649Y57686D01*
X59646Y57726D01*
Y57763D01*
X59642Y57793D01*
Y57819D01*
Y57833D01*
Y57841D01*
Y58155D01*
Y58204D01*
X59646Y58252D01*
X59649Y58292D01*
X59653Y58329D01*
Y58359D01*
X59657Y58381D01*
X59661Y58396D01*
Y58400D01*
X59668Y58440D01*
X59679Y58477D01*
X59686Y58507D01*
X59698Y58536D01*
X59705Y58559D01*
X59712Y58574D01*
X59720Y58585D01*
Y58588D01*
X59753Y58644D01*
X59772Y58662D01*
X59790Y58681D01*
X59805Y58696D01*
X59816Y58707D01*
X59823Y58710D01*
X59827Y58714D01*
X59853Y58729D01*
X59883Y58744D01*
X59938Y58755D01*
X59960Y58758D01*
X59983Y58762D01*
X59997D01*
X60034Y58758D01*
D02*
G37*
%LPC*%
G36*
X31892Y59077D02*
X31028D01*
X31433D01*
X31026Y57523D01*
X30623Y59077D01*
X30164D01*
X30815Y56923D01*
X30164D01*
X31892D01*
X31237D01*
X31892Y59077D01*
D02*
G37*
G36*
X33557Y59106D02*
X32746D01*
X32695Y59099D01*
X32650Y59092D01*
X32610Y59084D01*
X32572Y59077D01*
X32547Y59069D01*
X32532Y59066D01*
X32524Y59062D01*
X32480Y59043D01*
X32436Y59025D01*
X32399Y59006D01*
X32365Y58988D01*
X32339Y58969D01*
X32321Y58955D01*
X32306Y58947D01*
X32302Y58943D01*
X32269Y58914D01*
X32239Y58881D01*
X32214Y58851D01*
X32195Y58821D01*
X32177Y58795D01*
X32166Y58773D01*
X32158Y58758D01*
X32154Y58755D01*
X32136Y58714D01*
X32125Y58673D01*
X32114Y58633D01*
X32110Y58596D01*
X32106Y58566D01*
X32103Y58540D01*
Y58525D01*
Y58518D01*
X32513D01*
X32517Y58559D01*
X32524Y58592D01*
X32532Y58614D01*
X32535Y58618D01*
Y58622D01*
X32558Y58655D01*
X32580Y58681D01*
X32595Y58696D01*
X32602Y58703D01*
X32635Y58725D01*
X32665Y58740D01*
X32687Y58751D01*
X32691Y58755D01*
X32695D01*
X32735Y58766D01*
X32776Y58770D01*
X32791Y58773D01*
X32813D01*
X32865Y58770D01*
X32906Y58762D01*
X32920Y58758D01*
X32931Y58755D01*
X32939Y58751D01*
X32943D01*
X32983Y58733D01*
X33013Y58714D01*
X33031Y58699D01*
X33039Y58696D01*
Y58692D01*
X33065Y58662D01*
X33079Y58633D01*
X33090Y58610D01*
X33094Y58607D01*
Y58603D01*
X33105Y58562D01*
X33109Y58525D01*
X33113Y58511D01*
Y58499D01*
Y58492D01*
Y58488D01*
X33109Y58440D01*
X33102Y58392D01*
X33087Y58355D01*
X33072Y58322D01*
X33057Y58296D01*
X33042Y58277D01*
X33035Y58266D01*
X33031Y58263D01*
X32998Y58233D01*
X32957Y58215D01*
X32917Y58200D01*
X32876Y58189D01*
X32839Y58181D01*
X32809Y58178D01*
X32558D01*
Y57859D01*
X32780D01*
X32839Y57856D01*
X32865Y57852D01*
X32887D01*
X32906Y57848D01*
X32920Y57845D01*
X32928Y57841D01*
X32931D01*
X32976Y57822D01*
X33013Y57804D01*
X33028Y57797D01*
X33039Y57789D01*
X33042Y57785D01*
X33046Y57782D01*
X33079Y57748D01*
X33102Y57715D01*
X33109Y57700D01*
X33116Y57689D01*
X33120Y57682D01*
Y57678D01*
X33135Y57630D01*
X33142Y57582D01*
X33146Y57560D01*
Y57545D01*
Y57534D01*
Y57530D01*
X33142Y57478D01*
X33131Y57434D01*
X33116Y57397D01*
X33102Y57364D01*
X33087Y57338D01*
X33072Y57319D01*
X33061Y57308D01*
X33057Y57304D01*
X33020Y57279D01*
X32983Y57256D01*
X32943Y57241D01*
X32902Y57234D01*
X32868Y57227D01*
X32839Y57223D01*
X32813D01*
X32761Y57227D01*
X32721Y57234D01*
X32702D01*
X32691Y57238D01*
X32684Y57241D01*
X32680D01*
X32639Y57260D01*
X32606Y57279D01*
X32584Y57293D01*
X32580Y57301D01*
X32576D01*
X32550Y57334D01*
X32528Y57364D01*
X32513Y57386D01*
X32510Y57389D01*
Y57393D01*
X32498Y57434D01*
X32491Y57471D01*
X32487Y57486D01*
Y57497D01*
Y57504D01*
Y57508D01*
X32077D01*
X32080Y57452D01*
X32088Y57397D01*
X32095Y57353D01*
X32106Y57312D01*
X32117Y57279D01*
X32129Y57256D01*
X32132Y57238D01*
X32136Y57234D01*
X32162Y57193D01*
X32188Y57156D01*
X32214Y57123D01*
X32239Y57094D01*
X32265Y57071D01*
X32284Y57056D01*
X32295Y57045D01*
X32299Y57042D01*
X32380Y56994D01*
X32417Y56975D01*
X32454Y56960D01*
X32484Y56946D01*
X32510Y56938D01*
X32524Y56934D01*
X32532Y56931D01*
X32632Y56909D01*
X32676Y56901D01*
X32717Y56897D01*
X32750D01*
X32780Y56894D01*
X32077D01*
X32802D01*
X32861Y56897D01*
X32917Y56901D01*
X32965Y56909D01*
X33009Y56916D01*
X33046Y56923D01*
X33076Y56927D01*
X33090Y56934D01*
X33098D01*
X33150Y56953D01*
X33194Y56971D01*
X33235Y56990D01*
X33272Y57012D01*
X33298Y57027D01*
X33320Y57042D01*
X33335Y57053D01*
X33338Y57056D01*
X33375Y57090D01*
X33409Y57123D01*
X33435Y57156D01*
X33457Y57186D01*
X33475Y57216D01*
X33486Y57238D01*
X33494Y57253D01*
X33498Y57256D01*
X33516Y57301D01*
X33531Y57349D01*
X33542Y57393D01*
X33549Y57438D01*
X33553Y57471D01*
X33557Y57500D01*
Y57526D01*
X33553Y57586D01*
X33549Y57615D01*
X33546Y57637D01*
X33542Y57656D01*
X33538Y57674D01*
X33535Y57682D01*
Y57686D01*
X33516Y57741D01*
X33498Y57785D01*
X33486Y57804D01*
X33479Y57815D01*
X33475Y57822D01*
X33472Y57826D01*
X33435Y57871D01*
X33401Y57907D01*
X33383Y57922D01*
X33372Y57933D01*
X33364Y57937D01*
X33361Y57941D01*
X33309Y57978D01*
X33261Y58004D01*
X33239Y58011D01*
X33220Y58018D01*
X33209Y58026D01*
X33205D01*
X33261Y58056D01*
X33301Y58085D01*
X33320Y58096D01*
X33331Y58107D01*
X33338Y58111D01*
X33342Y58115D01*
X33383Y58155D01*
X33416Y58189D01*
X33427Y58204D01*
X33435Y58215D01*
X33442Y58222D01*
Y58226D01*
X33468Y58274D01*
X33486Y58315D01*
X33494Y58329D01*
X33498Y58344D01*
X33501Y58351D01*
Y58355D01*
X33516Y58403D01*
X33520Y58448D01*
X33523Y58466D01*
Y58481D01*
Y58488D01*
Y58492D01*
X33520Y58548D01*
X33516Y58599D01*
X33509Y58644D01*
X33498Y58681D01*
X33486Y58714D01*
X33479Y58740D01*
X33475Y58755D01*
X33472Y58758D01*
X33449Y58799D01*
X33427Y58836D01*
X33401Y58869D01*
X33379Y58899D01*
X33357Y58921D01*
X33338Y58936D01*
X33327Y58947D01*
X33324Y58951D01*
X33287Y58977D01*
X33246Y59003D01*
X33209Y59021D01*
X33172Y59036D01*
X33142Y59051D01*
X33116Y59058D01*
X33102Y59066D01*
X33094D01*
X33042Y59080D01*
X32994Y59088D01*
X32943Y59095D01*
X32898Y59103D01*
X32861D01*
X32828Y59106D01*
X33557D01*
D02*
G37*
G36*
X29194D02*
X29113D01*
X29061Y59099D01*
X29017Y59092D01*
X28976Y59084D01*
X28939Y59077D01*
X28913Y59069D01*
X28898Y59066D01*
X28891Y59062D01*
X28847Y59043D01*
X28802Y59025D01*
X28765Y59006D01*
X28732Y58988D01*
X28706Y58969D01*
X28688Y58955D01*
X28673Y58947D01*
X28669Y58943D01*
X28636Y58914D01*
X28606Y58881D01*
X28580Y58851D01*
X28562Y58821D01*
X28543Y58795D01*
X28532Y58773D01*
X28525Y58758D01*
X28521Y58755D01*
X28503Y58714D01*
X28491Y58673D01*
X28480Y58633D01*
X28477Y58596D01*
X28473Y58566D01*
X28469Y58540D01*
Y58525D01*
Y58518D01*
X28880D01*
X28884Y58559D01*
X28891Y58592D01*
X28898Y58614D01*
X28902Y58618D01*
Y58622D01*
X28924Y58655D01*
X28947Y58681D01*
X28961Y58696D01*
X28969Y58703D01*
X29002Y58725D01*
X29032Y58740D01*
X29054Y58751D01*
X29057Y58755D01*
X29061D01*
X29102Y58766D01*
X29143Y58770D01*
X29157Y58773D01*
X29180D01*
X29231Y58770D01*
X29272Y58762D01*
X29287Y58758D01*
X29298Y58755D01*
X29305Y58751D01*
X29309D01*
X29350Y58733D01*
X29379Y58714D01*
X29398Y58699D01*
X29405Y58696D01*
Y58692D01*
X29431Y58662D01*
X29446Y58633D01*
X29457Y58610D01*
X29461Y58607D01*
Y58603D01*
X29472Y58562D01*
X29476Y58525D01*
X29479Y58511D01*
Y58499D01*
Y58492D01*
Y58488D01*
X29476Y58440D01*
X29468Y58392D01*
X29453Y58355D01*
X29439Y58322D01*
X29424Y58296D01*
X29409Y58277D01*
X29402Y58266D01*
X29398Y58263D01*
X29365Y58233D01*
X29324Y58215D01*
X29283Y58200D01*
X29243Y58189D01*
X29206Y58181D01*
X29176Y58178D01*
X28924D01*
Y57859D01*
X29146D01*
X29206Y57856D01*
X29231Y57852D01*
X29254D01*
X29272Y57848D01*
X29287Y57845D01*
X29294Y57841D01*
X29298D01*
X29342Y57822D01*
X29379Y57804D01*
X29394Y57797D01*
X29405Y57789D01*
X29409Y57785D01*
X29413Y57782D01*
X29446Y57748D01*
X29468Y57715D01*
X29476Y57700D01*
X29483Y57689D01*
X29487Y57682D01*
Y57678D01*
X29502Y57630D01*
X29509Y57582D01*
X29513Y57560D01*
Y57545D01*
Y57534D01*
Y57530D01*
X29509Y57478D01*
X29498Y57434D01*
X29483Y57397D01*
X29468Y57364D01*
X29453Y57338D01*
X29439Y57319D01*
X29427Y57308D01*
X29424Y57304D01*
X29387Y57279D01*
X29350Y57256D01*
X29309Y57241D01*
X29268Y57234D01*
X29235Y57227D01*
X29206Y57223D01*
X29180D01*
X29128Y57227D01*
X29087Y57234D01*
X29069D01*
X29057Y57238D01*
X29050Y57241D01*
X29046D01*
X29006Y57260D01*
X28972Y57279D01*
X28950Y57293D01*
X28947Y57301D01*
X28943D01*
X28917Y57334D01*
X28895Y57364D01*
X28880Y57386D01*
X28876Y57389D01*
Y57393D01*
X28865Y57434D01*
X28858Y57471D01*
X28854Y57486D01*
Y57497D01*
Y57504D01*
Y57508D01*
X28443D01*
X28447Y57452D01*
X28454Y57397D01*
X28462Y57353D01*
X28473Y57312D01*
X28484Y57279D01*
X28495Y57256D01*
X28499Y57238D01*
X28503Y57234D01*
X28528Y57193D01*
X28554Y57156D01*
X28580Y57123D01*
X28606Y57094D01*
X28632Y57071D01*
X28651Y57056D01*
X28662Y57045D01*
X28665Y57042D01*
X28747Y56994D01*
X28784Y56975D01*
X28821Y56960D01*
X28850Y56946D01*
X28876Y56938D01*
X28891Y56934D01*
X28898Y56931D01*
X28998Y56909D01*
X29043Y56901D01*
X29083Y56897D01*
X29117D01*
X29146Y56894D01*
X28443D01*
X29923D01*
D01*
X29168D01*
X29228Y56897D01*
X29283Y56901D01*
X29331Y56909D01*
X29376Y56916D01*
X29413Y56923D01*
X29442Y56927D01*
X29457Y56934D01*
X29465D01*
X29516Y56953D01*
X29561Y56971D01*
X29601Y56990D01*
X29638Y57012D01*
X29664Y57027D01*
X29686Y57042D01*
X29701Y57053D01*
X29705Y57056D01*
X29742Y57090D01*
X29775Y57123D01*
X29801Y57156D01*
X29823Y57186D01*
X29842Y57216D01*
X29853Y57238D01*
X29860Y57253D01*
X29864Y57256D01*
X29883Y57301D01*
X29897Y57349D01*
X29908Y57393D01*
X29916Y57438D01*
X29920Y57471D01*
X29923Y57500D01*
Y57526D01*
X29920Y57586D01*
X29916Y57615D01*
X29912Y57637D01*
X29908Y57656D01*
X29905Y57674D01*
X29901Y57682D01*
Y57686D01*
X29883Y57741D01*
X29864Y57785D01*
X29853Y57804D01*
X29846Y57815D01*
X29842Y57822D01*
X29838Y57826D01*
X29801Y57871D01*
X29768Y57907D01*
X29749Y57922D01*
X29738Y57933D01*
X29731Y57937D01*
X29727Y57941D01*
X29675Y57978D01*
X29627Y58004D01*
X29605Y58011D01*
X29587Y58018D01*
X29575Y58026D01*
X29572D01*
X29627Y58056D01*
X29668Y58085D01*
X29686Y58096D01*
X29698Y58107D01*
X29705Y58111D01*
X29709Y58115D01*
X29749Y58155D01*
X29783Y58189D01*
X29794Y58204D01*
X29801Y58215D01*
X29809Y58222D01*
Y58226D01*
X29834Y58274D01*
X29853Y58315D01*
X29860Y58329D01*
X29864Y58344D01*
X29868Y58351D01*
Y58355D01*
X29883Y58403D01*
X29886Y58448D01*
X29890Y58466D01*
Y58481D01*
Y58488D01*
Y58492D01*
X29886Y58548D01*
X29883Y58599D01*
X29875Y58644D01*
X29864Y58681D01*
X29853Y58714D01*
X29846Y58740D01*
X29842Y58755D01*
X29838Y58758D01*
X29816Y58799D01*
X29794Y58836D01*
X29768Y58869D01*
X29746Y58899D01*
X29724Y58921D01*
X29705Y58936D01*
X29694Y58947D01*
X29690Y58951D01*
X29653Y58977D01*
X29612Y59003D01*
X29575Y59021D01*
X29539Y59036D01*
X29509Y59051D01*
X29483Y59058D01*
X29468Y59066D01*
X29461D01*
X29409Y59080D01*
X29361Y59088D01*
X29309Y59095D01*
X29265Y59103D01*
X29228D01*
X29194Y59106D01*
D02*
G37*
G36*
X101857Y59077D02*
X101368D01*
X100983Y58303D01*
X100606Y59077D01*
X100776D01*
X100121D01*
X100724Y58007D01*
X100106Y56923D01*
X100989D01*
X100595D01*
X100991Y57704D01*
X101383Y56923D01*
X101871D01*
X101250Y58007D01*
X101857Y59077D01*
D02*
G37*
G36*
X103562D02*
X102060D01*
Y56923D01*
X102641D01*
X102715Y56927D01*
X102785Y56934D01*
X102848Y56946D01*
X102904Y56960D01*
X102952Y56971D01*
X102985Y56982D01*
X103007Y56990D01*
X103015Y56994D01*
X103077Y57023D01*
X103133Y57056D01*
X103181Y57090D01*
X103226Y57123D01*
X103259Y57153D01*
X103285Y57175D01*
X103303Y57190D01*
X103307Y57197D01*
X103351Y57249D01*
X103388Y57301D01*
X103422Y57353D01*
X103448Y57401D01*
X103470Y57445D01*
X103484Y57478D01*
X103492Y57500D01*
X103496Y57504D01*
Y57508D01*
X103518Y57578D01*
X103533Y57648D01*
X103548Y57715D01*
X103555Y57774D01*
X103559Y57830D01*
X103562Y57871D01*
Y58085D01*
X103559Y58166D01*
X103551Y58240D01*
X103540Y58307D01*
X103529Y58366D01*
X103518Y58414D01*
X103507Y58451D01*
X103503Y58466D01*
X103499Y58477D01*
X103496Y58481D01*
Y58485D01*
X103470Y58551D01*
X103436Y58610D01*
X103407Y58662D01*
X103374Y58707D01*
X103348Y58744D01*
X103325Y58773D01*
X103311Y58788D01*
X103303Y58795D01*
X103255Y58844D01*
X103207Y58884D01*
X103155Y58921D01*
X103111Y58951D01*
X103070Y58973D01*
X103037Y58988D01*
X103015Y58999D01*
X103011Y59003D01*
X103007D01*
X102941Y59029D01*
X102874Y59047D01*
X102807Y59058D01*
X102748Y59069D01*
X102697Y59073D01*
X102656Y59077D01*
X103562D01*
D02*
G37*
G36*
X100106D02*
D01*
Y56923D01*
Y59077D01*
D02*
G37*
G36*
X100018D02*
X98438D01*
Y56923D01*
X98852D01*
Y57726D01*
X99167D01*
X99574Y56923D01*
X100018D01*
Y56942D01*
X99555Y57830D01*
X99618Y57863D01*
X99644Y57878D01*
X99670Y57893D01*
X99688Y57904D01*
X99703Y57915D01*
X99711Y57919D01*
X99714Y57922D01*
X99766Y57967D01*
X99807Y58007D01*
X99822Y58026D01*
X99833Y58041D01*
X99836Y58048D01*
X99840Y58052D01*
X99873Y58111D01*
X99899Y58163D01*
X99907Y58185D01*
X99914Y58204D01*
X99918Y58215D01*
Y58218D01*
X99933Y58289D01*
X99936Y58326D01*
X99940Y58355D01*
X99944Y58385D01*
Y58407D01*
Y58422D01*
Y58425D01*
X99940Y58485D01*
X99936Y58536D01*
X99925Y58585D01*
X99918Y58625D01*
X99907Y58659D01*
X99896Y58684D01*
X99892Y58703D01*
X99888Y58707D01*
X99866Y58751D01*
X99840Y58792D01*
X99814Y58825D01*
X99788Y58855D01*
X99766Y58877D01*
X99748Y58895D01*
X99733Y58907D01*
X99729Y58910D01*
X99688Y58940D01*
X99648Y58962D01*
X99607Y58984D01*
X99566Y59003D01*
X99533Y59014D01*
X99507Y59025D01*
X99489Y59032D01*
X99481D01*
X99426Y59047D01*
X99370Y59058D01*
X99315Y59066D01*
X99266Y59073D01*
X99222D01*
X99189Y59077D01*
X100018D01*
D02*
G37*
%LPD*%
G36*
X102667Y58736D02*
X102708Y58733D01*
X102748Y58725D01*
X102781Y58718D01*
X102807Y58707D01*
X102826Y58699D01*
X102841Y58696D01*
X102845Y58692D01*
X102911Y58651D01*
X102937Y58629D01*
X102963Y58607D01*
X102981Y58588D01*
X102996Y58574D01*
X103004Y58562D01*
X103007Y58559D01*
X103052Y58492D01*
X103067Y58455D01*
X103081Y58422D01*
X103092Y58396D01*
X103100Y58374D01*
X103107Y58355D01*
Y58351D01*
X103126Y58259D01*
X103133Y58218D01*
X103137Y58178D01*
X103140Y58141D01*
Y58115D01*
Y58096D01*
Y58089D01*
Y57907D01*
Y57852D01*
X103133Y57800D01*
X103129Y57756D01*
X103122Y57715D01*
X103115Y57682D01*
X103111Y57656D01*
X103103Y57641D01*
Y57634D01*
X103089Y57589D01*
X103074Y57549D01*
X103059Y57515D01*
X103041Y57486D01*
X103026Y57460D01*
X103015Y57441D01*
X103007Y57430D01*
X103004Y57427D01*
X102952Y57371D01*
X102926Y57353D01*
X102904Y57334D01*
X102881Y57319D01*
X102863Y57308D01*
X102852Y57304D01*
X102848Y57301D01*
X102811Y57286D01*
X102778Y57275D01*
X102741Y57267D01*
X102711Y57264D01*
X102682Y57260D01*
X102659Y57256D01*
X102482D01*
Y58740D01*
X102619D01*
X102667Y58736D01*
D02*
G37*
G36*
X99222D02*
X99278Y58725D01*
X99326Y58710D01*
X99363Y58696D01*
X99396Y58677D01*
X99414Y58662D01*
X99429Y58651D01*
X99433Y58648D01*
X99466Y58610D01*
X99489Y58570D01*
X99507Y58529D01*
X99518Y58492D01*
X99525Y58455D01*
X99529Y58425D01*
Y58407D01*
Y58403D01*
Y58400D01*
X99525Y58344D01*
X99514Y58296D01*
X99500Y58252D01*
X99481Y58218D01*
X99463Y58189D01*
X99448Y58170D01*
X99437Y58155D01*
X99433Y58152D01*
X99392Y58122D01*
X99352Y58100D01*
X99304Y58085D01*
X99259Y58074D01*
X99222Y58067D01*
X99189Y58063D01*
X98852D01*
Y58740D01*
X99159D01*
X99222Y58736D01*
D02*
G37*
D10*
X122888Y23990D02*
G03*
X122888Y23990I-1181J0D01*
G01*
D11*
X118046Y15328D02*
G03*
X118046Y15328I-492J0D01*
G01*
X78279Y41465D02*
G03*
X78279Y41465I-492J0D01*
G01*
X46276Y57587D02*
G03*
X46276Y57587I-492J0D01*
G01*
D12*
X58750Y62250D02*
X61000Y60000D01*
X108750Y62250D02*
X111000Y60000D01*
X98750Y62250D02*
X101000Y60000D01*
X68750Y62250D02*
X71000Y60000D01*
X28000Y8000D02*
X33500Y13500D01*
X28750Y62250D02*
X31000Y60000D01*
X53114Y13492D02*
Y17492D01*
Y20492D02*
Y24492D01*
D13*
X45516Y18256D02*
X47484D01*
X45516Y12744D02*
X47484D01*
X45516Y25256D02*
X47484D01*
X45516Y19744D02*
X47484D01*
X95350Y54224D02*
X97712D01*
Y51862D02*
Y54224D01*
X86688D02*
X87476D01*
X86688Y53437D02*
Y54224D01*
Y44776D02*
Y45563D01*
Y44776D02*
X87476D01*
X96924D02*
X97712D01*
Y45563D01*
D14*
X43776Y32000D02*
X44563D01*
X139030Y20053D02*
Y39147D01*
X117770Y20053D02*
Y39147D01*
X139030D01*
X117770Y20053D02*
X139030D01*
X7500Y10000D02*
X140000D01*
X0D02*
X7500D01*
X0Y0D02*
Y10000D01*
Y0D02*
X140000D01*
Y10000D01*
X7500Y70000D02*
X140000D01*
X0D02*
X7500D01*
X0Y60000D02*
Y70000D01*
Y60000D02*
X140000D01*
Y70000D01*
X80346Y39791D02*
Y42055D01*
X82609D01*
X107019D02*
X109283D01*
Y39791D02*
Y42055D01*
Y13118D02*
Y15382D01*
X107019Y13118D02*
X109283D01*
X80346D02*
Y15382D01*
Y13118D02*
X82609D01*
X52575Y44791D02*
Y56209D01*
X49425Y44791D02*
Y56209D01*
Y44791D02*
X52575D01*
X49425Y56209D02*
X52575D01*
X42224Y44079D02*
Y53921D01*
X32776Y44079D02*
Y53921D01*
D15*
X-2642Y13484D02*
Y16929D01*
X21374D01*
Y53937D01*
X-2642D02*
X21374D01*
X-2642D02*
Y57382D01*
M02*
