G04*
G04 #@! TF.GenerationSoftware,Altium Limited,Altium Designer,21.0.8 (223)*
G04*
G04 Layer_Color=8388736*
%FSLAX25Y25*%
%MOIN*%
G70*
G04*
G04 #@! TF.SameCoordinates,8808BF78-C309-42CA-8E72-27723A8412DA*
G04*
G04*
G04 #@! TF.FilePolarity,Negative*
G04*
G01*
G75*
%ADD33R,0.05131X0.04737*%
%ADD34R,0.02769X0.02572*%
%ADD35R,0.03950X0.02769*%
%ADD36O,0.03162X0.07099*%
%ADD37R,0.06115X0.06115*%
%ADD38R,0.06115X0.06115*%
%ADD39R,0.02926X0.02690*%
%ADD40R,0.03300X0.02700*%
%ADD41R,0.04343X0.03950*%
%ADD42R,0.02700X0.03300*%
%ADD43R,0.02572X0.02769*%
%ADD44R,0.05328X0.01981*%
%ADD45O,0.04147X0.01587*%
%ADD46O,0.01587X0.04147*%
%ADD47R,0.16548X0.16548*%
%ADD48R,0.04934X0.03162*%
%ADD49R,0.09068X0.04343*%
%ADD50C,0.06706*%
%ADD51R,0.06706X0.06706*%
%ADD52O,0.09461X0.04737*%
%ADD53O,0.07887X0.04737*%
D33*
X43154Y15500D02*
D03*
X49846D02*
D03*
X43154Y22500D02*
D03*
X49846D02*
D03*
D34*
X58476Y15500D02*
D03*
X55524D02*
D03*
X58476Y22500D02*
D03*
X55524D02*
D03*
X58476Y26500D02*
D03*
X55524D02*
D03*
X58476Y33500D02*
D03*
X55524D02*
D03*
X58476Y30000D02*
D03*
X55524D02*
D03*
X33524Y40500D02*
D03*
X36476D02*
D03*
X33524Y30000D02*
D03*
X36476D02*
D03*
X33524Y37000D02*
D03*
X36476D02*
D03*
X33524Y33500D02*
D03*
X36476D02*
D03*
X50976Y41500D02*
D03*
X48024D02*
D03*
X57476D02*
D03*
X54524D02*
D03*
D35*
X51650Y30228D02*
D03*
Y33772D02*
D03*
X45350D02*
D03*
Y30228D02*
D03*
D36*
X135900Y43872D02*
D03*
X130900D02*
D03*
X125900D02*
D03*
X120900D02*
D03*
X135900Y15328D02*
D03*
X130900D02*
D03*
X125900D02*
D03*
X120900D02*
D03*
D37*
X65268Y13768D02*
D03*
X73732Y22232D02*
D03*
D38*
X65268D02*
D03*
X73732Y13768D02*
D03*
D39*
X67500Y35232D02*
D03*
Y31768D02*
D03*
D40*
Y28500D02*
D03*
X64300D02*
D03*
X67500Y38500D02*
D03*
X64300D02*
D03*
X61400Y54500D02*
D03*
X64600D02*
D03*
X47900Y38000D02*
D03*
X51100D02*
D03*
X61400Y50000D02*
D03*
X64600D02*
D03*
X74800Y49600D02*
D03*
X71600D02*
D03*
X74800Y45800D02*
D03*
X71600D02*
D03*
X74800Y42000D02*
D03*
X71600D02*
D03*
X74800Y30900D02*
D03*
X71600D02*
D03*
X74800Y34700D02*
D03*
X71600D02*
D03*
D41*
X95153Y47138D02*
D03*
Y51862D02*
D03*
X89247D02*
D03*
Y47138D02*
D03*
D42*
X100200Y47900D02*
D03*
Y51100D02*
D03*
X84200Y47900D02*
D03*
Y51100D02*
D03*
X121000Y49900D02*
D03*
Y53100D02*
D03*
X104000Y47900D02*
D03*
Y51100D02*
D03*
X113400Y13100D02*
D03*
Y16300D02*
D03*
D43*
X80500Y50976D02*
D03*
Y48024D02*
D03*
X113700Y23976D02*
D03*
Y21024D02*
D03*
X131000Y52976D02*
D03*
Y50024D02*
D03*
D44*
X24760Y48425D02*
D03*
Y42323D02*
D03*
Y40354D02*
D03*
Y36417D02*
D03*
Y44291D02*
D03*
Y45276D02*
D03*
Y47441D02*
D03*
Y38386D02*
D03*
Y22441D02*
D03*
Y28543D02*
D03*
Y30512D02*
D03*
Y34449D02*
D03*
Y26575D02*
D03*
Y25591D02*
D03*
Y23425D02*
D03*
Y32480D02*
D03*
D45*
X81428Y37823D02*
D03*
Y36248D02*
D03*
Y34673D02*
D03*
Y33098D02*
D03*
Y31524D02*
D03*
Y29949D02*
D03*
Y28374D02*
D03*
Y26799D02*
D03*
Y25224D02*
D03*
Y23650D02*
D03*
Y22075D02*
D03*
Y20500D02*
D03*
Y18925D02*
D03*
Y17350D02*
D03*
X108200D02*
D03*
Y18925D02*
D03*
Y20500D02*
D03*
Y22075D02*
D03*
Y23650D02*
D03*
Y25224D02*
D03*
Y26799D02*
D03*
Y28374D02*
D03*
Y29949D02*
D03*
Y31524D02*
D03*
Y33098D02*
D03*
Y34673D02*
D03*
Y36248D02*
D03*
Y37823D02*
D03*
D46*
X84578Y14201D02*
D03*
X86153D02*
D03*
X87728D02*
D03*
X89302D02*
D03*
X90877D02*
D03*
X92452D02*
D03*
X94027D02*
D03*
X95602D02*
D03*
X97176D02*
D03*
X98751D02*
D03*
X100326D02*
D03*
X101901D02*
D03*
X103476D02*
D03*
X105050D02*
D03*
Y40972D02*
D03*
X103476D02*
D03*
X101901D02*
D03*
X100326D02*
D03*
X98751D02*
D03*
X97176D02*
D03*
X95602D02*
D03*
X94027D02*
D03*
X92452D02*
D03*
X90877D02*
D03*
X89302D02*
D03*
X87728D02*
D03*
X86153D02*
D03*
X84578D02*
D03*
D47*
X94814Y27587D02*
D03*
D48*
X56217Y54240D02*
D03*
Y50500D02*
D03*
Y46760D02*
D03*
X45783D02*
D03*
Y50500D02*
D03*
Y54240D02*
D03*
D49*
X37500Y45654D02*
D03*
Y52346D02*
D03*
D50*
X135000Y5000D02*
D03*
X125000D02*
D03*
X115000D02*
D03*
X105000D02*
D03*
X95000D02*
D03*
X85000D02*
D03*
X75000D02*
D03*
X65000D02*
D03*
X55000D02*
D03*
X45000D02*
D03*
X35000D02*
D03*
X25000D02*
D03*
X15000D02*
D03*
X135000Y65000D02*
D03*
X125000D02*
D03*
X115000D02*
D03*
X105000D02*
D03*
X95000D02*
D03*
X85000D02*
D03*
X75000D02*
D03*
X65000D02*
D03*
X55000D02*
D03*
X45000D02*
D03*
X35000D02*
D03*
X25000D02*
D03*
X15000D02*
D03*
D51*
X5000Y5000D02*
D03*
Y65000D02*
D03*
D52*
X5626Y13484D02*
D03*
Y57382D02*
D03*
D53*
X21374Y13484D02*
D03*
Y57382D02*
D03*
M02*
