G04*
G04 #@! TF.GenerationSoftware,Altium Limited,Altium Designer,21.0.8 (223)*
G04*
G04 Layer_Color=16711935*
%FSLAX25Y25*%
%MOIN*%
G70*
G04*
G04 #@! TF.SameCoordinates,8808BF78-C309-42CA-8E72-27723A8412DA*
G04*
G04*
G04 #@! TF.FilePolarity,Negative*
G04*
G01*
G75*
%ADD34R,0.02769X0.02572*%
%ADD50C,0.06706*%
%ADD51R,0.06706X0.06706*%
%ADD52O,0.09461X0.04737*%
%ADD53O,0.07887X0.04737*%
%ADD68R,0.06706X0.12611*%
%ADD69R,0.03162X0.04934*%
G36*
X54038Y22557D02*
X54624D01*
Y22508D01*
X54869D01*
Y22459D01*
X55162D01*
Y22410D01*
X55308D01*
Y22361D01*
X55553D01*
Y22312D01*
X55699D01*
Y22263D01*
X55895D01*
Y22215D01*
X56041D01*
Y22166D01*
X56188D01*
Y22117D01*
X56335D01*
Y22068D01*
X56432D01*
Y22019D01*
X56579D01*
Y21970D01*
X56726D01*
Y21921D01*
X56823D01*
Y21872D01*
X56921D01*
Y21824D01*
X57019D01*
Y21775D01*
X57117D01*
Y21726D01*
X57214D01*
Y21677D01*
X57312D01*
Y21628D01*
X57410D01*
Y21579D01*
X57508D01*
Y21530D01*
X57605D01*
Y21481D01*
X57654D01*
Y21432D01*
X57752D01*
Y21384D01*
X57850D01*
Y21335D01*
X57899D01*
Y21286D01*
X57996D01*
Y21237D01*
X58045D01*
Y21188D01*
X58143D01*
Y21139D01*
X58192D01*
Y21090D01*
X58241D01*
Y21042D01*
X58338D01*
Y20993D01*
X58387D01*
Y20944D01*
X58436D01*
Y20895D01*
X58485D01*
Y20846D01*
X58534D01*
Y20797D01*
X58583D01*
Y20748D01*
X58632D01*
Y20699D01*
X58681D01*
Y20651D01*
X58729D01*
Y20602D01*
X58778D01*
Y20553D01*
X58827D01*
Y20504D01*
Y20455D01*
X58876D01*
Y20406D01*
X58925D01*
Y20357D01*
Y20308D01*
X58974D01*
Y20259D01*
Y20211D01*
X59023D01*
Y20162D01*
Y20113D01*
Y20064D01*
X59071D01*
Y20015D01*
Y19966D01*
Y19917D01*
Y19869D01*
Y19820D01*
Y19771D01*
Y19722D01*
Y19673D01*
Y19624D01*
Y19575D01*
Y19526D01*
Y19478D01*
X59023D01*
Y19429D01*
Y19380D01*
Y19331D01*
X58974D01*
Y19282D01*
Y19233D01*
Y19184D01*
Y19136D01*
X58925D01*
Y19087D01*
Y19038D01*
Y18989D01*
X58876D01*
Y18940D01*
Y18891D01*
X58827D01*
Y18842D01*
Y18793D01*
Y18744D01*
X58778D01*
Y18696D01*
Y18647D01*
X58729D01*
Y18598D01*
Y18549D01*
Y18500D01*
X58681D01*
Y18451D01*
Y18402D01*
X58632D01*
Y18353D01*
Y18305D01*
Y18256D01*
X58583D01*
Y18207D01*
Y18158D01*
Y18109D01*
X58534D01*
Y18060D01*
Y18011D01*
X58485D01*
Y17963D01*
Y17914D01*
Y17865D01*
X58436D01*
Y17816D01*
Y17767D01*
X58387D01*
Y17718D01*
Y17669D01*
X58338D01*
Y17620D01*
Y17571D01*
Y17523D01*
X58290D01*
Y17474D01*
Y17425D01*
X58241D01*
Y17376D01*
Y17327D01*
Y17278D01*
X58192D01*
Y17229D01*
Y17180D01*
X58143D01*
Y17132D01*
Y17083D01*
Y17034D01*
X58094D01*
Y16985D01*
Y16936D01*
X58045D01*
Y16887D01*
Y16838D01*
Y16790D01*
X57996D01*
Y16741D01*
Y16692D01*
X57947D01*
Y16643D01*
Y16594D01*
Y16545D01*
X57899D01*
Y16496D01*
Y16447D01*
X57850D01*
Y16399D01*
Y16350D01*
X57801D01*
Y16301D01*
Y16252D01*
Y16203D01*
X57752D01*
Y16154D01*
Y16105D01*
Y16057D01*
X57703D01*
Y16008D01*
Y15959D01*
X57654D01*
Y15910D01*
Y15861D01*
Y15812D01*
X57605D01*
Y15763D01*
Y15714D01*
X57556D01*
Y15665D01*
Y15617D01*
Y15568D01*
X57508D01*
Y15519D01*
Y15470D01*
X57459D01*
Y15421D01*
Y15372D01*
Y15323D01*
X57410D01*
Y15274D01*
Y15226D01*
X57361D01*
Y15177D01*
Y15128D01*
Y15079D01*
X57312D01*
Y15030D01*
Y14981D01*
X57263D01*
Y14932D01*
Y14884D01*
X57214D01*
Y14835D01*
Y14786D01*
Y14737D01*
X57165D01*
Y14688D01*
Y14639D01*
Y14590D01*
X57117D01*
Y14541D01*
Y14492D01*
X57068D01*
Y14444D01*
Y14395D01*
Y14346D01*
X57019D01*
Y14297D01*
Y14248D01*
X56970D01*
Y14199D01*
Y14150D01*
X56921D01*
Y14102D01*
Y14053D01*
X56872D01*
Y14004D01*
Y13955D01*
Y13906D01*
X56823D01*
Y13857D01*
Y13808D01*
X56774D01*
Y13759D01*
Y13711D01*
X56726D01*
Y13662D01*
Y13613D01*
X56677D01*
Y13564D01*
Y13515D01*
X56628D01*
Y13466D01*
X56579D01*
Y13417D01*
Y13368D01*
X56530D01*
Y13320D01*
Y13271D01*
X56481D01*
Y13222D01*
X56432D01*
Y13173D01*
Y13124D01*
X56384D01*
Y13075D01*
X56335D01*
Y13026D01*
X56286D01*
Y12978D01*
X56237D01*
Y12929D01*
X56188D01*
Y12880D01*
X56139D01*
Y12831D01*
X56090D01*
Y12782D01*
X56041D01*
Y12733D01*
X55993D01*
Y12684D01*
X55944D01*
Y12635D01*
X55895D01*
Y12586D01*
X55797D01*
Y12538D01*
X55699D01*
Y12489D01*
X55650D01*
Y12440D01*
X55553D01*
Y12391D01*
X55455D01*
Y12342D01*
X55357D01*
Y12293D01*
X55211D01*
Y12244D01*
X55064D01*
Y12195D01*
X54966D01*
Y12147D01*
X54771D01*
Y12098D01*
X54575D01*
Y12049D01*
X54282D01*
Y12000D01*
X53647D01*
Y11951D01*
X53500D01*
Y12000D01*
X52816D01*
Y12049D01*
X52474D01*
Y12098D01*
X52327D01*
Y12147D01*
X52083D01*
Y12195D01*
X51936D01*
Y12244D01*
X51789D01*
Y12293D01*
X51643D01*
Y12342D01*
X51496D01*
Y12391D01*
X51398D01*
Y12440D01*
X51301D01*
Y12489D01*
X51203D01*
Y12538D01*
X51105D01*
Y12586D01*
X51007D01*
Y12635D01*
X50910D01*
Y12684D01*
X50861D01*
Y12733D01*
X50812D01*
Y12782D01*
X50714D01*
Y12831D01*
X50665D01*
Y12880D01*
X50617D01*
Y12929D01*
X50568D01*
Y12978D01*
X50519D01*
Y13026D01*
Y13075D01*
X50470D01*
Y13124D01*
X50421D01*
Y13173D01*
X50372D01*
Y13222D01*
Y13271D01*
X50323D01*
Y13320D01*
Y13368D01*
X50274D01*
Y13417D01*
Y13466D01*
X50226D01*
Y13515D01*
Y13564D01*
X50177D01*
Y13613D01*
Y13662D01*
X50128D01*
Y13711D01*
Y13759D01*
Y13808D01*
X50079D01*
Y13857D01*
Y13906D01*
X50030D01*
Y13955D01*
Y14004D01*
Y14053D01*
X49981D01*
Y14102D01*
Y14150D01*
Y14199D01*
Y14248D01*
X49932D01*
Y14297D01*
Y14346D01*
Y14395D01*
X49883D01*
Y14444D01*
Y14492D01*
Y14541D01*
X49834D01*
Y14590D01*
Y14639D01*
Y14688D01*
X49786D01*
Y14737D01*
Y14786D01*
Y14835D01*
X49737D01*
Y14884D01*
Y14932D01*
Y14981D01*
X49688D01*
Y15030D01*
Y15079D01*
Y15128D01*
Y15177D01*
X49639D01*
Y15226D01*
Y15274D01*
Y15323D01*
X49590D01*
Y15372D01*
Y15421D01*
Y15470D01*
X49541D01*
Y15519D01*
Y15568D01*
Y15617D01*
Y15665D01*
X49492D01*
Y15714D01*
Y15763D01*
Y15812D01*
X49444D01*
Y15861D01*
Y15910D01*
Y15959D01*
X49395D01*
Y16008D01*
Y16057D01*
Y16105D01*
X49346D01*
Y16154D01*
Y16203D01*
Y16252D01*
X49297D01*
Y16301D01*
Y16350D01*
Y16399D01*
X49248D01*
Y16447D01*
Y16496D01*
Y16545D01*
Y16594D01*
X49199D01*
Y16643D01*
Y16692D01*
Y16741D01*
X49150D01*
Y16790D01*
Y16838D01*
Y16887D01*
X49101D01*
Y16936D01*
Y16985D01*
Y17034D01*
X49053D01*
Y17083D01*
Y17132D01*
Y17180D01*
X49004D01*
Y17229D01*
Y17278D01*
Y17327D01*
X48955D01*
Y17376D01*
Y17425D01*
Y17474D01*
Y17523D01*
X48906D01*
Y17571D01*
Y17620D01*
Y17669D01*
X48857D01*
Y17718D01*
Y17767D01*
Y17816D01*
X48808D01*
Y17865D01*
Y17914D01*
Y17963D01*
X48759D01*
Y18011D01*
Y18060D01*
Y18109D01*
X48710D01*
Y18158D01*
Y18207D01*
Y18256D01*
X48662D01*
Y18305D01*
Y18353D01*
Y18402D01*
Y18451D01*
X48613D01*
Y18500D01*
Y18549D01*
Y18598D01*
X48564D01*
Y18647D01*
Y18696D01*
Y18744D01*
X48515D01*
Y18793D01*
Y18842D01*
Y18891D01*
X48466D01*
Y18940D01*
Y18989D01*
X48417D01*
Y19038D01*
Y19087D01*
Y19136D01*
Y19184D01*
X48368D01*
Y19233D01*
Y19282D01*
Y19331D01*
Y19380D01*
X48320D01*
Y19429D01*
Y19478D01*
Y19526D01*
Y19575D01*
Y19624D01*
Y19673D01*
Y19722D01*
Y19771D01*
Y19820D01*
X48368D01*
Y19869D01*
Y19917D01*
Y19966D01*
Y20015D01*
X48417D01*
Y20064D01*
Y20113D01*
X48466D01*
Y20162D01*
Y20211D01*
X48515D01*
Y20259D01*
X48564D01*
Y20308D01*
Y20357D01*
X48613D01*
Y20406D01*
X48662D01*
Y20455D01*
X48710D01*
Y20504D01*
Y20553D01*
X48759D01*
Y20602D01*
X48808D01*
Y20651D01*
X48857D01*
Y20699D01*
X48906D01*
Y20748D01*
X48955D01*
Y20797D01*
X49053D01*
Y20846D01*
X49101D01*
Y20895D01*
X49150D01*
Y20944D01*
X49199D01*
Y20993D01*
X49248D01*
Y21042D01*
X49346D01*
Y21090D01*
X49395D01*
Y21139D01*
X49444D01*
Y21188D01*
X49541D01*
Y21237D01*
X49590D01*
Y21286D01*
X49688D01*
Y21335D01*
X49737D01*
Y21384D01*
X49834D01*
Y21432D01*
X49883D01*
Y21481D01*
X49981D01*
Y21530D01*
X50079D01*
Y21579D01*
X50128D01*
Y21628D01*
X50226D01*
Y21677D01*
X50323D01*
Y21726D01*
X50421D01*
Y21775D01*
X50519D01*
Y21824D01*
X50617D01*
Y21872D01*
X50714D01*
Y21921D01*
X50812D01*
Y21970D01*
X50959D01*
Y22019D01*
X51056D01*
Y22068D01*
X51154D01*
Y22117D01*
X51301D01*
Y22166D01*
X51447D01*
Y22215D01*
X51594D01*
Y22263D01*
X51741D01*
Y22312D01*
X51887D01*
Y22361D01*
X52132D01*
Y22410D01*
X52278D01*
Y22459D01*
X52571D01*
Y22508D01*
X52767D01*
Y22557D01*
X53353D01*
Y22605D01*
X54038D01*
Y22557D01*
D02*
G37*
G36*
X47293Y19331D02*
Y19282D01*
Y19233D01*
X47342D01*
Y19184D01*
Y19136D01*
Y19087D01*
Y19038D01*
X47391D01*
Y18989D01*
Y18940D01*
Y18891D01*
Y18842D01*
X47440D01*
Y18793D01*
Y18744D01*
Y18696D01*
X47489D01*
Y18647D01*
Y18598D01*
Y18549D01*
X47537D01*
Y18500D01*
Y18451D01*
Y18402D01*
X47586D01*
Y18353D01*
Y18305D01*
Y18256D01*
X47635D01*
Y18207D01*
Y18158D01*
Y18109D01*
X47684D01*
Y18060D01*
Y18011D01*
Y17963D01*
X47733D01*
Y17914D01*
Y17865D01*
Y17816D01*
Y17767D01*
X47782D01*
Y17718D01*
Y17669D01*
Y17620D01*
X47831D01*
Y17571D01*
Y17523D01*
Y17474D01*
X47880D01*
Y17425D01*
Y17376D01*
Y17327D01*
X47929D01*
Y17278D01*
Y17229D01*
Y17180D01*
X47977D01*
Y17132D01*
Y17083D01*
Y17034D01*
Y16985D01*
X48026D01*
Y16936D01*
Y16887D01*
X48075D01*
Y16838D01*
Y16790D01*
Y16741D01*
Y16692D01*
X48124D01*
Y16643D01*
Y16594D01*
Y16545D01*
X48173D01*
Y16496D01*
Y16447D01*
Y16399D01*
X48222D01*
Y16350D01*
Y16301D01*
Y16252D01*
Y16203D01*
X48271D01*
Y16154D01*
Y16105D01*
X48320D01*
Y16057D01*
Y16008D01*
Y15959D01*
Y15910D01*
X48368D01*
Y15861D01*
Y15812D01*
Y15763D01*
X48417D01*
Y15714D01*
Y15665D01*
Y15617D01*
X48466D01*
Y15568D01*
Y15519D01*
Y15470D01*
Y15421D01*
X48515D01*
Y15372D01*
Y15323D01*
X48564D01*
Y15274D01*
Y15226D01*
Y15177D01*
Y15128D01*
X48613D01*
Y15079D01*
Y15030D01*
X48662D01*
Y14981D01*
Y14932D01*
Y14884D01*
Y14835D01*
X48710D01*
Y14786D01*
Y14737D01*
Y14688D01*
X48759D01*
Y14639D01*
Y14590D01*
Y14541D01*
X48808D01*
Y14492D01*
Y14444D01*
Y14395D01*
Y14346D01*
X48857D01*
Y14297D01*
Y14248D01*
X48906D01*
Y14199D01*
Y14150D01*
Y14102D01*
Y14053D01*
X48955D01*
Y14004D01*
Y13955D01*
Y13906D01*
X49004D01*
Y13857D01*
Y13808D01*
Y13759D01*
X49053D01*
Y13711D01*
Y13662D01*
Y13613D01*
X49101D01*
Y13564D01*
Y13515D01*
Y13466D01*
X49150D01*
Y13417D01*
Y13368D01*
Y13320D01*
X49199D01*
Y13271D01*
Y13222D01*
X49248D01*
Y13173D01*
Y13124D01*
X49297D01*
Y13075D01*
Y13026D01*
X49346D01*
Y12978D01*
Y12929D01*
X49395D01*
Y12880D01*
Y12831D01*
X49444D01*
Y12782D01*
Y12733D01*
X49492D01*
Y12684D01*
Y12635D01*
X49541D01*
Y12586D01*
X49590D01*
Y12538D01*
X49639D01*
Y12489D01*
Y12440D01*
X49688D01*
Y12391D01*
X49737D01*
Y12342D01*
X49786D01*
Y12293D01*
X49834D01*
Y12244D01*
X49737D01*
Y12195D01*
X49639D01*
Y12147D01*
X49492D01*
Y12098D01*
X49395D01*
Y12049D01*
X49297D01*
Y12000D01*
X49150D01*
Y11951D01*
X49053D01*
Y11902D01*
X48906D01*
Y11853D01*
X48808D01*
Y11805D01*
X48662D01*
Y11756D01*
X48515D01*
Y11707D01*
X48320D01*
Y11658D01*
X47684D01*
Y11707D01*
X47586D01*
Y11756D01*
X47489D01*
Y11805D01*
X47440D01*
Y11853D01*
X47391D01*
Y11902D01*
X47293D01*
Y11951D01*
X47244D01*
Y12000D01*
X47195D01*
Y12049D01*
X47146D01*
Y12098D01*
X47098D01*
Y12147D01*
Y12195D01*
X47049D01*
Y12244D01*
X47000D01*
Y12293D01*
X46951D01*
Y12342D01*
X46902D01*
Y12391D01*
Y12440D01*
X46853D01*
Y12489D01*
X46804D01*
Y12538D01*
X46755D01*
Y12586D01*
Y12635D01*
X46707D01*
Y12684D01*
X46658D01*
Y12733D01*
Y12782D01*
X46609D01*
Y12831D01*
X46560D01*
Y12880D01*
Y12929D01*
X46511D01*
Y12978D01*
X46462D01*
Y13026D01*
Y13075D01*
X46413D01*
Y13124D01*
X46365D01*
Y13173D01*
Y13222D01*
X46316D01*
Y13271D01*
X46267D01*
Y13320D01*
Y13368D01*
X46218D01*
Y13417D01*
X46169D01*
Y13466D01*
Y13515D01*
X46120D01*
Y13564D01*
X46071D01*
Y13613D01*
Y13662D01*
X46022D01*
Y13711D01*
Y13759D01*
X45974D01*
Y13808D01*
X45925D01*
Y13857D01*
Y13906D01*
X45876D01*
Y13955D01*
X45827D01*
Y14004D01*
Y14053D01*
X45778D01*
Y14102D01*
Y14150D01*
X45729D01*
Y14199D01*
X45680D01*
Y14248D01*
Y14297D01*
X45631D01*
Y14346D01*
Y14395D01*
X45583D01*
Y14444D01*
X45534D01*
Y14492D01*
Y14541D01*
X45485D01*
Y14590D01*
X45436D01*
Y14639D01*
Y14688D01*
X45387D01*
Y14737D01*
Y14786D01*
X45338D01*
Y14835D01*
X45289D01*
Y14884D01*
Y14932D01*
X45241D01*
Y14981D01*
Y15030D01*
X45192D01*
Y15079D01*
X45143D01*
Y15128D01*
Y15177D01*
X45094D01*
Y15226D01*
Y15274D01*
X45045D01*
Y15323D01*
X44996D01*
Y15372D01*
Y15421D01*
X44947D01*
Y15470D01*
X44898D01*
Y15519D01*
Y15568D01*
X44850D01*
Y15617D01*
Y15665D01*
X44801D01*
Y15714D01*
Y15763D01*
X44752D01*
Y15812D01*
Y15861D01*
X44703D01*
Y15910D01*
Y15959D01*
X44654D01*
Y16008D01*
Y16057D01*
Y16105D01*
X44605D01*
Y16154D01*
Y16203D01*
X44556D01*
Y16252D01*
Y16301D01*
X44507D01*
Y16350D01*
Y16399D01*
Y16447D01*
X44458D01*
Y16496D01*
Y16545D01*
Y16594D01*
X44410D01*
Y16643D01*
Y16692D01*
X44361D01*
Y16741D01*
Y16790D01*
Y16838D01*
Y16887D01*
X44312D01*
Y16936D01*
Y16985D01*
Y17034D01*
Y17083D01*
Y17132D01*
Y17180D01*
Y17229D01*
Y17278D01*
Y17327D01*
Y17376D01*
Y17425D01*
Y17474D01*
Y17523D01*
Y17571D01*
X44361D01*
Y17620D01*
Y17669D01*
X44410D01*
Y17718D01*
Y17767D01*
X44458D01*
Y17816D01*
Y17865D01*
X44507D01*
Y17914D01*
X44556D01*
Y17963D01*
X44605D01*
Y18011D01*
X44654D01*
Y18060D01*
X44703D01*
Y18109D01*
X44752D01*
Y18158D01*
X44801D01*
Y18207D01*
X44898D01*
Y18256D01*
X44947D01*
Y18305D01*
X44996D01*
Y18353D01*
X45094D01*
Y18402D01*
X45192D01*
Y18451D01*
X45241D01*
Y18500D01*
X45338D01*
Y18549D01*
X45436D01*
Y18598D01*
X45534D01*
Y18647D01*
X45631D01*
Y18696D01*
X45680D01*
Y18744D01*
X45827D01*
Y18793D01*
X45925D01*
Y18842D01*
X46022D01*
Y18891D01*
X46120D01*
Y18940D01*
X46218D01*
Y18989D01*
X46365D01*
Y19038D01*
X46462D01*
Y19087D01*
X46609D01*
Y19136D01*
X46707D01*
Y19184D01*
X46853D01*
Y19233D01*
X46951D01*
Y19282D01*
X47098D01*
Y19331D01*
X47244D01*
Y19380D01*
X47293D01*
Y19331D01*
D02*
G37*
G36*
X60196Y19136D02*
X60293D01*
Y19087D01*
X60440D01*
Y19038D01*
X60538D01*
Y18989D01*
X60636D01*
Y18940D01*
X60782D01*
Y18891D01*
X60880D01*
Y18842D01*
X61026D01*
Y18793D01*
X61075D01*
Y18744D01*
X61222D01*
Y18696D01*
X61320D01*
Y18647D01*
X61417D01*
Y18598D01*
X61515D01*
Y18549D01*
X61613D01*
Y18500D01*
X61760D01*
Y18451D01*
X61808D01*
Y18402D01*
X61906D01*
Y18353D01*
X62004D01*
Y18305D01*
X62102D01*
Y18256D01*
X62199D01*
Y18207D01*
X62248D01*
Y18158D01*
X62346D01*
Y18109D01*
X62444D01*
Y18060D01*
X62493D01*
Y18011D01*
X62590D01*
Y17963D01*
X62639D01*
Y17914D01*
X62737D01*
Y17865D01*
X62786D01*
Y17816D01*
X62835D01*
Y17767D01*
X62884D01*
Y17718D01*
X62932D01*
Y17669D01*
X62981D01*
Y17620D01*
X63030D01*
Y17571D01*
Y17523D01*
X63079D01*
Y17474D01*
Y17425D01*
X63128D01*
Y17376D01*
Y17327D01*
Y17278D01*
Y17229D01*
Y17180D01*
Y17132D01*
Y17083D01*
Y17034D01*
X63079D01*
Y16985D01*
Y16936D01*
X63030D01*
Y16887D01*
Y16838D01*
Y16790D01*
X62981D01*
Y16741D01*
Y16692D01*
X62932D01*
Y16643D01*
Y16594D01*
X62884D01*
Y16545D01*
Y16496D01*
X62835D01*
Y16447D01*
Y16399D01*
X62786D01*
Y16350D01*
Y16301D01*
X62737D01*
Y16252D01*
X62688D01*
Y16203D01*
Y16154D01*
X62639D01*
Y16105D01*
Y16057D01*
X62590D01*
Y16008D01*
Y15959D01*
X62542D01*
Y15910D01*
Y15861D01*
X62493D01*
Y15812D01*
X62444D01*
Y15763D01*
Y15714D01*
X62395D01*
Y15665D01*
Y15617D01*
X62346D01*
Y15568D01*
Y15519D01*
X62297D01*
Y15470D01*
Y15421D01*
X62248D01*
Y15372D01*
Y15323D01*
X62199D01*
Y15274D01*
Y15226D01*
X62151D01*
Y15177D01*
X62102D01*
Y15128D01*
Y15079D01*
X62053D01*
Y15030D01*
Y14981D01*
X62004D01*
Y14932D01*
Y14884D01*
X61955D01*
Y14835D01*
Y14786D01*
X61906D01*
Y14737D01*
X61857D01*
Y14688D01*
Y14639D01*
X61808D01*
Y14590D01*
Y14541D01*
X61760D01*
Y14492D01*
Y14444D01*
X61711D01*
Y14395D01*
Y14346D01*
X61662D01*
Y14297D01*
X61613D01*
Y14248D01*
Y14199D01*
X61564D01*
Y14150D01*
Y14102D01*
X61515D01*
Y14053D01*
Y14004D01*
X61466D01*
Y13955D01*
Y13906D01*
X61417D01*
Y13857D01*
Y13808D01*
X61369D01*
Y13759D01*
Y13711D01*
X61320D01*
Y13662D01*
X61271D01*
Y13613D01*
Y13564D01*
X61222D01*
Y13515D01*
Y13466D01*
X61173D01*
Y13417D01*
Y13368D01*
X61124D01*
Y13320D01*
Y13271D01*
X61075D01*
Y13222D01*
X61026D01*
Y13173D01*
Y13124D01*
X60978D01*
Y13075D01*
Y13026D01*
X60929D01*
Y12978D01*
Y12929D01*
X60880D01*
Y12880D01*
Y12831D01*
X60831D01*
Y12782D01*
X60782D01*
Y12733D01*
X60733D01*
Y12684D01*
Y12635D01*
X60684D01*
Y12586D01*
X60636D01*
Y12538D01*
X60587D01*
Y12489D01*
X60538D01*
Y12440D01*
Y12391D01*
X60489D01*
Y12342D01*
X60440D01*
Y12293D01*
X60391D01*
Y12244D01*
X60342D01*
Y12195D01*
X60293D01*
Y12147D01*
X60245D01*
Y12098D01*
X60196D01*
Y12049D01*
X60147D01*
Y12000D01*
X60098D01*
Y11951D01*
X60049D01*
Y11902D01*
X60000D01*
Y11853D01*
X59902D01*
Y11805D01*
X59854D01*
Y11756D01*
X59756D01*
Y11707D01*
X59658D01*
Y11658D01*
X59511D01*
Y11609D01*
X58827D01*
Y11658D01*
X58583D01*
Y11707D01*
X58387D01*
Y11756D01*
X58241D01*
Y11805D01*
X58045D01*
Y11853D01*
X57947D01*
Y11902D01*
X57801D01*
Y11951D01*
X57654D01*
Y12000D01*
X57556D01*
Y12049D01*
X57410D01*
Y12098D01*
X57312D01*
Y12147D01*
X57165D01*
Y12195D01*
X57068D01*
Y12244D01*
X57019D01*
Y12293D01*
X57068D01*
Y12342D01*
X57117D01*
Y12391D01*
Y12440D01*
X57165D01*
Y12489D01*
X57214D01*
Y12538D01*
X57263D01*
Y12586D01*
X57312D01*
Y12635D01*
Y12684D01*
X57361D01*
Y12733D01*
X57410D01*
Y12782D01*
Y12831D01*
X57459D01*
Y12880D01*
X57508D01*
Y12929D01*
Y12978D01*
X57556D01*
Y13026D01*
Y13075D01*
X57605D01*
Y13124D01*
Y13173D01*
X57654D01*
Y13222D01*
Y13271D01*
X57703D01*
Y13320D01*
Y13368D01*
X57752D01*
Y13417D01*
Y13466D01*
X57801D01*
Y13515D01*
Y13564D01*
X57850D01*
Y13613D01*
Y13662D01*
X57899D01*
Y13711D01*
Y13759D01*
Y13808D01*
X57947D01*
Y13857D01*
Y13906D01*
X57996D01*
Y13955D01*
Y14004D01*
X58045D01*
Y14053D01*
Y14102D01*
Y14150D01*
X58094D01*
Y14199D01*
Y14248D01*
X58143D01*
Y14297D01*
Y14346D01*
Y14395D01*
X58192D01*
Y14444D01*
Y14492D01*
X58241D01*
Y14541D01*
Y14590D01*
Y14639D01*
X58290D01*
Y14688D01*
Y14737D01*
X58338D01*
Y14786D01*
Y14835D01*
Y14884D01*
X58387D01*
Y14932D01*
Y14981D01*
X58436D01*
Y15030D01*
Y15079D01*
Y15128D01*
X58485D01*
Y15177D01*
Y15226D01*
X58534D01*
Y15274D01*
Y15323D01*
Y15372D01*
X58583D01*
Y15421D01*
Y15470D01*
X58632D01*
Y15519D01*
Y15568D01*
Y15617D01*
X58681D01*
Y15665D01*
Y15714D01*
X58729D01*
Y15763D01*
Y15812D01*
Y15861D01*
X58778D01*
Y15910D01*
Y15959D01*
X58827D01*
Y16008D01*
Y16057D01*
Y16105D01*
X58876D01*
Y16154D01*
Y16203D01*
X58925D01*
Y16252D01*
Y16301D01*
Y16350D01*
X58974D01*
Y16399D01*
Y16447D01*
X59023D01*
Y16496D01*
Y16545D01*
X59071D01*
Y16594D01*
Y16643D01*
Y16692D01*
X59120D01*
Y16741D01*
Y16790D01*
Y16838D01*
X59169D01*
Y16887D01*
Y16936D01*
X59218D01*
Y16985D01*
Y17034D01*
X59267D01*
Y17083D01*
Y17132D01*
Y17180D01*
X59316D01*
Y17229D01*
Y17278D01*
X59365D01*
Y17327D01*
Y17376D01*
Y17425D01*
X59414D01*
Y17474D01*
Y17523D01*
X59462D01*
Y17571D01*
Y17620D01*
Y17669D01*
X59511D01*
Y17718D01*
Y17767D01*
X59560D01*
Y17816D01*
Y17865D01*
Y17914D01*
X59609D01*
Y17963D01*
Y18011D01*
X59658D01*
Y18060D01*
Y18109D01*
Y18158D01*
X59707D01*
Y18207D01*
Y18256D01*
X59756D01*
Y18305D01*
Y18353D01*
Y18402D01*
X59805D01*
Y18451D01*
Y18500D01*
X59854D01*
Y18549D01*
Y18598D01*
Y18647D01*
X59902D01*
Y18696D01*
Y18744D01*
Y18793D01*
X59951D01*
Y18842D01*
Y18891D01*
Y18940D01*
X60000D01*
Y18989D01*
Y19038D01*
Y19087D01*
X60049D01*
Y19136D01*
Y19184D01*
X60196D01*
Y19136D01*
D02*
G37*
G36*
X43823Y15372D02*
Y15323D01*
X43872D01*
Y15274D01*
Y15226D01*
X43921D01*
Y15177D01*
Y15128D01*
X43970D01*
Y15079D01*
Y15030D01*
X44019D01*
Y14981D01*
Y14932D01*
X44067D01*
Y14884D01*
X44116D01*
Y14835D01*
Y14786D01*
X44165D01*
Y14737D01*
X44214D01*
Y14688D01*
Y14639D01*
X44263D01*
Y14590D01*
Y14541D01*
X44312D01*
Y14492D01*
X44361D01*
Y14444D01*
Y14395D01*
X44410D01*
Y14346D01*
Y14297D01*
X44458D01*
Y14248D01*
X44507D01*
Y14199D01*
Y14150D01*
X44556D01*
Y14102D01*
Y14053D01*
X44605D01*
Y14004D01*
X44654D01*
Y13955D01*
Y13906D01*
X44703D01*
Y13857D01*
Y13808D01*
X44752D01*
Y13759D01*
X44801D01*
Y13711D01*
Y13662D01*
X44850D01*
Y13613D01*
X44898D01*
Y13564D01*
Y13515D01*
X44947D01*
Y13466D01*
Y13417D01*
X44996D01*
Y13368D01*
X45045D01*
Y13320D01*
Y13271D01*
X45094D01*
Y13222D01*
X45143D01*
Y13173D01*
Y13124D01*
X45192D01*
Y13075D01*
Y13026D01*
X45241D01*
Y12978D01*
X45289D01*
Y12929D01*
Y12880D01*
X45338D01*
Y12831D01*
X45387D01*
Y12782D01*
Y12733D01*
X45436D01*
Y12684D01*
X45485D01*
Y12635D01*
Y12586D01*
X45534D01*
Y12538D01*
X45583D01*
Y12489D01*
Y12440D01*
X45534D01*
Y12391D01*
X45387D01*
Y12342D01*
X45289D01*
Y12293D01*
X45143D01*
Y12244D01*
X45045D01*
Y12195D01*
X44947D01*
Y12147D01*
X44801D01*
Y12098D01*
X44703D01*
Y12049D01*
X44556D01*
Y12000D01*
X44458D01*
Y11951D01*
X44312D01*
Y11902D01*
X44214D01*
Y11853D01*
X44116D01*
Y11805D01*
X43970D01*
Y11756D01*
X43872D01*
Y11707D01*
X43774D01*
Y11658D01*
X43628D01*
Y11609D01*
X43530D01*
Y11560D01*
X43383D01*
Y11511D01*
X43286D01*
Y11462D01*
X43139D01*
Y11413D01*
X43041D01*
Y11365D01*
X42895D01*
Y11316D01*
X42748D01*
Y11267D01*
X42601D01*
Y11218D01*
X42259D01*
Y11267D01*
Y11316D01*
Y11365D01*
X42210D01*
Y11413D01*
Y11462D01*
Y11511D01*
Y11560D01*
Y11609D01*
Y11658D01*
Y11707D01*
Y11756D01*
X42162D01*
Y11805D01*
Y11853D01*
Y11902D01*
Y11951D01*
Y12000D01*
Y12049D01*
Y12098D01*
Y12147D01*
Y12195D01*
Y12244D01*
X42210D01*
Y12293D01*
Y12342D01*
Y12391D01*
Y12440D01*
Y12489D01*
Y12538D01*
Y12586D01*
Y12635D01*
Y12684D01*
X42259D01*
Y12733D01*
Y12782D01*
Y12831D01*
Y12880D01*
Y12929D01*
X42308D01*
Y12978D01*
Y13026D01*
Y13075D01*
Y13124D01*
X42357D01*
Y13173D01*
Y13222D01*
Y13271D01*
Y13320D01*
X42406D01*
Y13368D01*
Y13417D01*
Y13466D01*
X42455D01*
Y13515D01*
Y13564D01*
Y13613D01*
X42504D01*
Y13662D01*
Y13711D01*
X42552D01*
Y13759D01*
Y13808D01*
Y13857D01*
X42601D01*
Y13906D01*
Y13955D01*
X42650D01*
Y14004D01*
Y14053D01*
X42699D01*
Y14102D01*
Y14150D01*
X42748D01*
Y14199D01*
X42797D01*
Y14248D01*
Y14297D01*
X42846D01*
Y14346D01*
Y14395D01*
X42895D01*
Y14444D01*
X42943D01*
Y14492D01*
Y14541D01*
X42992D01*
Y14590D01*
X43041D01*
Y14639D01*
Y14688D01*
X43090D01*
Y14737D01*
X43139D01*
Y14786D01*
X43188D01*
Y14835D01*
X43237D01*
Y14884D01*
Y14932D01*
X43286D01*
Y14981D01*
X43334D01*
Y15030D01*
X43383D01*
Y15079D01*
X43432D01*
Y15128D01*
X43481D01*
Y15177D01*
X43530D01*
Y15226D01*
X43579D01*
Y15274D01*
X43628D01*
Y15323D01*
X43725D01*
Y15372D01*
X43774D01*
Y15421D01*
X43823D01*
Y15372D01*
D02*
G37*
G36*
X63421Y15274D02*
X63470D01*
Y15226D01*
X63568D01*
Y15177D01*
Y15128D01*
X63666D01*
Y15079D01*
X63714D01*
Y15030D01*
X63763D01*
Y14981D01*
X63812D01*
Y14932D01*
Y14884D01*
X63861D01*
Y14835D01*
X63910D01*
Y14786D01*
X63959D01*
Y14737D01*
X64008D01*
Y14688D01*
X64057D01*
Y14639D01*
Y14590D01*
X64105D01*
Y14541D01*
X64154D01*
Y14492D01*
X64203D01*
Y14444D01*
Y14395D01*
X64252D01*
Y14346D01*
X64301D01*
Y14297D01*
Y14248D01*
X64350D01*
Y14199D01*
Y14150D01*
X64399D01*
Y14102D01*
Y14053D01*
X64448D01*
Y14004D01*
Y13955D01*
X64496D01*
Y13906D01*
Y13857D01*
X64545D01*
Y13808D01*
Y13759D01*
X64594D01*
Y13711D01*
Y13662D01*
X64643D01*
Y13613D01*
Y13564D01*
Y13515D01*
X64692D01*
Y13466D01*
Y13417D01*
Y13368D01*
X64741D01*
Y13320D01*
Y13271D01*
Y13222D01*
X64790D01*
Y13173D01*
Y13124D01*
Y13075D01*
Y13026D01*
Y12978D01*
X64839D01*
Y12929D01*
Y12880D01*
Y12831D01*
Y12782D01*
X64887D01*
Y12733D01*
Y12684D01*
Y12635D01*
Y12586D01*
Y12538D01*
Y12489D01*
Y12440D01*
Y12391D01*
Y12342D01*
X64936D01*
Y12293D01*
Y12244D01*
Y12195D01*
Y12147D01*
Y12098D01*
Y12049D01*
Y12000D01*
Y11951D01*
Y11902D01*
Y11853D01*
Y11805D01*
Y11756D01*
Y11707D01*
Y11658D01*
X64887D01*
Y11609D01*
Y11560D01*
Y11511D01*
Y11462D01*
Y11413D01*
Y11365D01*
Y11316D01*
X64839D01*
Y11267D01*
Y11218D01*
Y11169D01*
X64790D01*
Y11120D01*
Y11071D01*
X64643D01*
Y11120D01*
X64448D01*
Y11169D01*
X64301D01*
Y11218D01*
X64154D01*
Y11267D01*
X64008D01*
Y11316D01*
X63910D01*
Y11365D01*
X63763D01*
Y11413D01*
X63666D01*
Y11462D01*
X63519D01*
Y11511D01*
X63421D01*
Y11560D01*
X63323D01*
Y11609D01*
X63177D01*
Y11658D01*
X63079D01*
Y11707D01*
X62981D01*
Y11756D01*
X62835D01*
Y11805D01*
X62737D01*
Y11853D01*
X62639D01*
Y11902D01*
X62493D01*
Y11951D01*
X62395D01*
Y12000D01*
X62248D01*
Y12049D01*
X62151D01*
Y12098D01*
X62053D01*
Y12147D01*
X61906D01*
Y12195D01*
X61808D01*
Y12244D01*
X61711D01*
Y12293D01*
X61760D01*
Y12342D01*
Y12391D01*
X61808D01*
Y12440D01*
Y12489D01*
X61857D01*
Y12538D01*
Y12586D01*
X61906D01*
Y12635D01*
X61955D01*
Y12684D01*
Y12733D01*
X62004D01*
Y12782D01*
Y12831D01*
X62053D01*
Y12880D01*
Y12929D01*
X62102D01*
Y12978D01*
Y13026D01*
X62151D01*
Y13075D01*
X62199D01*
Y13124D01*
Y13173D01*
X62248D01*
Y13222D01*
Y13271D01*
X62297D01*
Y13320D01*
Y13368D01*
X62346D01*
Y13417D01*
Y13466D01*
X62395D01*
Y13515D01*
Y13564D01*
X62444D01*
Y13613D01*
X62493D01*
Y13662D01*
Y13711D01*
X62542D01*
Y13759D01*
Y13808D01*
X62590D01*
Y13857D01*
Y13906D01*
X62639D01*
Y13955D01*
Y14004D01*
X62688D01*
Y14053D01*
Y14102D01*
X62737D01*
Y14150D01*
X62786D01*
Y14199D01*
Y14248D01*
X62835D01*
Y14297D01*
Y14346D01*
X62884D01*
Y14395D01*
Y14444D01*
X62932D01*
Y14492D01*
Y14541D01*
X62981D01*
Y14590D01*
X63030D01*
Y14639D01*
Y14688D01*
X63079D01*
Y14737D01*
Y14786D01*
X63128D01*
Y14835D01*
Y14884D01*
X63177D01*
Y14932D01*
Y14981D01*
X63226D01*
Y15030D01*
Y15079D01*
X63275D01*
Y15128D01*
X63323D01*
Y15177D01*
Y15226D01*
X63372D01*
Y15274D01*
Y15323D01*
X63421D01*
Y15274D01*
D02*
G37*
D34*
X130976Y56500D02*
D03*
X128024D02*
D03*
X87976D02*
D03*
X85024D02*
D03*
X102476D02*
D03*
X99524D02*
D03*
X116476D02*
D03*
X113524D02*
D03*
D50*
X135000Y5000D02*
D03*
X125000D02*
D03*
X115000D02*
D03*
X105000D02*
D03*
X95000D02*
D03*
X85000D02*
D03*
X75000D02*
D03*
X65000D02*
D03*
X55000D02*
D03*
X45000D02*
D03*
X35000D02*
D03*
X25000D02*
D03*
X15000D02*
D03*
X135000Y65000D02*
D03*
X125000D02*
D03*
X115000D02*
D03*
X105000D02*
D03*
X95000D02*
D03*
X85000D02*
D03*
X75000D02*
D03*
X65000D02*
D03*
X55000D02*
D03*
X45000D02*
D03*
X35000D02*
D03*
X25000D02*
D03*
X15000D02*
D03*
D51*
X5000Y5000D02*
D03*
Y65000D02*
D03*
D52*
X5626Y13484D02*
D03*
Y57382D02*
D03*
D53*
X21374Y13484D02*
D03*
Y57382D02*
D03*
D68*
X106000Y27000D02*
D03*
X136000D02*
D03*
X126000D02*
D03*
X116000D02*
D03*
D69*
X97260Y49126D02*
D03*
X104740D02*
D03*
X101000Y39874D02*
D03*
X111260Y49126D02*
D03*
X118740D02*
D03*
X115000Y39874D02*
D03*
X82760Y49126D02*
D03*
X90240D02*
D03*
X86500Y39874D02*
D03*
X125760Y49126D02*
D03*
X133240D02*
D03*
X129500Y39874D02*
D03*
M02*
