G04*
G04 #@! TF.GenerationSoftware,Altium Limited,Altium Designer,21.0.8 (223)*
G04*
G04 Layer_Physical_Order=4*
G04 Layer_Color=16440176*
%FSLAX25Y25*%
%MOIN*%
G70*
G04*
G04 #@! TF.SameCoordinates,8808BF78-C309-42CA-8E72-27723A8412DA*
G04*
G04*
G04 #@! TF.FilePolarity,Positive*
G04*
G01*
G75*
%ADD54C,0.00800*%
%ADD56C,0.00700*%
%ADD57C,0.00500*%
%ADD58C,0.00400*%
%ADD59C,0.05906*%
%ADD63C,0.01400*%
D54*
X61128Y32872D02*
Y33385D01*
Y32872D02*
X64000Y30000D01*
X76500D01*
X61013Y33500D02*
X61128Y33385D01*
X76500Y30000D02*
X77500Y29000D01*
X61000Y30000D02*
X63000Y28000D01*
X75000D01*
X61000Y26500D02*
X81117D01*
X83965Y23652D01*
D56*
X104697Y35362D02*
Y36803D01*
X103788Y34602D02*
X103937D01*
X104697Y35362D01*
X99500Y42000D02*
Y54000D01*
Y42000D02*
X104697Y36803D01*
X93399Y42550D02*
X97394D01*
X102778Y36672D02*
Y37167D01*
Y36672D02*
X102912Y36538D01*
X97394Y42550D02*
X102778Y37167D01*
X104500Y21500D02*
X109900Y26900D01*
X104500Y19551D02*
Y21500D01*
X103050Y18139D02*
Y22550D01*
Y18139D02*
X103500Y17689D01*
Y17500D02*
Y17689D01*
X109900Y26900D02*
X115069D01*
X121355Y33185D02*
X123585D01*
X115069Y26900D02*
X121355Y33185D01*
X115700Y25200D02*
X121500Y31000D01*
X110500Y25200D02*
X115700D01*
X125760Y39760D02*
Y53500D01*
X108863Y28363D02*
X114364D01*
X125760Y39760D01*
X123585Y33185D02*
X126100Y35700D01*
X124671Y28500D02*
X125081Y28090D01*
X121500Y28500D02*
X124671D01*
X125081Y5081D02*
Y28090D01*
X111500Y30000D02*
Y53000D01*
X103050Y22550D02*
X108863Y28363D01*
X111000Y53500D02*
X111500Y53000D01*
X90000Y44500D02*
X93311D01*
X85000Y49500D02*
Y65000D01*
Y49500D02*
X90000Y44500D01*
X83500Y48362D02*
Y54000D01*
Y48362D02*
X88463Y43400D01*
X92549D01*
X93399Y42550D01*
X110500Y9500D02*
Y25200D01*
Y9500D02*
X115000Y5000D01*
X35000D02*
X36409D01*
X37789Y6380D01*
X37880D02*
X46000Y14500D01*
X74500D01*
X37789Y6380D02*
X37880D01*
X74500Y14500D02*
X78000Y18000D01*
X73000Y9500D02*
X79000Y15500D01*
X45000Y5000D02*
X49500Y9500D01*
X73000D01*
X102004Y64004D02*
X104004D01*
X105000Y65000D01*
X98000Y60000D02*
X102004Y64004D01*
X98000Y44000D02*
Y60000D01*
X95996Y61991D02*
Y64004D01*
Y61991D02*
X96000Y61987D01*
Y44000D02*
Y61987D01*
X95000Y65000D02*
X95996Y64004D01*
X93811Y44000D02*
X94000D01*
X93311Y44500D02*
X93811Y44000D01*
X75000Y58167D02*
X82100Y51067D01*
X75000Y58167D02*
Y65000D01*
X82100Y47400D02*
Y51067D01*
Y47400D02*
X85000Y44500D01*
X57000Y56500D02*
X75111D01*
X81000Y50611D01*
Y36500D02*
Y50611D01*
X49300Y55200D02*
X74856D01*
X79900Y35549D02*
Y50156D01*
X74856Y55200D02*
X79900Y50156D01*
X74500Y54000D02*
X78574Y49926D01*
X40500Y54000D02*
X74500D01*
X78574Y34875D02*
Y49926D01*
X35000Y59500D02*
X40500Y54000D01*
X78574Y34875D02*
X84949Y28500D01*
X85000D01*
X35000Y59500D02*
Y65000D01*
X79900Y35549D02*
X84975Y30475D01*
X45000Y59500D02*
Y65000D01*
Y59500D02*
X49300Y55200D01*
X81000Y36500D02*
X85000Y32500D01*
X55000Y58500D02*
X57000Y56500D01*
X55000Y58500D02*
Y65000D01*
X125000Y5000D02*
X125081Y5081D01*
D57*
X98676Y18984D02*
Y21824D01*
X99676Y19398D02*
Y22238D01*
X98500Y17000D02*
Y17214D01*
X99029Y17743D01*
Y18631D01*
X98676Y18984D02*
X99029Y18631D01*
X100558Y17058D02*
Y17272D01*
X100029Y17801D02*
X100558Y17272D01*
X100029Y17801D02*
Y19045D01*
X99676Y19398D02*
X100029Y19045D01*
X98500Y22000D02*
X98676Y21824D01*
X97775Y22725D02*
X98500Y22000D01*
X75164Y34850D02*
X87289Y22725D01*
X97775D01*
X39744Y34850D02*
X75164D01*
X39244Y34350D02*
X39744Y34850D01*
X39000Y34350D02*
X39244D01*
X98189Y23725D02*
X99676Y22238D01*
X87712Y23725D02*
X98189D01*
X87641Y23787D02*
X87650D01*
X75578Y35850D02*
X87641Y23787D01*
X87650D02*
X87712Y23725D01*
X39000Y36150D02*
X39172Y35978D01*
X39615D01*
X39743Y35850D01*
X75578D01*
D58*
X30370Y37695D02*
X31000Y37066D01*
Y34500D02*
Y37066D01*
X30370Y37695D02*
Y37800D01*
X28500Y35491D02*
X29336Y36327D01*
X28500Y32500D02*
Y35491D01*
D59*
X125000Y5000D02*
D03*
X115000D02*
D03*
X45000D02*
D03*
X35000D02*
D03*
X105000Y65000D02*
D03*
X95000D02*
D03*
X85000D02*
D03*
X75000D02*
D03*
X55000D02*
D03*
X45000D02*
D03*
X35000D02*
D03*
D63*
X103788Y34602D02*
D03*
X102912Y36538D02*
D03*
X104500Y19551D02*
D03*
X121500Y28500D02*
D03*
Y31000D02*
D03*
X125760Y53500D02*
D03*
X103500Y17500D02*
D03*
X111000Y53500D02*
D03*
X111500Y30000D02*
D03*
X99500Y54000D02*
D03*
X83500D02*
D03*
X100558Y17058D02*
D03*
X98500Y17000D02*
D03*
X110500Y25000D02*
D03*
X98000Y44000D02*
D03*
X96000D02*
D03*
X94000D02*
D03*
X85000Y44500D02*
D03*
Y32500D02*
D03*
Y30500D02*
D03*
Y28500D02*
D03*
X78000Y18000D02*
D03*
X79000Y15500D02*
D03*
X39000Y34350D02*
D03*
Y36150D02*
D03*
X126100Y35700D02*
D03*
X83965Y23652D02*
D03*
X30370Y37800D02*
D03*
X29336Y36327D02*
D03*
X31000Y34500D02*
D03*
X28500Y32500D02*
D03*
X61000Y26500D02*
D03*
Y30000D02*
D03*
X75000Y28000D02*
D03*
X77500Y29000D02*
D03*
X61013Y33500D02*
D03*
M02*
