G04*
G04 #@! TF.GenerationSoftware,Altium Limited,Altium Designer,21.0.8 (223)*
G04*
G04 Layer_Physical_Order=2*
G04 Layer_Color=6736896*
%FSLAX25Y25*%
%MOIN*%
G70*
G04*
G04 #@! TF.SameCoordinates,8808BF78-C309-42CA-8E72-27723A8412DA*
G04*
G04*
G04 #@! TF.FilePolarity,Positive*
G04*
G01*
G75*
%ADD60R,0.05906X0.05906*%
%ADD61O,0.08661X0.03937*%
%ADD62O,0.07087X0.03937*%
%ADD63C,0.01400*%
%ADD64C,0.01968*%
G36*
X140000D02*
X0D01*
Y12300D01*
X500Y12399D01*
X671Y11987D01*
X1147Y11367D01*
X1767Y10891D01*
X2489Y10592D01*
X3264Y10490D01*
X5126D01*
Y13484D01*
Y16478D01*
X3264D01*
X2489Y16376D01*
X1767Y16077D01*
X1147Y15601D01*
X671Y14981D01*
X500Y14569D01*
X0Y14669D01*
Y17284D01*
X20980Y17284D01*
X21286Y17410D01*
X21413Y17717D01*
Y53150D01*
X21286Y53456D01*
X20980Y53583D01*
X0Y53583D01*
Y56198D01*
X500Y56297D01*
X671Y55885D01*
X1147Y55265D01*
X1767Y54789D01*
X2489Y54490D01*
X3264Y54388D01*
X5126D01*
Y57382D01*
Y60376D01*
X3264D01*
X2489Y60274D01*
X1767Y59975D01*
X1147Y59499D01*
X671Y58879D01*
X500Y58467D01*
X0Y58566D01*
Y70000D01*
X140000D01*
Y0D01*
D02*
G37*
%LPC*%
G36*
X8953Y68953D02*
X5500D01*
Y65500D01*
X8953D01*
Y68953D01*
D02*
G37*
G36*
X4500D02*
X1047D01*
Y65500D01*
X4500D01*
Y68953D01*
D02*
G37*
G36*
X135441Y68353D02*
X134559D01*
X133706Y68124D01*
X132941Y67683D01*
X132317Y67059D01*
X131876Y66294D01*
X131647Y65441D01*
Y64559D01*
X131876Y63706D01*
X132317Y62941D01*
X132941Y62317D01*
X133706Y61876D01*
X134559Y61647D01*
X135441D01*
X136294Y61876D01*
X137059Y62317D01*
X137683Y62941D01*
X138124Y63706D01*
X138353Y64559D01*
Y65441D01*
X138124Y66294D01*
X137683Y67059D01*
X137059Y67683D01*
X136294Y68124D01*
X135441Y68353D01*
D02*
G37*
G36*
X125441D02*
X124559D01*
X123706Y68124D01*
X122941Y67683D01*
X122317Y67059D01*
X121876Y66294D01*
X121647Y65441D01*
Y64559D01*
X121876Y63706D01*
X122317Y62941D01*
X122941Y62317D01*
X123706Y61876D01*
X124559Y61647D01*
X125441D01*
X126294Y61876D01*
X127059Y62317D01*
X127683Y62941D01*
X128124Y63706D01*
X128353Y64559D01*
Y65441D01*
X128124Y66294D01*
X127683Y67059D01*
X127059Y67683D01*
X126294Y68124D01*
X125441Y68353D01*
D02*
G37*
G36*
X115441D02*
X114559D01*
X113706Y68124D01*
X112941Y67683D01*
X112317Y67059D01*
X111876Y66294D01*
X111647Y65441D01*
Y64559D01*
X111876Y63706D01*
X112317Y62941D01*
X112941Y62317D01*
X113706Y61876D01*
X114559Y61647D01*
X115441D01*
X116294Y61876D01*
X117059Y62317D01*
X117683Y62941D01*
X118124Y63706D01*
X118353Y64559D01*
Y65441D01*
X118124Y66294D01*
X117683Y67059D01*
X117059Y67683D01*
X116294Y68124D01*
X115441Y68353D01*
D02*
G37*
G36*
X105441D02*
X104559D01*
X103706Y68124D01*
X102941Y67683D01*
X102317Y67059D01*
X101876Y66294D01*
X101647Y65441D01*
Y64559D01*
X101876Y63706D01*
X102317Y62941D01*
X102941Y62317D01*
X103706Y61876D01*
X104559Y61647D01*
X105441D01*
X106294Y61876D01*
X107059Y62317D01*
X107683Y62941D01*
X108124Y63706D01*
X108353Y64559D01*
Y65441D01*
X108124Y66294D01*
X107683Y67059D01*
X107059Y67683D01*
X106294Y68124D01*
X105441Y68353D01*
D02*
G37*
G36*
X95441D02*
X94559D01*
X93706Y68124D01*
X92941Y67683D01*
X92317Y67059D01*
X91876Y66294D01*
X91647Y65441D01*
Y64559D01*
X91876Y63706D01*
X92317Y62941D01*
X92941Y62317D01*
X93706Y61876D01*
X94559Y61647D01*
X95441D01*
X96294Y61876D01*
X97059Y62317D01*
X97683Y62941D01*
X98124Y63706D01*
X98353Y64559D01*
Y65441D01*
X98124Y66294D01*
X97683Y67059D01*
X97059Y67683D01*
X96294Y68124D01*
X95441Y68353D01*
D02*
G37*
G36*
X85441D02*
X84559D01*
X83706Y68124D01*
X82941Y67683D01*
X82317Y67059D01*
X81876Y66294D01*
X81647Y65441D01*
Y64559D01*
X81876Y63706D01*
X82317Y62941D01*
X82941Y62317D01*
X83706Y61876D01*
X84559Y61647D01*
X85441D01*
X86294Y61876D01*
X87059Y62317D01*
X87683Y62941D01*
X88124Y63706D01*
X88353Y64559D01*
Y65441D01*
X88124Y66294D01*
X87683Y67059D01*
X87059Y67683D01*
X86294Y68124D01*
X85441Y68353D01*
D02*
G37*
G36*
X75441D02*
X74559D01*
X73706Y68124D01*
X72941Y67683D01*
X72317Y67059D01*
X71876Y66294D01*
X71647Y65441D01*
Y64559D01*
X71876Y63706D01*
X72317Y62941D01*
X72941Y62317D01*
X73706Y61876D01*
X74559Y61647D01*
X75441D01*
X76294Y61876D01*
X77059Y62317D01*
X77683Y62941D01*
X78124Y63706D01*
X78353Y64559D01*
Y65441D01*
X78124Y66294D01*
X77683Y67059D01*
X77059Y67683D01*
X76294Y68124D01*
X75441Y68353D01*
D02*
G37*
G36*
X65441D02*
X64559D01*
X63706Y68124D01*
X62941Y67683D01*
X62317Y67059D01*
X61876Y66294D01*
X61647Y65441D01*
Y64559D01*
X61876Y63706D01*
X62317Y62941D01*
X62941Y62317D01*
X63706Y61876D01*
X64559Y61647D01*
X65441D01*
X66294Y61876D01*
X67059Y62317D01*
X67683Y62941D01*
X68124Y63706D01*
X68353Y64559D01*
Y65441D01*
X68124Y66294D01*
X67683Y67059D01*
X67059Y67683D01*
X66294Y68124D01*
X65441Y68353D01*
D02*
G37*
G36*
X55441D02*
X54559D01*
X53706Y68124D01*
X52941Y67683D01*
X52317Y67059D01*
X51876Y66294D01*
X51647Y65441D01*
Y64559D01*
X51876Y63706D01*
X52317Y62941D01*
X52941Y62317D01*
X53706Y61876D01*
X54559Y61647D01*
X55441D01*
X56294Y61876D01*
X57059Y62317D01*
X57683Y62941D01*
X58124Y63706D01*
X58353Y64559D01*
Y65441D01*
X58124Y66294D01*
X57683Y67059D01*
X57059Y67683D01*
X56294Y68124D01*
X55441Y68353D01*
D02*
G37*
G36*
X45441D02*
X44559D01*
X43706Y68124D01*
X42941Y67683D01*
X42317Y67059D01*
X41876Y66294D01*
X41647Y65441D01*
Y64559D01*
X41876Y63706D01*
X42317Y62941D01*
X42941Y62317D01*
X43706Y61876D01*
X44559Y61647D01*
X45441D01*
X46294Y61876D01*
X47059Y62317D01*
X47683Y62941D01*
X48124Y63706D01*
X48353Y64559D01*
Y65441D01*
X48124Y66294D01*
X47683Y67059D01*
X47059Y67683D01*
X46294Y68124D01*
X45441Y68353D01*
D02*
G37*
G36*
X35441D02*
X34559D01*
X33706Y68124D01*
X32941Y67683D01*
X32317Y67059D01*
X31876Y66294D01*
X31647Y65441D01*
Y64559D01*
X31876Y63706D01*
X32317Y62941D01*
X32941Y62317D01*
X33706Y61876D01*
X34559Y61647D01*
X35441D01*
X36294Y61876D01*
X37059Y62317D01*
X37683Y62941D01*
X38124Y63706D01*
X38353Y64559D01*
Y65441D01*
X38124Y66294D01*
X37683Y67059D01*
X37059Y67683D01*
X36294Y68124D01*
X35441Y68353D01*
D02*
G37*
G36*
X25441D02*
X24559D01*
X23706Y68124D01*
X22941Y67683D01*
X22317Y67059D01*
X21876Y66294D01*
X21647Y65441D01*
Y64559D01*
X21876Y63706D01*
X22317Y62941D01*
X22941Y62317D01*
X23706Y61876D01*
X24559Y61647D01*
X25441D01*
X26294Y61876D01*
X27059Y62317D01*
X27683Y62941D01*
X28124Y63706D01*
X28353Y64559D01*
Y65441D01*
X28124Y66294D01*
X27683Y67059D01*
X27059Y67683D01*
X26294Y68124D01*
X25441Y68353D01*
D02*
G37*
G36*
X15441D02*
X14559D01*
X13706Y68124D01*
X12941Y67683D01*
X12317Y67059D01*
X11876Y66294D01*
X11647Y65441D01*
Y64559D01*
X11876Y63706D01*
X12317Y62941D01*
X12941Y62317D01*
X13706Y61876D01*
X14559Y61647D01*
X15441D01*
X16294Y61876D01*
X17059Y62317D01*
X17683Y62941D01*
X18124Y63706D01*
X18353Y64559D01*
Y65441D01*
X18124Y66294D01*
X17683Y67059D01*
X17059Y67683D01*
X16294Y68124D01*
X15441Y68353D01*
D02*
G37*
G36*
X8953Y64500D02*
X5500D01*
Y61047D01*
X8953D01*
Y64500D01*
D02*
G37*
G36*
X4500D02*
X1047D01*
Y61047D01*
X4500D01*
Y64500D01*
D02*
G37*
G36*
X22949Y60376D02*
X21874D01*
Y57882D01*
X25877D01*
X25841Y58157D01*
X25542Y58879D01*
X25066Y59499D01*
X24446Y59975D01*
X23724Y60274D01*
X22949Y60376D01*
D02*
G37*
G36*
X20874D02*
X19799D01*
X19024Y60274D01*
X18302Y59975D01*
X17682Y59499D01*
X17206Y58879D01*
X16907Y58157D01*
X16871Y57882D01*
X20874D01*
Y60376D01*
D02*
G37*
G36*
X7988D02*
X6126D01*
Y57882D01*
X10916D01*
X10880Y58157D01*
X10581Y58879D01*
X10105Y59499D01*
X9485Y59975D01*
X8763Y60274D01*
X7988Y60376D01*
D02*
G37*
G36*
X83719Y55100D02*
X83281D01*
X82877Y54932D01*
X82827Y54882D01*
X82500Y54668D01*
X82173Y54882D01*
X82123Y54932D01*
X81719Y55100D01*
X81281D01*
X80877Y54932D01*
X80568Y54623D01*
X80400Y54219D01*
Y53781D01*
X80568Y53377D01*
X80877Y53067D01*
X81281Y52900D01*
X81719D01*
X82123Y53067D01*
X82173Y53118D01*
X82500Y53333D01*
X82827Y53118D01*
X82877Y53067D01*
X83281Y52900D01*
X83719D01*
X84123Y53067D01*
X84433Y53377D01*
X84600Y53781D01*
Y54219D01*
X84433Y54623D01*
X84123Y54932D01*
X83719Y55100D01*
D02*
G37*
G36*
X25877Y56882D02*
X21874D01*
Y54388D01*
X22949D01*
X23724Y54490D01*
X24446Y54789D01*
X25066Y55265D01*
X25542Y55885D01*
X25841Y56607D01*
X25877Y56882D01*
D02*
G37*
G36*
X20874D02*
X16871D01*
X16907Y56607D01*
X17206Y55885D01*
X17682Y55265D01*
X18302Y54789D01*
X19024Y54490D01*
X19799Y54388D01*
X20874D01*
Y56882D01*
D02*
G37*
G36*
X10916D02*
X6126D01*
Y54388D01*
X7988D01*
X8763Y54490D01*
X9485Y54789D01*
X10105Y55265D01*
X10581Y55885D01*
X10880Y56607D01*
X10916Y56882D01*
D02*
G37*
G36*
X99719Y55100D02*
X99281D01*
X98877Y54932D01*
X98567Y54623D01*
X98400Y54219D01*
Y53781D01*
X98567Y53377D01*
X98877Y53067D01*
X99281Y52900D01*
X99719D01*
X100123Y53067D01*
X100433Y53377D01*
X100600Y53781D01*
Y54219D01*
X100433Y54623D01*
X100123Y54932D01*
X99719Y55100D01*
D02*
G37*
G36*
X125979Y54600D02*
X125541D01*
X125137Y54432D01*
X124827Y54123D01*
X124660Y53719D01*
Y53281D01*
X124827Y52877D01*
X125137Y52567D01*
X125541Y52400D01*
X125979D01*
X126383Y52567D01*
X126692Y52877D01*
X126860Y53281D01*
Y53719D01*
X126692Y54123D01*
X126383Y54432D01*
X125979Y54600D01*
D02*
G37*
G36*
X111219D02*
X110781D01*
X110377Y54432D01*
X110067Y54123D01*
X109900Y53719D01*
Y53281D01*
X110067Y52877D01*
X110377Y52567D01*
X110781Y52400D01*
X111219D01*
X111623Y52567D01*
X111933Y52877D01*
X112100Y53281D01*
Y53719D01*
X111933Y54123D01*
X111623Y54432D01*
X111219Y54600D01*
D02*
G37*
G36*
X132719Y54100D02*
X132281D01*
X131877Y53932D01*
X131568Y53623D01*
X131400Y53219D01*
Y52781D01*
X131568Y52377D01*
X131877Y52068D01*
X132281Y51900D01*
X132719D01*
X133123Y52068D01*
X133432Y52377D01*
X133600Y52781D01*
Y53219D01*
X133432Y53623D01*
X133123Y53932D01*
X132719Y54100D01*
D02*
G37*
G36*
X62219Y47600D02*
X61781D01*
X61377Y47433D01*
X61250Y47306D01*
X61123Y47433D01*
X60719Y47600D01*
X60281D01*
X59877Y47433D01*
X59567Y47123D01*
X59400Y46719D01*
Y46281D01*
X59567Y45877D01*
X59877Y45568D01*
X60281Y45400D01*
X60719D01*
X61123Y45568D01*
X61250Y45694D01*
X61377Y45568D01*
X61781Y45400D01*
X62219D01*
X62623Y45568D01*
X62932Y45877D01*
X63100Y46281D01*
Y46719D01*
X62932Y47123D01*
X62623Y47433D01*
X62219Y47600D01*
D02*
G37*
G36*
X77343Y47100D02*
X76906D01*
X76501Y46933D01*
X76192Y46623D01*
X76024Y46219D01*
Y45781D01*
X76192Y45377D01*
X76501Y45068D01*
X76906Y44900D01*
X77343D01*
X77747Y45068D01*
X78057Y45377D01*
X78224Y45781D01*
Y46219D01*
X78057Y46623D01*
X77747Y46933D01*
X77343Y47100D01*
D02*
G37*
G36*
X51719D02*
X51281D01*
X50877Y46933D01*
X50568Y46623D01*
X50400Y46219D01*
Y45781D01*
X50568Y45377D01*
X50877Y45068D01*
X51281Y44900D01*
X51719D01*
X52123Y45068D01*
X52433Y45377D01*
X52600Y45781D01*
Y46219D01*
X52433Y46623D01*
X52123Y46933D01*
X51719Y47100D01*
D02*
G37*
G36*
X98219Y45100D02*
X97781D01*
X97377Y44932D01*
X97327Y44882D01*
X97000Y44668D01*
X96673Y44882D01*
X96623Y44932D01*
X96219Y45100D01*
X95781D01*
X95377Y44932D01*
X95327Y44882D01*
X95000Y44668D01*
X94673Y44882D01*
X94623Y44932D01*
X94219Y45100D01*
X93781D01*
X93377Y44932D01*
X93068Y44623D01*
X92900Y44219D01*
Y43781D01*
X93068Y43377D01*
X93377Y43067D01*
X93781Y42900D01*
X94219D01*
X94623Y43067D01*
X94673Y43118D01*
X95000Y43332D01*
X95327Y43118D01*
X95377Y43067D01*
X95781Y42900D01*
X96219D01*
X96623Y43067D01*
X96673Y43118D01*
X97000Y43332D01*
X97327Y43118D01*
X97377Y43067D01*
X97781Y42900D01*
X98219D01*
X98623Y43067D01*
X98932Y43377D01*
X99100Y43781D01*
Y44219D01*
X98932Y44623D01*
X98623Y44932D01*
X98219Y45100D01*
D02*
G37*
G36*
X30619Y46100D02*
X30181D01*
X29777Y45932D01*
X29467Y45623D01*
X29300Y45219D01*
Y44781D01*
X29467Y44377D01*
X29777Y44067D01*
X30181Y43900D01*
X30619D01*
X31023Y44067D01*
X31332Y44377D01*
X31500Y44781D01*
Y45219D01*
X31332Y45623D01*
X31023Y45932D01*
X30619Y46100D01*
D02*
G37*
G36*
X85219Y45600D02*
X84781D01*
X84377Y45432D01*
X84067Y45123D01*
X83900Y44719D01*
Y44281D01*
X84067Y43877D01*
X84377Y43567D01*
X84781Y43400D01*
X85219D01*
X85623Y43567D01*
X85932Y43877D01*
X86100Y44281D01*
Y44719D01*
X85932Y45123D01*
X85623Y45432D01*
X85219Y45600D01*
D02*
G37*
G36*
X101719Y47100D02*
X101281D01*
X100877Y46933D01*
X100567Y46623D01*
X100400Y46219D01*
Y45781D01*
X100567Y45377D01*
X100868Y45077D01*
X100877Y45068D01*
X100968Y44524D01*
X100801Y44120D01*
Y43682D01*
X100968Y43278D01*
X101278Y42968D01*
X101682Y42801D01*
X102120D01*
X102524Y42968D01*
X102833Y43278D01*
X103001Y43682D01*
Y44120D01*
X102833Y44524D01*
X102533Y44824D01*
X102524Y44833D01*
X102433Y45377D01*
X102600Y45781D01*
Y46219D01*
X102433Y46623D01*
X102123Y46933D01*
X101719Y47100D01*
D02*
G37*
G36*
X31319Y43300D02*
X30881D01*
X30477Y43132D01*
X30167Y42823D01*
X30121Y42710D01*
X29579D01*
X29533Y42823D01*
X29223Y43132D01*
X28819Y43300D01*
X28381D01*
X27977Y43132D01*
X27667Y42823D01*
X27500Y42419D01*
Y41981D01*
X27667Y41577D01*
X27977Y41267D01*
X28381Y41100D01*
X28819D01*
X29223Y41267D01*
X29533Y41577D01*
X29579Y41690D01*
X30121D01*
X30167Y41577D01*
X30477Y41267D01*
X30881Y41100D01*
X31319D01*
X31723Y41267D01*
X32032Y41577D01*
X32200Y41981D01*
Y42419D01*
X32032Y42823D01*
X31723Y43132D01*
X31319Y43300D01*
D02*
G37*
G36*
X43219Y44600D02*
X42781D01*
X42377Y44433D01*
X42068Y44123D01*
X41900Y43719D01*
Y43281D01*
X42068Y42877D01*
X42377Y42568D01*
X42781Y42400D01*
X42938D01*
X43270Y42270D01*
X43400Y41938D01*
Y41781D01*
X43567Y41377D01*
X43877Y41067D01*
X44281Y40900D01*
X44719D01*
X45123Y41067D01*
X45432Y41377D01*
X45600Y41781D01*
Y42219D01*
X45432Y42623D01*
X45123Y42933D01*
X44719Y43100D01*
X44562D01*
X44230Y43230D01*
X44100Y43562D01*
Y43719D01*
X43933Y44123D01*
X43623Y44433D01*
X43219Y44600D01*
D02*
G37*
G36*
X40719Y42600D02*
X40281D01*
X39877Y42432D01*
X39568Y42123D01*
X39400Y41719D01*
Y41281D01*
X39568Y40877D01*
X39877Y40567D01*
X40281Y40400D01*
X40438D01*
X40770Y40270D01*
X40900Y39938D01*
Y39781D01*
X41067Y39377D01*
X41377Y39068D01*
X41781Y38900D01*
X42219D01*
X42623Y39068D01*
X42933Y39377D01*
X43100Y39781D01*
Y40219D01*
X42933Y40623D01*
X42623Y40933D01*
X42219Y41100D01*
X42062D01*
X41730Y41230D01*
X41600Y41562D01*
Y41719D01*
X41432Y42123D01*
X41123Y42432D01*
X40719Y42600D01*
D02*
G37*
G36*
X121084Y41065D02*
X120646D01*
X120242Y40897D01*
X119932Y40588D01*
X119765Y40184D01*
Y39746D01*
X119932Y39342D01*
X120242Y39032D01*
X120646Y38865D01*
X121084D01*
X121488Y39032D01*
X121797Y39342D01*
X121965Y39746D01*
Y40184D01*
X121797Y40588D01*
X121488Y40897D01*
X121084Y41065D01*
D02*
G37*
G36*
X92719Y39100D02*
X92281D01*
X91877Y38932D01*
X91567Y38623D01*
X91400Y38219D01*
Y37781D01*
X91567Y37377D01*
X91877Y37067D01*
X92281Y36900D01*
X92719D01*
X93123Y37067D01*
X93432Y37377D01*
X93600Y37781D01*
Y38219D01*
X93432Y38623D01*
X93123Y38932D01*
X92719Y39100D01*
D02*
G37*
G36*
X126319Y36800D02*
X125881D01*
X125477Y36632D01*
X125168Y36323D01*
X125000Y35919D01*
Y35481D01*
X125168Y35077D01*
X125477Y34767D01*
X125881Y34600D01*
X126319D01*
X126723Y34767D01*
X127032Y35077D01*
X127200Y35481D01*
Y35919D01*
X127032Y36323D01*
X126723Y36632D01*
X126319Y36800D01*
D02*
G37*
G36*
X103130Y37638D02*
X102693D01*
X102289Y37470D01*
X101979Y37161D01*
X101812Y36757D01*
Y36319D01*
X101979Y35915D01*
X102289Y35605D01*
X102480Y35526D01*
X102701Y35349D01*
X102737Y34938D01*
X102688Y34821D01*
Y34383D01*
X102856Y33979D01*
X103165Y33669D01*
X103569Y33502D01*
X104007D01*
X104411Y33669D01*
X104721Y33979D01*
X104888Y34383D01*
Y34821D01*
X104721Y35225D01*
X104411Y35534D01*
X104220Y35614D01*
X103999Y35790D01*
X103963Y36202D01*
X104012Y36319D01*
Y36757D01*
X103844Y37161D01*
X103535Y37470D01*
X103130Y37638D01*
D02*
G37*
G36*
X30589Y38900D02*
X30152D01*
X29747Y38732D01*
X29438Y38423D01*
X29270Y38019D01*
Y37581D01*
X28841Y37312D01*
X28713Y37260D01*
X28403Y36950D01*
X28236Y36546D01*
Y36108D01*
X28403Y35704D01*
X28713Y35394D01*
X29117Y35227D01*
X29555D01*
X29572Y35234D01*
X29955Y34852D01*
X29900Y34719D01*
Y34281D01*
X30068Y33877D01*
X30377Y33568D01*
X30781Y33400D01*
X31219D01*
X31623Y33568D01*
X31933Y33877D01*
X32100Y34281D01*
Y34719D01*
X31933Y35123D01*
X31623Y35432D01*
X31219Y35600D01*
X30781D01*
X30764Y35593D01*
X30381Y35975D01*
X30436Y36108D01*
Y36546D01*
X30866Y36815D01*
X30994Y36867D01*
X31303Y37177D01*
X31470Y37581D01*
Y38019D01*
X31303Y38423D01*
X30994Y38732D01*
X30589Y38900D01*
D02*
G37*
G36*
X39219Y37250D02*
X38781D01*
X38377Y37082D01*
X38067Y36773D01*
X37900Y36369D01*
Y35931D01*
X38067Y35527D01*
X38344Y35250D01*
X38067Y34973D01*
X37900Y34569D01*
Y34131D01*
X38067Y33727D01*
X38377Y33417D01*
X38781Y33250D01*
X39219D01*
X39623Y33417D01*
X39933Y33727D01*
X40100Y34131D01*
Y34569D01*
X39933Y34973D01*
X39656Y35250D01*
X39933Y35527D01*
X40100Y35931D01*
Y36369D01*
X39933Y36773D01*
X39623Y37082D01*
X39219Y37250D01*
D02*
G37*
G36*
X61232Y34600D02*
X60794D01*
X60390Y34433D01*
X60080Y34123D01*
X59913Y33719D01*
Y33281D01*
X60080Y32877D01*
X60390Y32568D01*
X60794Y32400D01*
X61232D01*
X61636Y32568D01*
X61945Y32877D01*
X62113Y33281D01*
Y33719D01*
X61945Y34123D01*
X61636Y34433D01*
X61232Y34600D01*
D02*
G37*
G36*
X74920Y33956D02*
X74482D01*
X74078Y33789D01*
X73769Y33479D01*
X73601Y33075D01*
Y32637D01*
X73769Y32233D01*
X74078Y31924D01*
X74482Y31756D01*
X74920D01*
X75324Y31924D01*
X75634Y32233D01*
X75801Y32637D01*
Y33075D01*
X75634Y33479D01*
X75324Y33789D01*
X74920Y33956D01*
D02*
G37*
G36*
X28719Y33600D02*
X28281D01*
X27877Y33432D01*
X27567Y33123D01*
X27400Y32719D01*
Y32281D01*
X27567Y31877D01*
X27877Y31567D01*
X28281Y31400D01*
X28719D01*
X29123Y31567D01*
X29432Y31877D01*
X29600Y32281D01*
Y32719D01*
X29432Y33123D01*
X29123Y33432D01*
X28719Y33600D01*
D02*
G37*
G36*
X111719Y31100D02*
X111281D01*
X110877Y30933D01*
X110567Y30623D01*
X110400Y30219D01*
Y29781D01*
X110567Y29377D01*
X110877Y29068D01*
X111281Y28900D01*
X111719D01*
X112123Y29068D01*
X112433Y29377D01*
X112600Y29781D01*
Y30219D01*
X112433Y30623D01*
X112123Y30933D01*
X111719Y31100D01*
D02*
G37*
G36*
X61219D02*
X60781D01*
X60377Y30933D01*
X60067Y30623D01*
X59900Y30219D01*
Y29781D01*
X60067Y29377D01*
X60377Y29068D01*
X60781Y28900D01*
X61219D01*
X61623Y29068D01*
X61932Y29377D01*
X62100Y29781D01*
Y30219D01*
X61932Y30623D01*
X61623Y30933D01*
X61219Y31100D01*
D02*
G37*
G36*
X77719Y30100D02*
X77281D01*
X76877Y29932D01*
X76568Y29623D01*
X76400Y29219D01*
Y28859D01*
X76400Y28781D01*
X75945Y28612D01*
X75933Y28623D01*
X75896Y28660D01*
X75623Y28932D01*
X75219Y29100D01*
X74781D01*
X74377Y28932D01*
X74067Y28623D01*
X73900Y28219D01*
Y27781D01*
X74067Y27377D01*
X74377Y27068D01*
X74781Y26900D01*
X75219D01*
X75623Y27068D01*
X75933Y27377D01*
X76100Y27781D01*
Y28141D01*
X76100Y28219D01*
X76556Y28388D01*
X76568Y28377D01*
X76604Y28340D01*
X76877Y28067D01*
X77281Y27900D01*
X77719D01*
X78123Y28067D01*
X78433Y28377D01*
X78600Y28781D01*
Y29219D01*
X78433Y29623D01*
X78123Y29932D01*
X77719Y30100D01*
D02*
G37*
G36*
X121719Y32100D02*
X121281D01*
X120877Y31933D01*
X120568Y31623D01*
X120400Y31219D01*
Y30781D01*
X120568Y30377D01*
X120877Y30068D01*
X120990Y30021D01*
Y29479D01*
X120877Y29432D01*
X120568Y29123D01*
X120400Y28719D01*
Y28281D01*
X120568Y27877D01*
X120877Y27567D01*
X121281Y27400D01*
X121719D01*
X122123Y27567D01*
X122432Y27877D01*
X122600Y28281D01*
Y28719D01*
X122432Y29123D01*
X122123Y29432D01*
X122010Y29479D01*
Y30021D01*
X122123Y30068D01*
X122432Y30377D01*
X122600Y30781D01*
Y31219D01*
X122432Y31623D01*
X122123Y31933D01*
X121719Y32100D01*
D02*
G37*
G36*
X85219Y33600D02*
X84781D01*
X84377Y33432D01*
X84067Y33123D01*
X83900Y32719D01*
Y32281D01*
X84067Y31877D01*
X84118Y31827D01*
X84333Y31500D01*
X84118Y31173D01*
X84067Y31123D01*
X83900Y30719D01*
Y30281D01*
X84067Y29877D01*
X84118Y29827D01*
X84333Y29500D01*
X84118Y29173D01*
X84067Y29123D01*
X83900Y28719D01*
Y28281D01*
X84067Y27877D01*
X84377Y27567D01*
X84781Y27400D01*
X85219D01*
X85623Y27567D01*
X85932Y27877D01*
X86100Y28281D01*
Y28719D01*
X85932Y29123D01*
X85882Y29173D01*
X85668Y29500D01*
X85882Y29827D01*
X85932Y29877D01*
X86100Y30281D01*
Y30719D01*
X85932Y31123D01*
X85882Y31173D01*
X85668Y31500D01*
X85882Y31827D01*
X85932Y31877D01*
X86100Y32281D01*
Y32719D01*
X85932Y33123D01*
X85623Y33432D01*
X85219Y33600D01*
D02*
G37*
G36*
X61219Y27600D02*
X60781D01*
X60377Y27433D01*
X60067Y27123D01*
X59900Y26719D01*
Y26281D01*
X60067Y25877D01*
X60377Y25567D01*
X60781Y25400D01*
X61219D01*
X61623Y25567D01*
X61932Y25877D01*
X62100Y26281D01*
Y26719D01*
X61932Y27123D01*
X61623Y27433D01*
X61219Y27600D01*
D02*
G37*
G36*
X33419Y28800D02*
X32981D01*
X32577Y28633D01*
X32267Y28323D01*
X32100Y27919D01*
Y27821D01*
X31919Y27700D01*
X31481D01*
X31077Y27533D01*
X30768Y27223D01*
X30600Y26819D01*
Y26381D01*
X30768Y25977D01*
X31077Y25668D01*
X31481Y25500D01*
X31919D01*
X32100Y25379D01*
Y25281D01*
X32267Y24877D01*
X32577Y24567D01*
X32981Y24400D01*
X33419D01*
X33823Y24567D01*
X34133Y24877D01*
X34300Y25281D01*
Y25719D01*
X34133Y26123D01*
X33969Y26287D01*
X33874Y26600D01*
X33969Y26913D01*
X34133Y27077D01*
X34300Y27481D01*
Y27919D01*
X34133Y28323D01*
X33823Y28633D01*
X33419Y28800D01*
D02*
G37*
G36*
X110719Y26100D02*
X110281D01*
X109877Y25932D01*
X109567Y25623D01*
X109400Y25219D01*
Y24781D01*
X109567Y24377D01*
X109877Y24068D01*
X110281Y23900D01*
X110719D01*
X111123Y24068D01*
X111433Y24377D01*
X111600Y24781D01*
Y25219D01*
X111433Y25623D01*
X111123Y25932D01*
X110719Y26100D01*
D02*
G37*
G36*
X84184Y24752D02*
X83746D01*
X83342Y24584D01*
X83033Y24275D01*
X82865Y23870D01*
Y23433D01*
X83033Y23029D01*
X83342Y22719D01*
X83746Y22552D01*
X84184D01*
X84588Y22719D01*
X84898Y23029D01*
X85065Y23433D01*
Y23870D01*
X84898Y24275D01*
X84588Y24584D01*
X84184Y24752D01*
D02*
G37*
G36*
X120719Y24600D02*
X120281D01*
X119877Y24432D01*
X119568Y24123D01*
X119400Y23719D01*
Y23281D01*
X119568Y22877D01*
X119877Y22568D01*
X120281Y22400D01*
X120719D01*
X121123Y22568D01*
X121432Y22877D01*
X121600Y23281D01*
Y23719D01*
X121432Y24123D01*
X121123Y24432D01*
X120719Y24600D01*
D02*
G37*
G36*
X40819Y21000D02*
X40381D01*
X39977Y20832D01*
X39667Y20523D01*
X39500Y20119D01*
Y19681D01*
X39667Y19277D01*
X39977Y18968D01*
X40381Y18800D01*
X40819D01*
X41223Y18968D01*
X41532Y19277D01*
X41700Y19681D01*
Y20119D01*
X41532Y20523D01*
X41223Y20832D01*
X40819Y21000D01*
D02*
G37*
G36*
X100777Y18158D02*
X100339D01*
X99935Y17991D01*
X99827Y17882D01*
X99563Y17709D01*
X99173Y17882D01*
X99123Y17932D01*
X98719Y18100D01*
X98281D01*
X97877Y17932D01*
X97567Y17623D01*
X97400Y17219D01*
Y16781D01*
X97567Y16377D01*
X97877Y16068D01*
X98281Y15900D01*
X98719D01*
X99123Y16068D01*
X99232Y16176D01*
X99495Y16349D01*
X99885Y16176D01*
X99935Y16126D01*
X100339Y15958D01*
X100777D01*
X101181Y16126D01*
X101491Y16435D01*
X101658Y16839D01*
Y17277D01*
X101491Y17681D01*
X101181Y17991D01*
X100777Y18158D01*
D02*
G37*
G36*
X104719Y20651D02*
X104281D01*
X103877Y20483D01*
X103568Y20174D01*
X103400Y19769D01*
Y19332D01*
X103496Y19100D01*
X103311Y18669D01*
X103215Y18573D01*
X102877Y18432D01*
X102568Y18123D01*
X102400Y17719D01*
Y17281D01*
X102568Y16877D01*
X102877Y16567D01*
X103281Y16400D01*
X103719D01*
X104123Y16567D01*
X104197Y16642D01*
X104656Y16839D01*
X105061Y16671D01*
X105498D01*
X105903Y16839D01*
X106212Y17148D01*
X106379Y17552D01*
Y17990D01*
X106212Y18394D01*
X105903Y18704D01*
X105849Y18726D01*
X105503Y18893D01*
X105599Y19329D01*
X105600Y19332D01*
Y19769D01*
X105432Y20174D01*
X105123Y20483D01*
X104719Y20651D01*
D02*
G37*
G36*
X78219Y19100D02*
X77781D01*
X77377Y18933D01*
X77068Y18623D01*
X76900Y18219D01*
Y17781D01*
X77068Y17377D01*
X77377Y17067D01*
X77781Y16900D01*
X78141D01*
X78219Y16900D01*
X78388Y16444D01*
X78377Y16432D01*
X78340Y16396D01*
X78067Y16123D01*
X77900Y15719D01*
Y15281D01*
X78067Y14877D01*
X78377Y14568D01*
X78781Y14400D01*
X79219D01*
X79623Y14568D01*
X79932Y14877D01*
X80100Y15281D01*
Y15719D01*
X79932Y16123D01*
X79623Y16432D01*
X79219Y16600D01*
X78859D01*
X78781Y16600D01*
X78612Y17055D01*
X78623Y17067D01*
X78660Y17104D01*
X78932Y17377D01*
X79100Y17781D01*
Y18219D01*
X78932Y18623D01*
X78623Y18933D01*
X78219Y19100D01*
D02*
G37*
G36*
X22949Y16478D02*
X21874D01*
Y13984D01*
X25877D01*
X25841Y14259D01*
X25542Y14981D01*
X25066Y15601D01*
X24446Y16077D01*
X23724Y16376D01*
X22949Y16478D01*
D02*
G37*
G36*
X20874D02*
X19799D01*
X19024Y16376D01*
X18302Y16077D01*
X17682Y15601D01*
X17206Y14981D01*
X16907Y14259D01*
X16871Y13984D01*
X20874D01*
Y16478D01*
D02*
G37*
G36*
X7988D02*
X6126D01*
Y13984D01*
X10916D01*
X10880Y14259D01*
X10581Y14981D01*
X10105Y15601D01*
X9485Y16077D01*
X8763Y16376D01*
X7988Y16478D01*
D02*
G37*
G36*
X115719Y14200D02*
X115281D01*
X114877Y14032D01*
X114567Y13723D01*
X114400Y13319D01*
Y12881D01*
X114567Y12477D01*
X114877Y12167D01*
X115281Y12000D01*
X115719D01*
X116123Y12167D01*
X116432Y12477D01*
X116600Y12881D01*
Y13319D01*
X116432Y13723D01*
X116123Y14032D01*
X115719Y14200D01*
D02*
G37*
G36*
X40819Y14100D02*
X40381D01*
X39977Y13932D01*
X39667Y13623D01*
X39500Y13219D01*
Y12781D01*
X39667Y12377D01*
X39977Y12067D01*
X40381Y11900D01*
X40819D01*
X41223Y12067D01*
X41532Y12377D01*
X41700Y12781D01*
Y13219D01*
X41532Y13623D01*
X41223Y13932D01*
X40819Y14100D01*
D02*
G37*
G36*
X25877Y12984D02*
X21874D01*
Y10490D01*
X22949D01*
X23724Y10592D01*
X24446Y10891D01*
X25066Y11367D01*
X25542Y11987D01*
X25841Y12709D01*
X25877Y12984D01*
D02*
G37*
G36*
X20874D02*
X16871D01*
X16907Y12709D01*
X17206Y11987D01*
X17682Y11367D01*
X18302Y10891D01*
X19024Y10592D01*
X19799Y10490D01*
X20874D01*
Y12984D01*
D02*
G37*
G36*
X10916D02*
X6126D01*
Y10490D01*
X7988D01*
X8763Y10592D01*
X9485Y10891D01*
X10105Y11367D01*
X10581Y11987D01*
X10880Y12709D01*
X10916Y12984D01*
D02*
G37*
G36*
X92219Y11600D02*
X91781D01*
X91377Y11433D01*
X91067Y11123D01*
X90900Y10719D01*
Y10281D01*
X91067Y9877D01*
X91377Y9567D01*
X91781Y9400D01*
X92219D01*
X92623Y9567D01*
X92932Y9877D01*
X93100Y10281D01*
Y10719D01*
X92932Y11123D01*
X92623Y11433D01*
X92219Y11600D01*
D02*
G37*
G36*
X8953Y8953D02*
X5500D01*
Y5500D01*
X8953D01*
Y8953D01*
D02*
G37*
G36*
X4500D02*
X1047D01*
Y5500D01*
X4500D01*
Y8953D01*
D02*
G37*
G36*
X135441Y8353D02*
X134559D01*
X133706Y8124D01*
X132941Y7683D01*
X132317Y7059D01*
X131876Y6294D01*
X131647Y5441D01*
Y4559D01*
X131876Y3706D01*
X132317Y2941D01*
X132941Y2317D01*
X133706Y1876D01*
X134559Y1647D01*
X135441D01*
X136294Y1876D01*
X137059Y2317D01*
X137683Y2941D01*
X138124Y3706D01*
X138353Y4559D01*
Y5441D01*
X138124Y6294D01*
X137683Y7059D01*
X137059Y7683D01*
X136294Y8124D01*
X135441Y8353D01*
D02*
G37*
G36*
X125441D02*
X124559D01*
X123706Y8124D01*
X122941Y7683D01*
X122317Y7059D01*
X121876Y6294D01*
X121647Y5441D01*
Y4559D01*
X121876Y3706D01*
X122317Y2941D01*
X122941Y2317D01*
X123706Y1876D01*
X124559Y1647D01*
X125441D01*
X126294Y1876D01*
X127059Y2317D01*
X127683Y2941D01*
X128124Y3706D01*
X128353Y4559D01*
Y5441D01*
X128124Y6294D01*
X127683Y7059D01*
X127059Y7683D01*
X126294Y8124D01*
X125441Y8353D01*
D02*
G37*
G36*
X115441D02*
X114559D01*
X113706Y8124D01*
X112941Y7683D01*
X112317Y7059D01*
X111876Y6294D01*
X111647Y5441D01*
Y4559D01*
X111876Y3706D01*
X112317Y2941D01*
X112941Y2317D01*
X113706Y1876D01*
X114559Y1647D01*
X115441D01*
X116294Y1876D01*
X117059Y2317D01*
X117683Y2941D01*
X118124Y3706D01*
X118353Y4559D01*
Y5441D01*
X118124Y6294D01*
X117683Y7059D01*
X117059Y7683D01*
X116294Y8124D01*
X115441Y8353D01*
D02*
G37*
G36*
X105441D02*
X104559D01*
X103706Y8124D01*
X102941Y7683D01*
X102317Y7059D01*
X101876Y6294D01*
X101647Y5441D01*
Y4559D01*
X101876Y3706D01*
X102317Y2941D01*
X102941Y2317D01*
X103706Y1876D01*
X104559Y1647D01*
X105441D01*
X106294Y1876D01*
X107059Y2317D01*
X107683Y2941D01*
X108124Y3706D01*
X108353Y4559D01*
Y5441D01*
X108124Y6294D01*
X107683Y7059D01*
X107059Y7683D01*
X106294Y8124D01*
X105441Y8353D01*
D02*
G37*
G36*
X95441D02*
X94559D01*
X93706Y8124D01*
X92941Y7683D01*
X92317Y7059D01*
X91876Y6294D01*
X91647Y5441D01*
Y4559D01*
X91876Y3706D01*
X92317Y2941D01*
X92941Y2317D01*
X93706Y1876D01*
X94559Y1647D01*
X95441D01*
X96294Y1876D01*
X97059Y2317D01*
X97683Y2941D01*
X98124Y3706D01*
X98353Y4559D01*
Y5441D01*
X98124Y6294D01*
X97683Y7059D01*
X97059Y7683D01*
X96294Y8124D01*
X95441Y8353D01*
D02*
G37*
G36*
X85441D02*
X84559D01*
X83706Y8124D01*
X82941Y7683D01*
X82317Y7059D01*
X81876Y6294D01*
X81647Y5441D01*
Y4559D01*
X81876Y3706D01*
X82317Y2941D01*
X82941Y2317D01*
X83706Y1876D01*
X84559Y1647D01*
X85441D01*
X86294Y1876D01*
X87059Y2317D01*
X87683Y2941D01*
X88124Y3706D01*
X88353Y4559D01*
Y5441D01*
X88124Y6294D01*
X87683Y7059D01*
X87059Y7683D01*
X86294Y8124D01*
X85441Y8353D01*
D02*
G37*
G36*
X75441D02*
X74559D01*
X73706Y8124D01*
X72941Y7683D01*
X72317Y7059D01*
X71876Y6294D01*
X71647Y5441D01*
Y4559D01*
X71876Y3706D01*
X72317Y2941D01*
X72941Y2317D01*
X73706Y1876D01*
X74559Y1647D01*
X75441D01*
X76294Y1876D01*
X77059Y2317D01*
X77683Y2941D01*
X78124Y3706D01*
X78353Y4559D01*
Y5441D01*
X78124Y6294D01*
X77683Y7059D01*
X77059Y7683D01*
X76294Y8124D01*
X75441Y8353D01*
D02*
G37*
G36*
X65441D02*
X64559D01*
X63706Y8124D01*
X62941Y7683D01*
X62317Y7059D01*
X61876Y6294D01*
X61647Y5441D01*
Y4559D01*
X61876Y3706D01*
X62317Y2941D01*
X62941Y2317D01*
X63706Y1876D01*
X64559Y1647D01*
X65441D01*
X66294Y1876D01*
X67059Y2317D01*
X67683Y2941D01*
X68124Y3706D01*
X68353Y4559D01*
Y5441D01*
X68124Y6294D01*
X67683Y7059D01*
X67059Y7683D01*
X66294Y8124D01*
X65441Y8353D01*
D02*
G37*
G36*
X55441D02*
X54559D01*
X53706Y8124D01*
X52941Y7683D01*
X52317Y7059D01*
X51876Y6294D01*
X51647Y5441D01*
Y4559D01*
X51876Y3706D01*
X52317Y2941D01*
X52941Y2317D01*
X53706Y1876D01*
X54559Y1647D01*
X55441D01*
X56294Y1876D01*
X57059Y2317D01*
X57683Y2941D01*
X58124Y3706D01*
X58353Y4559D01*
Y5441D01*
X58124Y6294D01*
X57683Y7059D01*
X57059Y7683D01*
X56294Y8124D01*
X55441Y8353D01*
D02*
G37*
G36*
X45441D02*
X44559D01*
X43706Y8124D01*
X42941Y7683D01*
X42317Y7059D01*
X41876Y6294D01*
X41647Y5441D01*
Y4559D01*
X41876Y3706D01*
X42317Y2941D01*
X42941Y2317D01*
X43706Y1876D01*
X44559Y1647D01*
X45441D01*
X46294Y1876D01*
X47059Y2317D01*
X47683Y2941D01*
X48124Y3706D01*
X48353Y4559D01*
Y5441D01*
X48124Y6294D01*
X47683Y7059D01*
X47059Y7683D01*
X46294Y8124D01*
X45441Y8353D01*
D02*
G37*
G36*
X35441D02*
X34559D01*
X33706Y8124D01*
X32941Y7683D01*
X32317Y7059D01*
X31876Y6294D01*
X31647Y5441D01*
Y4559D01*
X31876Y3706D01*
X32317Y2941D01*
X32941Y2317D01*
X33706Y1876D01*
X34559Y1647D01*
X35441D01*
X36294Y1876D01*
X37059Y2317D01*
X37683Y2941D01*
X38124Y3706D01*
X38353Y4559D01*
Y5441D01*
X38124Y6294D01*
X37683Y7059D01*
X37059Y7683D01*
X36294Y8124D01*
X35441Y8353D01*
D02*
G37*
G36*
X25441D02*
X24559D01*
X23706Y8124D01*
X22941Y7683D01*
X22317Y7059D01*
X21876Y6294D01*
X21647Y5441D01*
Y4559D01*
X21876Y3706D01*
X22317Y2941D01*
X22941Y2317D01*
X23706Y1876D01*
X24559Y1647D01*
X25441D01*
X26294Y1876D01*
X27059Y2317D01*
X27683Y2941D01*
X28124Y3706D01*
X28353Y4559D01*
Y5441D01*
X28124Y6294D01*
X27683Y7059D01*
X27059Y7683D01*
X26294Y8124D01*
X25441Y8353D01*
D02*
G37*
G36*
X15441D02*
X14559D01*
X13706Y8124D01*
X12941Y7683D01*
X12317Y7059D01*
X11876Y6294D01*
X11647Y5441D01*
Y4559D01*
X11876Y3706D01*
X12317Y2941D01*
X12941Y2317D01*
X13706Y1876D01*
X14559Y1647D01*
X15441D01*
X16294Y1876D01*
X17059Y2317D01*
X17683Y2941D01*
X18124Y3706D01*
X18353Y4559D01*
Y5441D01*
X18124Y6294D01*
X17683Y7059D01*
X17059Y7683D01*
X16294Y8124D01*
X15441Y8353D01*
D02*
G37*
G36*
X8953Y4500D02*
X5500D01*
Y1047D01*
X8953D01*
Y4500D01*
D02*
G37*
G36*
X4500D02*
X1047D01*
Y1047D01*
X4500D01*
Y4500D01*
D02*
G37*
%LPD*%
D60*
X5000Y5000D02*
D03*
Y65000D02*
D03*
D61*
X5626Y13484D02*
D03*
Y57382D02*
D03*
D62*
X21374Y13484D02*
D03*
Y57382D02*
D03*
D63*
X101770Y53521D02*
D03*
X59993Y21507D02*
D03*
X64500Y33000D02*
D03*
X44500Y56500D02*
D03*
X136000Y19500D02*
D03*
X74500Y18000D02*
D03*
X69500Y12000D02*
D03*
X69353Y18146D02*
D03*
X53500Y38000D02*
D03*
X62000Y38500D02*
D03*
X60000Y41500D02*
D03*
X69000Y42000D02*
D03*
Y46000D02*
D03*
Y49500D02*
D03*
X89000Y55000D02*
D03*
X104000Y53500D02*
D03*
X121000Y55500D02*
D03*
X115500Y15400D02*
D03*
X30200Y47566D02*
D03*
Y49066D02*
D03*
Y50566D02*
D03*
Y20300D02*
D03*
Y21800D02*
D03*
Y23300D02*
D03*
X38500Y40500D02*
D03*
Y30000D02*
D03*
D64*
X88318Y34083D02*
D03*
X92649D02*
D03*
X96979D02*
D03*
X101310D02*
D03*
X88318Y29752D02*
D03*
X92649D02*
D03*
X96979D02*
D03*
X101310D02*
D03*
X88318Y25421D02*
D03*
X92649D02*
D03*
X96979D02*
D03*
X101310D02*
D03*
X88318Y21091D02*
D03*
X92649D02*
D03*
X96979D02*
D03*
X101310D02*
D03*
M02*
