M48
;Layer_Color=9474304
;FILE_FORMAT=2:5
INCH,LZ
;TYPE=PLATED
T1F00S00C0.00800
T2F00S00C0.00984
T4F00S00C0.03543
%
T01
X00302Y00203
Y00218
Y00233
X00317Y00266
X00332Y00255
Y00277
X00385Y003
X0039Y003435
Y003615
X00385Y00405
X00405Y00415
X0042Y004
X0043Y00435
X00445Y0042
X00515Y0046
X00605Y00465
X0062
X006Y00415
X0062Y00385
X0061013Y00335
X0061Y003
Y00265
X0059993Y0021507
X0069353Y0018146
X00745Y0018
X0078
X0079Y00155
X00695Y0012
X0075Y0028
X00775Y0029
X0074701Y0032856
X00645Y0033
X0069Y0042
Y0046
Y00495
X0077124Y0046
X0085Y00445
X0094Y0044
X0096
X0098
X0101901Y0043901
X01015Y0046
X010177Y0053521
X0104Y00535
X00995Y0054
X0089Y0055
X00835Y0054
X00815
X0085Y00325
Y00305
Y00285
X0083965Y0023652
X00985Y0017
X0100558Y0017058
X01035Y00175
X010528Y0017771
X01045Y0019551
X01105Y0025
X01115Y003
X01215Y0031
Y00285
X01205Y00235
X01155Y00154
Y00131
X0092Y00105
X00925Y0038
X0102912Y0036538
X0103788Y0034602
X0120865Y0039965
X01261Y00357
X012576Y00535
X0121Y00555
X0111Y00535
X01325Y0053
X0136Y00195
X00406Y00199
Y0013
X0031Y00345
X0029336Y0036327
X003037Y00378
X00311Y00422
X00286
X00304Y0045
X00302Y0047566
Y0049066
Y0050566
X00285Y00325
X00535Y0038
X00445Y00565
T02
X0088318Y0021091
Y0025421
Y0029752
Y0034083
X0092649
X0096979
X010131
Y0029752
X0096979
X0092649
Y0025421
X0096979
X010131
Y0021091
X0096979
X0092649
T04
X0005Y0005
X0015
X0025
X0035
X0045
X0055
X0065
X0075
X0085
X0095
X0105
X0115
X0125
X0135
Y0065
X0125
X0115
X0105
X0095
X0085
X0075
X0065
X0055
X0045
X0035
X0025
X0015
X0005
M30
