G04*
G04 #@! TF.GenerationSoftware,Altium Limited,Altium Designer,21.0.8 (223)*
G04*
G04 Layer_Physical_Order=1*
G04 Layer_Color=255*
%FSLAX25Y25*%
%MOIN*%
G70*
G04*
G04 #@! TF.SameCoordinates,8808BF78-C309-42CA-8E72-27723A8412DA*
G04*
G04*
G04 #@! TF.FilePolarity,Positive*
G04*
G01*
G75*
%ADD12C,0.01000*%
%ADD16R,0.04331X0.03937*%
%ADD17R,0.01968X0.01772*%
%ADD18R,0.03150X0.01968*%
%ADD19O,0.02362X0.06299*%
%ADD20R,0.05315X0.05315*%
%ADD21R,0.05315X0.05315*%
%ADD22R,0.02126X0.01890*%
%ADD23R,0.02500X0.01900*%
%ADD24R,0.03543X0.03150*%
%ADD25R,0.01900X0.02500*%
%ADD26R,0.01772X0.01968*%
%ADD27R,0.04528X0.01181*%
%ADD28O,0.03347X0.00787*%
%ADD29O,0.00787X0.03347*%
%ADD30R,0.15748X0.15748*%
%ADD31R,0.04134X0.02362*%
%ADD32R,0.08268X0.03543*%
%ADD54C,0.00800*%
%ADD55C,0.00850*%
%ADD56C,0.00700*%
%ADD57C,0.00500*%
%ADD58C,0.00400*%
%ADD59C,0.05906*%
%ADD60R,0.05906X0.05906*%
%ADD61O,0.08661X0.03937*%
%ADD62O,0.07087X0.03937*%
%ADD63C,0.01400*%
%ADD64C,0.01968*%
G36*
X42700Y53600D02*
X43317Y52983D01*
Y52659D01*
X43641D01*
X43700Y52600D01*
X46436D01*
X46620Y52100D01*
X46503Y51924D01*
X46433Y51573D01*
Y51561D01*
X46289Y51418D01*
X45783D01*
X45432Y51348D01*
X45135Y51149D01*
X44936Y50851D01*
X44866Y50500D01*
X44936Y50149D01*
X45135Y49851D01*
X45432Y49652D01*
X45783Y49582D01*
X46669D01*
X47020Y49652D01*
X47318Y49851D01*
X47999Y50532D01*
X48198Y50830D01*
X48241Y51044D01*
X48570Y51130D01*
X49000Y50816D01*
Y49100D01*
X48333Y48433D01*
X43500D01*
X43194Y48306D01*
X42806Y48306D01*
X42500Y48433D01*
X34367D01*
X33000Y49800D01*
Y54500D01*
X33200Y54700D01*
X42700D01*
Y53600D01*
D02*
G37*
G36*
X31300Y51066D02*
Y46566D01*
X31000Y46266D01*
X22500D01*
Y50966D01*
X23000Y51466D01*
X30900Y51466D01*
X31300Y51066D01*
D02*
G37*
G36*
X63000Y51500D02*
Y51350D01*
X62950D01*
Y48650D01*
X63000D01*
Y45500D01*
X60000D01*
X59500Y46000D01*
Y47500D01*
X58867Y48500D01*
X53500Y48500D01*
Y45000D01*
X43500D01*
Y48000D01*
X50500D01*
Y49500D01*
X53500Y52500D01*
X62000D01*
X63000Y51500D01*
D02*
G37*
G36*
X31300Y45633D02*
Y43600D01*
X32100Y42800D01*
Y41300D01*
X28200D01*
X27500Y42000D01*
Y43100D01*
X27424Y43176D01*
Y43313D01*
X27287D01*
X27100Y43500D01*
X22500D01*
Y45833D01*
X31000D01*
X31300Y45633D01*
D02*
G37*
G36*
X42500Y45500D02*
X43114Y44886D01*
X43194Y44694D01*
X43385Y44614D01*
X43500Y44500D01*
X48000D01*
X49500Y43000D01*
Y39350D01*
X49450D01*
Y36650D01*
X49500D01*
Y32500D01*
X43000D01*
Y37500D01*
X39472Y41028D01*
X39432Y41123D01*
X39123Y41432D01*
X39028Y41472D01*
X37500Y43000D01*
X33000D01*
X32000Y44000D01*
Y47500D01*
X33000Y48000D01*
X42500D01*
Y45500D01*
D02*
G37*
G36*
X34100Y28300D02*
Y24900D01*
X33800Y24600D01*
X22500D01*
Y27500D01*
X30000D01*
X31100Y28600D01*
X33800D01*
X34100Y28300D01*
D02*
G37*
G36*
X31300Y19800D02*
X30900Y19400D01*
X23000Y19400D01*
X22500Y19900D01*
Y24167D01*
X31300D01*
Y19800D01*
D02*
G37*
D12*
X71600Y24365D02*
G03*
X73732Y22232I2132J0D01*
G01*
X44500Y54921D02*
X45181Y54240D01*
X44500Y54921D02*
Y56500D01*
X45181Y54240D02*
X45783D01*
X71600Y30900D02*
Y34700D01*
Y24365D02*
Y30900D01*
X74800Y45800D02*
Y49600D01*
X78900Y38409D02*
Y40351D01*
X79486Y37823D02*
X81428D01*
X78900Y38409D02*
X79486Y37823D01*
X77251Y42000D02*
X78900Y40351D01*
X74800Y42000D02*
X77251D01*
X74800D02*
Y45800D01*
X54524Y43524D02*
X55664Y44664D01*
Y46208D02*
X56217Y46760D01*
X55664Y44664D02*
Y46208D01*
X54524Y41500D02*
Y43524D01*
X50976Y41500D02*
X54524D01*
X63993Y54950D02*
Y56214D01*
X53300Y56800D02*
X63407D01*
X64443Y54500D02*
X64600D01*
X63993Y54950D02*
X64443Y54500D01*
X63407Y56800D02*
X63993Y56214D01*
X48659Y52159D02*
X53300Y56800D01*
X47936Y52159D02*
X48659D01*
X47350Y51573D02*
X47936Y52159D01*
X47350Y51181D02*
Y51573D01*
X46669Y50500D02*
X47350Y51181D01*
X45783Y50500D02*
X46669D01*
X56217Y54240D02*
X61140D01*
X61400Y54500D01*
X61100Y50000D02*
X61400D01*
X60600Y50500D02*
X61100Y50000D01*
D16*
X43154Y15500D02*
D03*
X49846D02*
D03*
X43154Y22500D02*
D03*
X49846D02*
D03*
D17*
X58476Y15500D02*
D03*
X55524D02*
D03*
X58476Y22500D02*
D03*
X55524D02*
D03*
X58476Y26500D02*
D03*
X55524D02*
D03*
X58476Y33500D02*
D03*
X55524D02*
D03*
X58476Y30000D02*
D03*
X55524D02*
D03*
X33524Y40500D02*
D03*
X36476D02*
D03*
X33524Y30000D02*
D03*
X36476D02*
D03*
X33524Y37000D02*
D03*
X36476D02*
D03*
X33524Y33500D02*
D03*
X36476D02*
D03*
X50976Y41500D02*
D03*
X48024D02*
D03*
X57476D02*
D03*
X54524D02*
D03*
D18*
X51650Y30228D02*
D03*
Y33772D02*
D03*
X45350D02*
D03*
Y30228D02*
D03*
D19*
X135900Y43872D02*
D03*
X130900D02*
D03*
X125900D02*
D03*
X120900D02*
D03*
X135900Y15328D02*
D03*
X130900D02*
D03*
X125900D02*
D03*
X120900D02*
D03*
D20*
X65268Y13768D02*
D03*
X73732Y22232D02*
D03*
D21*
X65268D02*
D03*
X73732Y13768D02*
D03*
D22*
X67500Y35232D02*
D03*
Y31768D02*
D03*
D23*
Y28500D02*
D03*
X64300D02*
D03*
X67500Y38500D02*
D03*
X64300D02*
D03*
X61400Y54500D02*
D03*
X64600D02*
D03*
X47900Y38000D02*
D03*
X51100D02*
D03*
X61400Y50000D02*
D03*
X64600D02*
D03*
X74800Y49600D02*
D03*
X71600D02*
D03*
X74800Y45800D02*
D03*
X71600D02*
D03*
X74800Y42000D02*
D03*
X71600D02*
D03*
X74800Y30900D02*
D03*
X71600D02*
D03*
X74800Y34700D02*
D03*
X71600D02*
D03*
D24*
X95153Y47138D02*
D03*
Y51862D02*
D03*
X89247D02*
D03*
Y47138D02*
D03*
D25*
X100200Y47900D02*
D03*
Y51100D02*
D03*
X84200Y47900D02*
D03*
Y51100D02*
D03*
X121000Y49900D02*
D03*
Y53100D02*
D03*
X104000Y47900D02*
D03*
Y51100D02*
D03*
X113400Y13100D02*
D03*
Y16300D02*
D03*
D26*
X80500Y50976D02*
D03*
Y48024D02*
D03*
X113700Y23976D02*
D03*
Y21024D02*
D03*
X131000Y52976D02*
D03*
Y50024D02*
D03*
D27*
X24760Y48425D02*
D03*
Y42323D02*
D03*
Y40354D02*
D03*
Y36417D02*
D03*
Y44291D02*
D03*
Y45276D02*
D03*
Y47441D02*
D03*
Y38386D02*
D03*
Y22441D02*
D03*
Y28543D02*
D03*
Y30512D02*
D03*
Y34449D02*
D03*
Y26575D02*
D03*
Y25591D02*
D03*
Y23425D02*
D03*
Y32480D02*
D03*
D28*
X81428Y37823D02*
D03*
Y36248D02*
D03*
Y34673D02*
D03*
Y33098D02*
D03*
Y31524D02*
D03*
Y29949D02*
D03*
Y28374D02*
D03*
Y26799D02*
D03*
Y25224D02*
D03*
Y23650D02*
D03*
Y22075D02*
D03*
Y20500D02*
D03*
Y18925D02*
D03*
Y17350D02*
D03*
X108200D02*
D03*
Y18925D02*
D03*
Y20500D02*
D03*
Y22075D02*
D03*
Y23650D02*
D03*
Y25224D02*
D03*
Y26799D02*
D03*
Y28374D02*
D03*
Y29949D02*
D03*
Y31524D02*
D03*
Y33098D02*
D03*
Y34673D02*
D03*
Y36248D02*
D03*
Y37823D02*
D03*
D29*
X84578Y14201D02*
D03*
X86153D02*
D03*
X87728D02*
D03*
X89302D02*
D03*
X90877D02*
D03*
X92452D02*
D03*
X94027D02*
D03*
X95602D02*
D03*
X97176D02*
D03*
X98751D02*
D03*
X100326D02*
D03*
X101901D02*
D03*
X103476D02*
D03*
X105050D02*
D03*
Y40972D02*
D03*
X103476D02*
D03*
X101901D02*
D03*
X100326D02*
D03*
X98751D02*
D03*
X97176D02*
D03*
X95602D02*
D03*
X94027D02*
D03*
X92452D02*
D03*
X90877D02*
D03*
X89302D02*
D03*
X87728D02*
D03*
X86153D02*
D03*
X84578D02*
D03*
D30*
X94814Y27587D02*
D03*
D31*
X56217Y54240D02*
D03*
Y50500D02*
D03*
Y46760D02*
D03*
X45783D02*
D03*
Y50500D02*
D03*
Y54240D02*
D03*
D32*
X37500Y45654D02*
D03*
Y52346D02*
D03*
D54*
X76927Y24376D02*
G03*
X77776Y24024I848J848D01*
G01*
X76927Y24376D02*
G03*
X77776Y24024I848J848D01*
G01*
X72900Y24365D02*
G03*
X73732Y23532I832J0D01*
G01*
X75032Y22232D02*
G03*
X73732Y23532I-1300J0D01*
G01*
Y20932D02*
G03*
X75032Y22232I0J1300D01*
G01*
X70300Y24365D02*
G03*
X73732Y20932I3432J0D01*
G01*
X77776Y19483D02*
G03*
X77776Y16517I224J-1483D01*
G01*
Y16366D02*
G03*
X77776Y14634I1224J-867D01*
G01*
Y12307D02*
G03*
X77276Y12013I313J-1106D01*
G01*
X77776Y12307D02*
G03*
X77273Y12011I313J-1106D01*
G01*
X70300Y25827D02*
G03*
X69500Y24500I700J-1327D01*
G01*
X69000Y18000D02*
G03*
X69500Y18500I0J500D01*
G01*
X62000Y18000D02*
G03*
X61500Y17500I0J-500D01*
G01*
Y12500D02*
G03*
X61835Y11250I2500J0D01*
G01*
X75303Y26000D02*
X76927Y24376D01*
X72900Y26000D02*
X75303D01*
X72900Y25200D02*
X76103D01*
X74902Y22800D02*
X77776D01*
X72984Y24000D02*
X77776D01*
X74868Y21600D02*
X77776D01*
X73200Y23725D02*
Y26000D01*
X74400Y23348D02*
Y26000D01*
X72900Y24365D02*
Y26000D01*
X77776Y19483D02*
Y24024D01*
Y12307D02*
Y14634D01*
X76512Y11250D02*
X77273Y12011D01*
X76800Y18900D02*
Y24503D01*
X75600Y11250D02*
Y25703D01*
X70800Y11250D02*
Y22581D01*
X72000Y11250D02*
Y21402D01*
X76800Y11538D02*
Y17100D01*
X74400Y11250D02*
Y21117D01*
X73200Y11250D02*
Y20974D01*
X69500Y21600D02*
X71698D01*
X69500Y20400D02*
X77776D01*
X69500Y24000D02*
X70319D01*
X69500Y22800D02*
X70677D01*
X69500Y19200D02*
X77100D01*
X69000Y18000D02*
X76500D01*
X61500Y16800D02*
X77100D01*
X69673Y25200D02*
X70300D01*
Y24365D02*
Y25827D01*
X69500Y18500D02*
Y24500D01*
X62000Y18000D02*
X69000D01*
X68400Y11250D02*
Y18000D01*
X69600Y11250D02*
Y25038D01*
X61500Y15600D02*
X77503D01*
X61500Y14400D02*
X77776D01*
X61550Y12000D02*
X77262D01*
X61835Y11250D02*
X76512D01*
X61500Y13200D02*
X77776D01*
X64800Y11250D02*
Y18000D01*
X66000Y11250D02*
Y18000D01*
X62400Y11250D02*
Y18000D01*
X63600Y11250D02*
Y18000D01*
X67200Y11250D02*
Y18000D01*
X61500Y12500D02*
Y17500D01*
X58476Y19990D02*
X59993Y21507D01*
X58962Y22014D02*
X59324D01*
X58476Y15500D02*
Y19990D01*
X59324Y22014D02*
X59716Y21622D01*
X59878D02*
X59993Y21507D01*
X59716Y21622D02*
X59878D01*
X58476Y22500D02*
X58962Y22014D01*
X83838Y23500D02*
X84000D01*
X83688Y23650D02*
X83838Y23500D01*
X81428Y23652D02*
X83965D01*
X81428Y23650D02*
Y23652D01*
X78363Y26799D02*
X81428D01*
X74701Y32856D02*
Y33098D01*
Y30999D02*
Y32856D01*
X49846Y15500D02*
X55524D01*
X49846Y22500D02*
X55524D01*
X58476Y26500D02*
X61000D01*
X58476Y30000D02*
X61000D01*
X75000Y28000D02*
X77776Y25224D01*
X81428D01*
X77500Y27662D02*
X78363Y26799D01*
X77500Y27662D02*
Y29000D01*
X58476Y33500D02*
X61013D01*
X75173Y34673D02*
X81428D01*
X74902Y33098D02*
Y34598D01*
X74800Y34700D02*
X74902Y34598D01*
Y33098D02*
X81428D01*
X45350Y30228D02*
X45718Y29861D01*
X47639D02*
X51000Y26500D01*
X45718Y29861D02*
X47639D01*
X51000Y26500D02*
X55524D01*
X55295Y30228D02*
X55524Y30000D01*
X51650Y30228D02*
X55295D01*
X55252Y33772D02*
X55524Y33500D01*
X51650Y33772D02*
X55252D01*
X74701Y30999D02*
X74800Y30900D01*
D55*
X76000Y37500D02*
G03*
X73586Y38500I-2414J-2414D01*
G01*
X76000Y37500D02*
G03*
X79023Y36248I3022J3022D01*
G01*
X65268Y22232D02*
X65518Y21982D01*
X67500Y28122D02*
Y28500D01*
Y23965D02*
Y28122D01*
X65518Y21982D02*
X67500Y23965D01*
Y38500D02*
X73586D01*
X67500Y35232D02*
Y38500D01*
X79023Y36248D02*
X81428D01*
X67500Y28500D02*
Y31768D01*
D56*
X105438Y33882D02*
X106221Y33098D01*
X108200D01*
X105438Y33882D02*
Y35002D01*
X105824Y31540D02*
X108183D01*
X103922Y33443D02*
Y34468D01*
Y33443D02*
X105824Y31540D01*
X103788Y34602D02*
X103922Y34468D01*
X103046Y36404D02*
X104037D01*
X105438Y35002D01*
X102912Y36538D02*
X103046Y36404D01*
X108183Y31540D02*
X108200Y31524D01*
X104689Y19551D02*
X105656Y20517D01*
X104500Y19551D02*
X104689D01*
X105656Y20517D02*
X108183D01*
X105280Y17771D02*
X105413Y17905D01*
Y18318D02*
X106020Y18925D01*
X105413Y17905D02*
Y18318D01*
X106020Y18925D02*
X108200D01*
X124848Y28500D02*
X135900Y39551D01*
X121500Y28500D02*
X124848D01*
X121391Y28391D02*
X121500Y28500D01*
X108217Y28391D02*
X121391D01*
X108200Y28374D02*
X108217Y28391D01*
X121500Y31000D02*
X124700D01*
X130900Y37200D01*
X116811Y23500D02*
X120500D01*
X103500Y17500D02*
X105034Y15966D01*
Y14218D02*
X105050Y14201D01*
X105034Y14218D02*
Y15966D01*
X108200Y29949D02*
X111449D01*
X111500Y30000D01*
X100200Y51100D02*
X100800Y51700D01*
Y52551D01*
X101770Y53521D01*
X95153Y47138D02*
X99638D01*
X100000Y47500D01*
X100800Y46760D02*
Y47000D01*
X101500Y46000D02*
Y46060D01*
X100000Y47500D02*
X100300D01*
X100800Y47000D01*
Y46760D02*
X101500Y46060D01*
X131000Y52976D02*
X131012Y52988D01*
X132488D01*
X132500Y53000D01*
X116447Y23863D02*
X116811Y23500D01*
X113813Y23863D02*
X116447D01*
X108183Y20517D02*
X108200Y20500D01*
X110311Y25000D02*
X110500D01*
X109503Y23650D02*
X109934Y23219D01*
X108200Y23650D02*
X109503D01*
X110103Y25208D02*
X110311Y25000D01*
X108217Y25208D02*
X110103D01*
X108200Y25224D02*
X108217Y25208D01*
X112580Y22242D02*
X113700Y21122D01*
X112504Y22242D02*
X112580D01*
X111527Y23219D02*
X112504Y22242D01*
X109934Y23219D02*
X111527D01*
X64500Y28700D02*
Y33000D01*
X64300Y28500D02*
X64500Y28700D01*
X135950Y15378D02*
Y19450D01*
X135900Y15328D02*
X135950Y15378D01*
Y19450D02*
X136000Y19500D01*
X87728Y38410D02*
Y40972D01*
X88138Y38000D02*
X92500D01*
X87728Y38410D02*
X88138Y38000D01*
X51100D02*
X53500D01*
X57476Y41500D02*
X60000D01*
X62000Y38500D02*
X64300D01*
X64600Y50000D02*
X68311D01*
X68811Y49500D01*
X69000D01*
X71500D01*
X71600Y49600D01*
X71400Y46000D02*
X71600Y45800D01*
X69000Y46000D02*
X71400D01*
X69000Y42000D02*
X71600D01*
X74800Y45800D02*
X74940Y45939D01*
X77064D01*
X77124Y46000D01*
X80500Y50976D02*
Y53000D01*
X81500Y54000D01*
X84200Y51100D02*
X88485D01*
X89247Y51862D01*
X89000Y52109D02*
Y55000D01*
Y52109D02*
X89247Y51862D01*
X104000Y51100D02*
Y53500D01*
X95153Y47138D02*
Y51862D01*
X101901Y43901D02*
X104000Y46000D01*
Y47900D01*
X101901Y40972D02*
Y43901D01*
X92452Y39669D02*
X92500Y39621D01*
Y38000D02*
Y39621D01*
X92452Y39669D02*
Y40972D01*
X121000Y53100D02*
Y55500D01*
X112000Y11000D02*
X112800Y11800D01*
Y12500D02*
X113400Y13100D01*
X112800Y11800D02*
Y12500D01*
X104000Y11000D02*
X112000D01*
X103476Y11524D02*
Y14201D01*
Y11524D02*
X104000Y11000D01*
X92452Y12898D02*
X92500Y12850D01*
X92452Y12898D02*
Y14201D01*
X92500Y11000D02*
Y12850D01*
X92000Y10500D02*
X92500Y11000D01*
X98000Y43949D02*
Y44000D01*
X97176Y40972D02*
Y43126D01*
X98000Y43949D01*
X96000Y43811D02*
Y44000D01*
X95602Y40972D02*
Y43412D01*
X96000Y43811D01*
X94000Y44000D02*
X94027Y43973D01*
Y40972D02*
Y43973D01*
X86153Y40972D02*
Y43347D01*
X85000Y44500D02*
X86153Y43347D01*
X68910Y52500D02*
X76000D01*
X67500Y53910D02*
Y61487D01*
Y53910D02*
X68910Y52500D01*
X78000Y48434D02*
Y50500D01*
X76000Y52500D02*
X78000Y50500D01*
X78410Y48024D02*
X80500D01*
X78000Y48434D02*
X78410Y48024D01*
X65000Y63987D02*
X67500Y61487D01*
X65000Y63987D02*
Y65000D01*
X82546Y44284D02*
X84578Y42252D01*
X82516Y44284D02*
X82546D01*
X80500Y46300D02*
Y48122D01*
X84578Y40972D02*
Y42252D01*
X83973Y31524D02*
X84949Y32500D01*
X81428Y31524D02*
X83973D01*
X84949Y32500D02*
X85000D01*
X84259Y29949D02*
X84811Y30500D01*
X85000D01*
X81428Y29949D02*
X84259D01*
X81428Y28374D02*
X84874D01*
X85000Y28500D01*
X79000Y16940D02*
X79410Y17350D01*
X79000Y15500D02*
Y16940D01*
X79410Y17350D02*
X81428D01*
X78000Y18000D02*
X78925Y18925D01*
X81428D01*
X85948Y8313D02*
X89302Y11668D01*
Y14201D01*
X85000Y5000D02*
X85948Y5948D01*
Y8313D01*
X87728Y11648D02*
Y14201D01*
X85079Y9000D02*
X87728Y11648D01*
X79000Y9000D02*
X85079D01*
X78544Y10100D02*
X84623D01*
X86153Y11629D01*
Y14201D01*
X60100Y10100D02*
X76989D01*
X78089Y11200D01*
X84168D01*
X69000Y9000D02*
X77444D01*
X78544Y10100D01*
X84578Y11610D02*
Y14201D01*
X84168Y11200D02*
X84578Y11610D01*
X55000Y5000D02*
X60100Y10100D01*
X75000Y5000D02*
X79000Y9000D01*
X65000Y5000D02*
X69000Y9000D01*
X95000Y5000D02*
X95093Y5093D01*
Y8593D02*
X97176Y10676D01*
X95093Y5093D02*
Y8593D01*
X97176Y10676D02*
Y14201D01*
X99161Y10000D02*
Y10000D01*
X104161Y5000D02*
X105000D01*
X99161Y10000D02*
X104161Y5000D01*
X98751Y10410D02*
Y14201D01*
Y10410D02*
X99161Y10000D01*
X112500Y38556D02*
Y57611D01*
X115000Y60111D02*
Y65000D01*
X112500Y57611D02*
X115000Y60111D01*
X114700Y37644D02*
Y56700D01*
X108200Y34673D02*
X111729D01*
X114700Y37644D01*
Y56700D02*
X117700Y59700D01*
X113600Y57156D02*
X117244Y60800D01*
X113600Y38100D02*
Y57156D01*
X111748Y36248D02*
X113600Y38100D01*
X117244Y60800D02*
X120800D01*
X117700Y59700D02*
X130300D01*
X108200Y37823D02*
X111767D01*
X112500Y38556D01*
X108200Y36248D02*
X111748D01*
X135000Y64400D02*
Y65000D01*
X130300Y59700D02*
X135000Y64400D01*
X120800Y60800D02*
X125000Y65000D01*
X130900Y49924D02*
X131000Y50024D01*
X130900Y43872D02*
Y49924D01*
X113700Y21024D02*
Y21122D01*
X108200Y26799D02*
X124201D01*
X126000Y25000D01*
X126100Y35700D02*
Y43672D01*
X125900Y43872D02*
X126100Y43672D01*
X130900Y37200D02*
Y43872D01*
X121000Y40289D02*
Y49900D01*
X120865Y40154D02*
X121000Y40289D01*
X120865Y39965D02*
Y40154D01*
X113400Y16000D02*
Y16300D01*
Y16000D02*
X114000Y15400D01*
X115500D01*
X130900Y11800D02*
Y15328D01*
X129700Y10600D02*
X130900Y11800D01*
X118510Y10600D02*
X129700D01*
X113700Y23976D02*
X113813Y23863D01*
X135900Y39551D02*
Y43872D01*
X126000Y19900D02*
Y25000D01*
X125590Y19490D02*
X126000Y19900D01*
X125590Y18065D02*
Y19490D01*
Y18065D02*
X125900Y17755D01*
Y15328D02*
Y17755D01*
X119055Y15545D02*
X120089D01*
X114236Y20364D02*
X119055Y15545D01*
X114236Y20364D02*
Y20488D01*
X113700Y21024D02*
X114236Y20488D01*
X117369Y11741D02*
X118510Y10600D01*
X117369Y11741D02*
Y15591D01*
X114264Y18697D02*
X117369Y15591D01*
X111836Y18697D02*
X114264D01*
X111426Y19107D02*
X111836Y18697D01*
X111426Y19107D02*
Y21274D01*
X110625Y22075D02*
X111426Y21274D01*
X108200Y22075D02*
X110625D01*
X113400Y13100D02*
X115500D01*
X126000Y19900D02*
X131900D01*
X133500Y18300D01*
Y7909D02*
Y18300D01*
X135000Y5000D02*
Y6409D01*
X133500Y7909D02*
X135000Y6409D01*
X41338Y13882D02*
X42957Y15500D01*
X41338Y13760D02*
Y13882D01*
X40600Y13022D02*
X41338Y13760D01*
X42957Y15500D02*
X43154D01*
X40600Y13000D02*
Y13022D01*
X41338Y20881D02*
X42957Y22500D01*
X41338Y20685D02*
Y20881D01*
X40600Y19900D02*
Y19947D01*
X42957Y22500D02*
X43154D01*
X40600Y19947D02*
X41338Y20685D01*
X84200Y47900D02*
X88485D01*
X89247Y47138D01*
Y42331D02*
X89302Y42276D01*
X89247Y42331D02*
Y47138D01*
X89302Y40972D02*
Y42276D01*
X80500Y46300D02*
X82516Y44284D01*
X36476Y30000D02*
X38500D01*
X36476Y40500D02*
X38500D01*
X24760Y40354D02*
X24905Y40500D01*
X33524D01*
X30500Y30000D02*
X33524D01*
X24760Y28543D02*
X29043D01*
X30500Y30000D01*
D57*
X100326Y14201D02*
Y15403D01*
X100193Y15535D02*
X100326Y15403D01*
X100172Y15535D02*
X100193D01*
X98707Y17000D02*
X100172Y15535D01*
X98500Y17000D02*
X98707D01*
X101901Y14201D02*
Y15558D01*
X100558Y16901D02*
X101901Y15558D01*
X100558Y16901D02*
Y17058D01*
X37211Y34457D02*
X37503Y34750D01*
X38357D01*
X36575Y33500D02*
X37211Y34136D01*
Y34457D01*
X36476Y33500D02*
X36575D01*
Y37000D02*
X37211Y36364D01*
X36476Y37000D02*
X36575D01*
X37211Y36043D02*
Y36364D01*
Y36043D02*
X37503Y35750D01*
X38357D01*
D58*
X24760Y34449D02*
X32505D01*
X30222Y37800D02*
X30370D01*
X24760Y38386D02*
X29636D01*
X30222Y37800D01*
X24760Y36417D02*
X29246D01*
X29336Y36327D01*
X29322Y36417D02*
X29405Y36500D01*
X33024D01*
X33524Y37000D01*
X24760Y32480D02*
X28480D01*
X28500Y32500D01*
X32739Y34186D02*
Y34214D01*
X33425Y33500D02*
X33524D01*
X32505Y34449D02*
X32739Y34214D01*
Y34186D02*
X33425Y33500D01*
D59*
X135000Y5000D02*
D03*
X125000D02*
D03*
X115000D02*
D03*
X105000D02*
D03*
X95000D02*
D03*
X85000D02*
D03*
X75000D02*
D03*
X65000D02*
D03*
X55000D02*
D03*
X45000D02*
D03*
X35000D02*
D03*
X25000D02*
D03*
X15000D02*
D03*
X135000Y65000D02*
D03*
X125000D02*
D03*
X115000D02*
D03*
X105000D02*
D03*
X95000D02*
D03*
X85000D02*
D03*
X75000D02*
D03*
X65000D02*
D03*
X55000D02*
D03*
X45000D02*
D03*
X35000D02*
D03*
X25000D02*
D03*
X15000D02*
D03*
D60*
X5000Y5000D02*
D03*
Y65000D02*
D03*
D61*
X5626Y13484D02*
D03*
Y57382D02*
D03*
D62*
X21374Y13484D02*
D03*
Y57382D02*
D03*
D63*
X103788Y34602D02*
D03*
X102912Y36538D02*
D03*
X104500Y19551D02*
D03*
X105280Y17771D02*
D03*
X121500Y28500D02*
D03*
Y31000D02*
D03*
X120500Y23500D02*
D03*
X125760Y53500D02*
D03*
X103500Y17500D02*
D03*
X111000Y53500D02*
D03*
X111500Y30000D02*
D03*
X99500Y54000D02*
D03*
X101770Y53521D02*
D03*
X101500Y46000D02*
D03*
X83500Y54000D02*
D03*
X132500Y53000D02*
D03*
X100558Y17058D02*
D03*
X98500Y17000D02*
D03*
X110500Y25000D02*
D03*
X59993Y21507D02*
D03*
X64500Y33000D02*
D03*
X44500Y56500D02*
D03*
X136000Y19500D02*
D03*
X74500Y18000D02*
D03*
X69500Y12000D02*
D03*
X69353Y18146D02*
D03*
X53500Y38000D02*
D03*
X62000Y38500D02*
D03*
X60000Y41500D02*
D03*
X69000Y42000D02*
D03*
Y46000D02*
D03*
Y49500D02*
D03*
X77124Y46000D02*
D03*
X81500Y54000D02*
D03*
X89000Y55000D02*
D03*
X104000Y53500D02*
D03*
X101901Y43901D02*
D03*
X92500Y38000D02*
D03*
X121000Y55500D02*
D03*
X92000Y10500D02*
D03*
X98000Y44000D02*
D03*
X96000D02*
D03*
X94000D02*
D03*
X85000Y44500D02*
D03*
Y32500D02*
D03*
Y30500D02*
D03*
Y28500D02*
D03*
X78000Y18000D02*
D03*
X79000Y15500D02*
D03*
X39000Y34350D02*
D03*
Y36150D02*
D03*
X126100Y35700D02*
D03*
X120865Y39965D02*
D03*
X115500Y15400D02*
D03*
Y13100D02*
D03*
X40600Y19900D02*
D03*
Y13000D02*
D03*
X30400Y45000D02*
D03*
X28600Y42200D02*
D03*
X31100D02*
D03*
X30200Y47566D02*
D03*
Y49066D02*
D03*
Y50566D02*
D03*
X31700Y26600D02*
D03*
X33200Y25500D02*
D03*
Y27700D02*
D03*
X30200Y20300D02*
D03*
Y21800D02*
D03*
Y23300D02*
D03*
X38500Y40500D02*
D03*
Y30000D02*
D03*
X83965Y23652D02*
D03*
X30370Y37800D02*
D03*
X29336Y36327D02*
D03*
X31000Y34500D02*
D03*
X28500Y32500D02*
D03*
X43000Y43500D02*
D03*
X44500Y42000D02*
D03*
X40500Y41500D02*
D03*
X42000Y40000D02*
D03*
X51500Y46000D02*
D03*
X62000Y46500D02*
D03*
X60500D02*
D03*
X61000Y26500D02*
D03*
Y30000D02*
D03*
X75000Y28000D02*
D03*
X77500Y29000D02*
D03*
X61013Y33500D02*
D03*
X74701Y32856D02*
D03*
D64*
X88318Y34083D02*
D03*
X92649D02*
D03*
X96979D02*
D03*
X101310D02*
D03*
X88318Y29752D02*
D03*
X92649D02*
D03*
X96979D02*
D03*
X101310D02*
D03*
X88318Y25421D02*
D03*
X92649D02*
D03*
X96979D02*
D03*
X101310D02*
D03*
X88318Y21091D02*
D03*
X92649D02*
D03*
X96979D02*
D03*
X101310D02*
D03*
M02*
